<svg width="24" height="24" viewBox="0 0 24 24" fill="none" xmlns="http://www.w3.org/2000/svg">
<path d="M2.25 9.74912C2.24896 8.39612 2.46378 7.05124 2.88575 5.76572C2.98814 5.45437 3.28065 5.24555 3.6084 5.25009C6.53484 5.29094 9.36114 4.18538 11.4834 2.17002L11.5986 2.08017C11.8831 1.8997 12.2622 1.92922 12.5156 2.16904C14.5317 4.07913 17.2532 5.24912 20.25 5.24912H20.4023L20.5215 5.25888C20.7949 5.30292 21.0257 5.4955 21.1143 5.76474C21.5268 7.01938 21.75 8.3595 21.75 9.75009C21.7499 15.6925 17.6858 20.6835 12.1865 22.0987C12.064 22.1302 11.935 22.1303 11.8125 22.0987C6.48517 20.7266 2.50512 15.9996 2.26172 10.3028L2.25 9.74912ZM14.3897 9.31357C14.6304 8.97682 15.0986 8.89924 15.4356 9.13974C15.7725 9.38045 15.8509 9.8486 15.6104 10.1856L11.8604 15.4356C11.7322 15.615 11.5312 15.729 11.3115 15.7472C11.092 15.7652 10.8755 15.6861 10.7197 15.5304L8.46973 13.2804C8.17686 12.9875 8.17691 12.5127 8.46973 12.2198C8.76262 11.9269 9.23738 11.9269 9.53028 12.2198L11.1533 13.8429L14.3897 9.31357ZM3.75 9.74912C3.75007 14.9227 7.24288 19.279 12 20.5929C16.7571 19.28 20.2499 14.9238 20.25 9.75009C20.25 8.70699 20.1068 7.69829 19.8418 6.74131C16.8549 6.64738 14.1276 5.52584 12.001 3.71884C9.80617 5.58704 7.0405 6.65528 4.15723 6.74424C3.88693 7.72187 3.7492 8.73219 3.75 9.74814V9.74912Z" fill="#8BA19F"/>
</svg>
