<svg width="24" height="24" viewBox="0 0 24 24" fill="none" xmlns="http://www.w3.org/2000/svg">
<path d="M9.32157 17.2501C9.32157 16.9074 9.25426 16.5809 9.13296 16.2836V16.283C8.90872 15.7302 8.49905 15.2725 7.97448 14.9884C7.91229 14.9547 7.84907 14.9235 7.78474 14.8952C7.76895 14.8918 7.75298 14.8882 7.73731 14.8829C7.70631 14.8724 7.67758 14.8575 7.65082 14.8411C7.2081 14.6755 6.72582 14.6341 6.2574 14.7255C5.67199 14.8398 5.14445 15.1541 4.76521 15.6145C4.38595 16.075 4.17865 16.6535 4.17872 17.2501C4.17869 17.6168 4.10313 17.9795 3.95718 18.3159C3.81119 18.6524 3.59778 18.9555 3.32994 19.206C3.06211 19.4566 2.74568 19.6497 2.40026 19.773C2.30895 19.8055 2.21571 19.832 2.1218 19.8545C2.54092 20.3578 3.07693 20.7562 3.6882 21.0101C4.51632 21.3541 5.43518 21.4147 6.30149 21.1831C7.16769 20.9516 7.93344 20.4406 8.4795 19.7295C9.02552 19.0183 9.32153 18.1467 9.32157 17.2501ZM9.65863 11.6379C9.16225 12.468 8.74436 13.3425 8.4103 14.2501C8.97542 14.5629 9.4379 15.0277 9.74847 15.5883C10.6562 15.2541 11.5305 14.8364 12.3606 14.3399C11.7588 13.183 10.8158 12.2395 9.65863 11.6379ZM20.6715 2.67979C20.505 2.66353 20.3378 2.70552 20.1988 2.79865L20.1977 2.79921L14.3841 6.67644H14.3835C12.6994 7.79905 11.2518 9.23862 10.1201 10.913C11.381 11.5853 12.4128 12.6172 13.0855 13.8779C14.7605 12.7466 16.2013 11.3003 17.3244 9.61617L21.2005 3.802L21.201 3.80144C21.2942 3.66248 21.3361 3.49529 21.3199 3.32878C21.3036 3.16223 21.2301 3.00626 21.1118 2.88793C20.9935 2.76972 20.8379 2.69608 20.6715 2.67979ZM10.1787 17.2501C10.1787 18.3354 9.82014 19.3903 9.15919 20.2512C8.49811 21.1122 7.57115 21.731 6.52247 22.0113C5.47381 22.2915 4.36195 22.2178 3.35952 21.8014C2.35709 21.3851 1.51991 20.6495 0.978382 19.7088C0.899504 19.5718 0.902523 19.4021 0.986195 19.268C1.06985 19.1338 1.22077 19.0566 1.37849 19.0671C1.62727 19.0837 1.87691 19.0492 2.11175 18.9655C2.34668 18.8817 2.56241 18.7503 2.74457 18.5799C2.92659 18.4096 3.07167 18.2037 3.1709 17.975C3.27016 17.7462 3.32155 17.4995 3.32157 17.2501C3.32148 16.4547 3.59774 15.6838 4.10338 15.0699C4.60906 14.4559 5.31265 14.0369 6.09334 13.8846C6.60083 13.7855 7.12033 13.8035 7.61398 13.932C8.01187 12.8557 8.52119 11.8235 9.13463 10.8528C9.13807 10.8473 9.14216 10.8424 9.14579 10.8372C10.3752 8.89761 11.9972 7.23702 13.9081 5.96327L19.7211 2.08771V2.08715C20.025 1.88338 20.3905 1.79099 20.7546 1.82655C21.1187 1.86211 21.4591 2.02326 21.7178 2.28191C21.9764 2.54057 22.1375 2.88102 22.1731 3.24508C22.2087 3.60921 22.1168 3.97468 21.9131 4.27856L18.0375 10.0916C16.7653 11.9995 15.1071 13.6189 13.1709 14.8472C13.1567 14.8576 13.142 14.8674 13.1263 14.8762C12.1615 15.484 11.1365 15.9893 10.0677 16.3846C10.1399 16.6614 10.1787 16.9516 10.1787 17.2501Z" fill="#7800FF"/>
</svg>
