<svg width="24" height="24" viewBox="0 0 24 24" fill="none" xmlns="http://www.w3.org/2000/svg">
<path d="M17.2492 9C17.2492 7.60773 16.6965 6.27263 15.7121 5.28809C14.7275 4.30352 13.3916 3.75 11.9992 3.75C10.607 3.75013 9.27175 4.30363 8.28729 5.28809C7.30288 6.27263 6.74921 7.60773 6.74921 9V9.74902L6.73944 10.2002C6.65477 12.0777 6.02533 13.8842 4.93866 15.4062C6.31785 15.8454 7.75233 16.1614 9.23065 16.3369C11.07 16.5551 12.9294 16.5551 14.7687 16.3369L15.4435 16.2471C16.6696 16.0651 17.878 15.7821 19.0588 15.4062C17.8858 13.7626 17.2462 11.7867 17.2492 9.74902V9ZM14.2463 17.8994C12.7513 18.0343 11.2472 18.0343 9.75214 17.8994C9.74551 18.0516 9.75403 18.205 9.7785 18.3564C9.83503 18.7059 9.97318 19.0372 10.1818 19.3232C10.3907 19.6094 10.6648 19.8424 10.9807 20.0029C11.2963 20.1633 11.6452 20.247 11.9992 20.2471C12.3534 20.2471 12.703 20.1634 13.0187 20.0029C13.3346 19.8424 13.6087 19.6094 13.8176 19.3232C14.0262 19.0372 14.1644 18.7059 14.2209 18.3564C14.2454 18.205 14.2529 18.0517 14.2463 17.8994ZM18.7492 9.75098C18.7462 11.7894 19.5014 13.7564 20.8674 15.2695C21.0341 15.4542 21.0987 15.7096 21.0392 15.9512C20.9797 16.1928 20.8039 16.3894 20.5705 16.4756C19.0059 17.0531 17.387 17.468 15.7394 17.7178C15.7613 18.0098 15.7484 18.3047 15.7014 18.5957C15.6071 19.1785 15.3765 19.7311 15.0285 20.208C14.6805 20.6848 14.2247 21.0724 13.6984 21.3398C13.172 21.6073 12.5897 21.7471 11.9992 21.7471C11.4089 21.747 10.8272 21.6073 10.301 21.3398C9.77473 21.0724 9.31891 20.6848 8.97089 20.208C8.6229 19.7311 8.39226 19.1785 8.29804 18.5957C8.25106 18.305 8.23727 18.0104 8.25897 17.7188C6.58818 17.4653 4.97195 17.0458 3.42792 16.4756C3.19443 16.3894 3.01864 16.1929 2.95917 15.9512C2.89974 15.7096 2.96432 15.4542 3.13104 15.2695C4.49732 13.7566 5.25197 11.7895 5.24921 9.75098V9C5.24921 7.20979 5.96088 5.49243 7.22675 4.22656C8.49248 2.96096 10.2093 2.25013 11.9992 2.25C13.7893 2.25 15.5068 2.96084 16.7726 4.22656C18.0385 5.49243 18.7492 7.20979 18.7492 9V9.75098Z" fill="#8BA19F"/>
</svg>
