<svg width="24" height="24" viewBox="0 0 24 24" fill="none" xmlns="http://www.w3.org/2000/svg">
<path d="M16 2C16.5128 2 16.9354 2.38645 16.9932 2.88379L17 3V4H18C19.6569 4 21 5.34315 21 7V19C21 20.6569 19.6569 22 18 22H6C4.34315 22 3 20.6569 3 19V7C3 5.34315 4.34315 4 6 4H7V3C7 2.44772 7.44772 2 8 2C8.51284 2 8.9354 2.38645 8.99316 2.88379L9 3V4H15V3C15 2.44772 15.4477 2 16 2ZM5 19C5 19.5523 5.44772 20 6 20H18C18.5523 20 19 19.5523 19 19V12H5V19ZM10 14C10.5523 14 11 14.4477 11 15V17C11 17.5523 10.5523 18 10 18H8C7.44772 18 7 17.5523 7 17V15C7 14.4477 7.44772 14 8 14H10ZM6 6C5.44772 6 5 6.44772 5 7V10H19V7C19 6.44772 18.5523 6 18 6H17V7C17 7.55228 16.5523 8 16 8C15.4872 8 15.0646 7.61355 15.0068 7.11621L15 7V6H9V7C9 7.55228 8.55228 8 8 8C7.48716 8 7.0646 7.61355 7.00684 7.11621L7 7V6H6Z" fill="#8BA19F"/>
</svg>
