<svg width="20" height="20" viewBox="0 0 20 20" fill="none" xmlns="http://www.w3.org/2000/svg">
<path d="M17.375 10.6328V5.61719C17.3749 4.62725 16.6853 3.80607 15.7598 3.66992C14.091 3.42501 12.4086 3.28708 10.7227 3.25684L10 3.25C8.04337 3.25 6.11998 3.39357 4.24023 3.66992C3.31479 3.80605 2.62515 4.62794 2.625 5.61719V10.6338C2.62521 11.622 3.3147 12.4439 4.24023 12.5801C5.12867 12.7109 6.02638 12.8115 6.93262 12.8818C7.32311 12.9121 7.62494 13.2382 7.625 13.6299V15.6895L9.74316 13.5713C10.109 13.2079 10.5998 12.9978 11.1152 12.9844L11.6982 12.9639C13.0577 12.9061 14.4133 12.7778 15.7598 12.5801C16.6853 12.4439 17.3749 11.6228 17.375 10.6328ZM18.875 10.6328C18.8749 12.3125 17.6926 13.8122 15.9785 14.0645C14.381 14.2991 12.7703 14.4387 11.1562 14.4834L11.1553 14.4844C11.0221 14.4877 10.8943 14.5419 10.7998 14.6357L7.40527 18.0303C7.19079 18.2448 6.86813 18.3094 6.58789 18.1934C6.30763 18.0773 6.125 17.8033 6.125 17.5V14.3184C5.41898 14.2517 4.7176 14.1669 4.02148 14.0645C2.30743 13.8122 1.12521 12.3118 1.125 10.6338V5.61719C1.12515 3.93844 2.30725 2.43781 4.02148 2.18555C5.97333 1.89859 7.97004 1.75 10 1.75C12.0006 1.74938 13.9991 1.89502 15.9785 2.18555C17.6926 2.43779 18.8749 3.93747 18.875 5.61719V10.6328Z" fill="#8BA19F"/>
</svg>
