<svg width="24" height="24" viewBox="0 0 24 24" fill="none" xmlns="http://www.w3.org/2000/svg">
<path d="M19.5 1.875C20.1213 1.875 20.625 2.37868 20.625 3C20.625 3.48926 20.3112 3.90128 19.875 4.05615V19.875H20.25C20.8713 19.875 21.375 20.3787 21.375 21C21.375 21.6213 20.8713 22.125 20.25 22.125H3.75C3.12868 22.125 2.625 21.6213 2.625 21C2.625 20.3787 3.12868 19.875 3.75 19.875H4.125V4.05615C3.68885 3.90128 3.375 3.48926 3.375 3C3.375 2.37868 3.87868 1.875 4.5 1.875H19.5ZM10.125 17.625V19.875H13.875V17.625H10.125ZM10.5 11.625C11.1213 11.625 11.625 12.1287 11.625 12.75C11.625 13.3713 11.1213 13.875 10.5 13.875H9C8.37868 13.875 7.875 13.3713 7.875 12.75C7.875 12.1287 8.37868 11.625 9 11.625H10.5ZM15 11.625C15.6213 11.625 16.125 12.1287 16.125 12.75C16.125 13.3713 15.6213 13.875 15 13.875H13.5C12.8787 13.875 12.375 13.3713 12.375 12.75C12.375 12.1287 12.8787 11.625 13.5 11.625H15ZM10.5 8.625C11.1213 8.625 11.625 9.12868 11.625 9.75C11.625 10.3713 11.1213 10.875 10.5 10.875H9C8.37868 10.875 7.875 10.3713 7.875 9.75C7.875 9.12868 8.37868 8.625 9 8.625H10.5ZM15 8.625C15.6213 8.625 16.125 9.12868 16.125 9.75C16.125 10.3713 15.6213 10.875 15 10.875H13.5C12.8787 10.875 12.375 10.3713 12.375 9.75C12.375 9.12868 12.8787 8.625 13.5 8.625H15ZM10.5 5.625C11.1213 5.625 11.625 6.12868 11.625 6.75C11.625 7.37132 11.1213 7.875 10.5 7.875H9C8.37868 7.875 7.875 7.37132 7.875 6.75C7.875 6.12868 8.37868 5.625 9 5.625H10.5ZM15 5.625C15.6213 5.625 16.125 6.12868 16.125 6.75C16.125 7.37132 15.6213 7.875 15 7.875H13.5C12.8787 7.875 12.375 7.37132 12.375 6.75C12.375 6.12868 12.8787 5.625 13.5 5.625H15ZM16.125 19.875H17.625V4.125H6.375V19.875H7.875V17.625C7.875 16.3827 8.88268 15.375 10.125 15.375H13.875C15.1173 15.375 16.125 16.3827 16.125 17.625V19.875Z" fill="#8BA19F"/>
</svg>
