<svg width="24" height="24" viewBox="0 0 24 24" fill="none" xmlns="http://www.w3.org/2000/svg">
<path d="M2.625 20.625V7.875C2.625 6.63268 3.63268 5.625 4.875 5.625H6.75C6.87508 5.62492 7.00008 5.6278 7.125 5.63232V3.375C7.125 2.13268 8.13268 1.125 9.375 1.125H11.25V1.12646C11.8147 1.12612 12.379 1.17105 12.936 1.26416L13.3813 1.34912C17.9502 2.32912 21.375 6.38793 21.375 11.25V16.125C21.375 17.3673 20.3673 18.375 19.125 18.375H16.875V20.625C16.875 21.8673 15.8673 22.875 14.625 22.875H4.875C4.27827 22.875 3.70614 22.6378 3.28418 22.2158C2.86222 21.7939 2.625 21.2217 2.625 20.625ZM4.875 20.625H14.625V18.375H9.375C8.77827 18.375 8.20614 18.1378 7.78418 17.7158C7.36222 17.2939 7.125 16.7217 7.125 16.125V7.88379C7.00061 7.878 6.87607 7.87493 6.75146 7.875H4.875V20.625ZM15.375 7.125H16.875C17.2778 7.125 17.6737 7.18362 18.0557 7.2876C17.3696 6.11159 16.3884 5.12903 15.2124 4.44287C15.3173 4.8277 15.375 5.22445 15.375 5.625V7.125ZM9.375 16.125H19.125V11.625C19.125 11.0283 18.8878 10.4561 18.4658 10.0342C18.0439 9.61222 17.4717 9.375 16.875 9.375H15.375C14.7783 9.375 14.2061 9.13778 13.7842 8.71582C13.3622 8.29386 13.125 7.72174 13.125 7.125V5.625C13.125 5.32953 13.0667 5.03665 12.9536 4.76367C12.8405 4.4908 12.6747 4.24304 12.4658 4.03418C12.257 3.82532 12.0092 3.65946 11.7363 3.54639C11.4633 3.43331 11.1705 3.375 10.875 3.375H9.375V16.125Z" fill="#8BA19F"/>
</svg>
