<svg width="24" height="24" viewBox="0 0 24 24" fill="none" xmlns="http://www.w3.org/2000/svg">
<path d="M11.9991 11.9902C14.1638 11.9902 16.2421 12.8413 17.7853 14.3594C19.3282 15.8774 20.2127 17.9412 20.2481 20.1055C20.253 20.4031 20.0812 20.6757 19.8106 20.7998C17.36 21.9235 14.6951 22.5025 11.9991 22.499V22.5C9.21315 22.5 6.56671 21.8919 4.1876 20.7998C3.91719 20.6757 3.74524 20.403 3.7501 20.1055C3.78552 17.9412 4.67002 15.8774 6.21299 14.3594C7.75611 12.8412 9.83442 11.9902 11.9991 11.9902ZM11.9991 13.4902C10.2281 13.4902 8.52826 14.1867 7.26573 15.4287C6.12014 16.5557 5.41929 18.0505 5.27744 19.6406C7.34238 20.5155 9.61339 21 11.9991 21H12.0001C14.3104 21.0031 16.5954 20.5396 18.7198 19.6406C18.578 18.0505 17.8781 16.5557 16.7325 15.4287C15.47 14.1867 13.7701 13.4902 11.9991 13.4902ZM14.9991 6C14.9991 5.20436 14.6828 4.44151 14.1202 3.87891C13.5576 3.3163 12.7948 3.00001 11.9991 3C11.2035 3 10.4406 3.3163 9.87803 3.87891C9.31542 4.44152 8.99912 5.20435 8.99912 6C8.99912 6.79565 9.31542 7.55848 9.87803 8.12109C10.4406 8.6837 11.2035 9 11.9991 9C12.7948 8.99999 13.5576 8.6837 14.1202 8.12109C14.6828 7.55849 14.9991 6.79564 14.9991 6ZM16.4933 6.22266C16.4382 7.33506 15.972 8.39036 15.1808 9.18164C14.3369 10.0255 13.1926 10.5 11.9991 10.5C10.8057 10.5 9.6614 10.0255 8.81748 9.18164C7.97357 8.33773 7.49912 7.19347 7.49912 6C7.49912 4.80653 7.97357 3.66227 8.81748 2.81836C9.6614 1.97445 10.8057 1.5 11.9991 1.5C13.1926 1.50001 14.3369 1.97445 15.1808 2.81836C16.0247 3.66227 16.4991 4.80653 16.4991 6L16.4933 6.22266Z" fill="#8BA19F"/>
</svg>
