<svg width="24" height="24" viewBox="0 0 24 24" fill="none" xmlns="http://www.w3.org/2000/svg">
<path d="M13.4999 16.125C13.4999 15.9182 13.3317 15.75 13.1249 15.75H10.8749C10.6681 15.75 10.4999 15.9182 10.4999 16.125V20.25H13.4999V16.125ZM20.2499 19.875C20.2499 20.9102 19.4101 21.75 18.3749 21.75H5.62491C4.5897 21.75 3.74991 20.9102 3.74991 19.875V11.5595L2.78018 12.5302C2.48731 12.8232 2.01255 12.8231 1.71964 12.5302C1.42679 12.2374 1.42678 11.7626 1.71964 11.4697L10.6737 2.51462V2.51365C11.4061 1.78294 12.5929 1.78251 13.3251 2.51462L22.2802 11.4697C22.5731 11.7626 22.573 12.2374 22.2802 12.5302C21.9873 12.8231 21.5125 12.8231 21.2196 12.5302L20.2499 11.5605V19.875ZM14.9999 20.25H18.3749C18.5817 20.25 18.7499 20.0818 18.7499 19.875V10.0605L12.2646 3.57517C12.1188 3.42951 11.8809 3.42894 11.7333 3.57615L5.24991 10.0595V19.875C5.24991 20.0818 5.41812 20.25 5.62491 20.25H8.99991V16.125C8.99995 15.0898 9.83972 14.25 10.8749 14.25H13.1249C14.1601 14.25 14.9999 15.0898 14.9999 16.125V20.25Z" fill="#B573FF"/>
</svg>
