<svg width="24" height="24" viewBox="0 0 24 24" fill="none" xmlns="http://www.w3.org/2000/svg">
<path d="M14.25 18H9.75V18.2568L9.74512 18.4414C9.72401 18.8709 9.62975 19.2942 9.46484 19.6924C9.38434 19.8867 9.2861 20.0727 9.1748 20.25H14.8252C14.7139 20.0727 14.6157 19.8867 14.5352 19.6924C14.3467 19.2373 14.2499 18.7494 14.25 18.2568V18ZM20.25 14.5938C19.7974 14.8555 19.2819 15 18.75 15H5.25C4.71809 15 4.20263 14.8555 3.75 14.5938V15C3.75 15.3978 3.90815 15.7792 4.18945 16.0605C4.47076 16.3419 4.85218 16.5 5.25 16.5H18.75L18.8984 16.4922C19.2417 16.458 19.5645 16.3066 19.8105 16.0605C20.0919 15.7792 20.25 15.3978 20.25 15V14.5938ZM20.25 5.25C20.25 4.85218 20.0919 4.47076 19.8105 4.18945C19.5292 3.90815 19.1478 3.75 18.75 3.75H5.25C4.85218 3.75 4.47076 3.90815 4.18945 4.18945C3.90815 4.47076 3.75 4.85218 3.75 5.25V12C3.75 12.3978 3.90815 12.7792 4.18945 13.0605C4.47076 13.3419 4.85218 13.5 5.25 13.5H18.75C19.1478 13.5 19.5292 13.3419 19.8105 13.0605C20.0566 12.8145 20.208 12.4917 20.2422 12.1484L20.25 12V5.25ZM21.75 15C21.75 15.7956 21.4337 16.5585 20.8711 17.1211C20.3085 17.6837 19.5456 18 18.75 18H15.75V18.2568L15.7607 18.4775C15.7824 18.6974 15.8361 18.9133 15.9209 19.1182C16.034 19.3912 16.2002 19.6397 16.4092 19.8486L17.0303 20.4697C17.2448 20.6842 17.3094 21.0069 17.1934 21.2871C17.0773 21.5674 16.8033 21.75 16.5 21.75H7.5C7.19665 21.75 6.92273 21.5674 6.80664 21.2871C6.6906 21.0069 6.75525 20.6842 6.96973 20.4697L7.59082 19.8486L7.73926 19.6846C7.87935 19.5139 7.99428 19.3229 8.0791 19.1182C8.19212 18.8452 8.25004 18.5523 8.25 18.2568V18H5.25C4.45435 18 3.69152 17.6837 3.12891 17.1211C2.5663 16.5585 2.25 15.7956 2.25 15V5.25C2.25 4.45435 2.5663 3.69152 3.12891 3.12891C3.69152 2.5663 4.45435 2.25 5.25 2.25H18.75C19.5456 2.25 20.3085 2.5663 20.8711 3.12891C21.4337 3.69152 21.75 4.45435 21.75 5.25V15Z" fill="black"/>
</svg>
