<svg width="24" height="24" viewBox="0 0 24 24" fill="none" xmlns="http://www.w3.org/2000/svg">
<path d="M1.875 18.75V16.5C1.875 15.8787 2.37868 15.375 3 15.375C3.62132 15.375 4.125 15.8787 4.125 16.5V18.75C4.125 19.0484 4.24361 19.3344 4.45459 19.5454C4.66557 19.7564 4.95163 19.875 5.25 19.875H18.75C19.0484 19.875 19.3344 19.7564 19.5454 19.5454C19.7564 19.3344 19.875 19.0484 19.875 18.75V16.5C19.875 15.8787 20.3787 15.375 21 15.375C21.6213 15.375 22.125 15.8787 22.125 16.5V18.75C22.125 19.6451 21.7692 20.5033 21.1362 21.1362C20.5033 21.7692 19.6451 22.125 18.75 22.125H5.25C4.35489 22.125 3.4967 21.7692 2.86377 21.1362C2.23083 20.5033 1.875 19.6451 1.875 18.75ZM10.875 3C10.875 2.37868 11.3787 1.875 12 1.875C12.6213 1.875 13.125 2.37868 13.125 3V13.7842L15.7046 11.2046C16.1439 10.7653 16.8561 10.7653 17.2954 11.2046C17.7348 11.6439 17.7348 12.3561 17.2954 12.7954L12.7954 17.2954C12.3561 17.7348 11.6439 17.7348 11.2046 17.2954L6.70459 12.7954C6.26525 12.3561 6.26525 11.6439 6.70459 11.2046C7.14393 10.7653 7.85607 10.7653 8.29541 11.2046L10.875 13.7842V3Z" fill="#8BA19F"/>
</svg>
