<svg width="24" height="24" viewBox="0 0 24 24" fill="none" xmlns="http://www.w3.org/2000/svg">
<path d="M19 4C20.6396 4 21.9704 5.31528 21.998 6.94824C21.9987 6.9616 21.9989 6.97493 21.999 6.98828C21.999 6.99219 22 6.99609 22 7V17C22 18.6569 20.6569 20 19 20H5C3.34319 19.9999 2 18.6568 2 17V7C2 5.34318 3.34319 4.00006 5 4H19ZM12.5547 13.832C12.2561 14.031 11.877 14.0532 11.5605 13.8984L11.4453 13.832L4 8.86816V17C4 17.5522 4.44776 17.9999 5 18H19C19.5523 18 20 17.5523 20 17V8.86816L12.5547 13.832ZM5 6C4.61367 6.00004 4.27881 6.21931 4.1123 6.54004L12 11.7969L19.8877 6.53906C19.721 6.21877 19.386 6 19 6H5Z" fill="#9E9E9E"/>
</svg>
