<svg width="24" height="24" viewBox="0 0 24 24" fill="none" xmlns="http://www.w3.org/2000/svg">
<path d="M4.5 19.5V10.5C4.5 9.70435 4.8163 8.94151 5.37891 8.3789C5.94152 7.81629 6.70435 7.49999 7.5 7.49999H9C9.41421 7.49999 9.75 7.83578 9.75 8.24999C9.75 8.66421 9.41421 8.99999 9 8.99999H7.5C7.10218 8.99999 6.72076 9.15814 6.43945 9.43945C6.15815 9.72075 6 10.1022 6 10.5V19.5C6 19.8978 6.15815 20.2792 6.43945 20.5605C6.72076 20.8418 7.10218 21 7.5 21H16.5C16.8978 21 17.2792 20.8418 17.5605 20.5605C17.8419 20.2792 18 19.8978 18 19.5V10.5C18 10.1022 17.8419 9.72075 17.5605 9.43945C17.2792 9.15814 16.8978 8.99999 16.5 8.99999H15C14.5858 8.99999 14.25 8.66421 14.25 8.24999C14.25 7.83578 14.5858 7.49999 15 7.49999H16.5C17.2956 7.49999 18.0585 7.81629 18.6211 8.3789C19.1837 8.94151 19.5 9.70435 19.5 10.5V19.5C19.5 20.2956 19.1837 21.0585 18.6211 21.6211C18.0585 22.1837 17.2956 22.5 16.5 22.5H7.5C6.70435 22.5 5.94152 22.1837 5.37891 21.6211C4.8163 21.0585 4.5 20.2956 4.5 19.5ZM11.25 15V4.06054L9.53027 5.78027C9.23738 6.07316 8.76262 6.07316 8.46973 5.78027C8.17683 5.48737 8.17683 5.01261 8.46973 4.71972L11.4697 1.71972L11.5264 1.66796C11.8209 1.42765 12.2557 1.44512 12.5303 1.71972L15.5303 4.71972C15.8232 5.01261 15.8232 5.48737 15.5303 5.78027C15.2374 6.07316 14.7626 6.07316 14.4697 5.78027L12.75 4.06054V15C12.75 15.4142 12.4142 15.75 12 15.75C11.5858 15.75 11.25 15.4142 11.25 15Z" fill="#8BA19F"/>
</svg>
