<svg width="24" height="24" viewBox="0 0 24 24" fill="none" xmlns="http://www.w3.org/2000/svg">
<path d="M6.7583 11.8564C8.37138 11.4425 10.0774 11.5781 11.6055 12.2402C12.6698 12.7015 13.6052 13.4012 14.3462 14.2764C14.8193 13.8979 15.3558 13.5991 15.937 13.4019C17.0181 13.0351 18.1901 13.0314 19.2739 13.3901C20.3573 13.7489 21.2942 14.4507 21.9429 15.3896C22.5918 16.3291 22.9169 17.4554 22.8687 18.5962C22.851 19.0078 22.6103 19.3773 22.2402 19.5586C20.8035 20.2624 19.2243 20.6255 17.6245 20.6235C16.8391 20.6243 16.0572 20.5362 15.2925 20.3628C13.2615 21.5188 10.9637 22.1272 8.62305 22.1235V22.125C6.08189 22.125 3.70154 21.4206 1.66943 20.1973C1.33455 19.9957 1.1281 19.6345 1.12451 19.2437L1.12305 19.1353V19.125L1.12891 18.8145C1.1926 17.2595 1.73953 15.7593 2.69629 14.5254C3.7166 13.2097 5.14561 12.2704 6.7583 11.8564ZM10.7104 14.3042C9.64082 13.8407 8.44702 13.7464 7.31787 14.0361C6.18881 14.3259 5.18887 14.9841 4.47461 15.9053C3.87012 16.685 3.50148 17.6159 3.40234 18.5903C4.96229 19.4094 6.73697 19.875 8.62305 19.875H8.62451C10.4459 19.8781 12.2367 19.4351 13.8438 18.5918C13.7713 17.8739 13.558 17.1994 13.2271 16.5981L13.2256 16.5967C12.6648 15.5747 11.7801 14.7677 10.7104 14.3042ZM18.5664 15.5259C17.947 15.3209 17.277 15.3235 16.6592 15.5332C16.2363 15.6768 15.8542 15.9129 15.5371 16.2202C15.8016 16.8491 15.983 17.521 16.0674 18.2227C16.5799 18.3205 17.1001 18.3755 17.623 18.375H17.626L18.0962 18.3618C18.9448 18.3143 19.779 18.1321 20.5718 17.8286C20.4953 17.415 20.3347 17.0187 20.0928 16.6685C19.722 16.1317 19.1857 15.7309 18.5664 15.5259ZM19.1245 8.625C19.1245 8.22728 18.9662 7.84574 18.6851 7.56445C18.4039 7.28326 18.0222 7.12512 17.6245 7.125C17.2268 7.125 16.8452 7.28329 16.564 7.56445C16.2827 7.84576 16.1245 8.22718 16.1245 8.625C16.1245 9.02282 16.2827 9.40424 16.564 9.68555C16.8452 9.96671 17.2268 10.125 17.6245 10.125C18.0222 10.1249 18.4039 9.96674 18.6851 9.68555C18.9662 9.40426 19.1245 9.02272 19.1245 8.625ZM10.8745 6.375C10.8745 5.77837 10.6371 5.20611 10.2153 4.78418C9.79348 4.36233 9.22108 4.12512 8.62451 4.125C8.02788 4.125 7.45563 4.36237 7.03369 4.78418C6.61173 5.20614 6.37451 5.77826 6.37451 6.375C6.37451 6.97174 6.61173 7.54386 7.03369 7.96582C7.45563 8.38763 8.02788 8.625 8.62451 8.625C9.22108 8.62488 9.79348 8.38767 10.2153 7.96582C10.6371 7.54389 10.8745 6.97163 10.8745 6.375ZM21.3745 8.625C21.3745 9.61945 20.979 10.5731 20.2759 11.2764C19.5727 11.9795 18.6189 12.3749 17.6245 12.375C16.63 12.375 15.6749 11.9796 14.9717 11.2764C14.2687 10.5732 13.8745 9.61933 13.8745 8.625C13.8745 7.63067 14.2687 6.67685 14.9717 5.97363C15.6749 5.27037 16.63 4.875 17.6245 4.875C18.6189 4.87512 19.5727 5.27048 20.2759 5.97363C20.979 6.67687 21.3745 7.63055 21.3745 8.625ZM13.1245 6.375C13.1245 7.56837 12.6499 8.71275 11.8062 9.55664C10.9623 10.4004 9.81782 10.8749 8.62451 10.875C7.43104 10.875 6.28532 10.4006 5.44141 9.55664C4.59781 8.71277 4.12451 7.56824 4.12451 6.375C4.12451 5.18176 4.59781 4.03723 5.44141 3.19336C6.28532 2.34945 7.43104 1.875 8.62451 1.875C9.81782 1.87512 10.9623 2.34956 11.8062 3.19336C12.6499 4.03725 13.1245 5.18163 13.1245 6.375Z" fill="#8BA19F"/>
</svg>
