<svg width="24" height="24" viewBox="0 0 24 24" fill="none" xmlns="http://www.w3.org/2000/svg">
<path d="M20.25 12C20.25 9.81196 19.3812 7.71319 17.834 6.16602C16.2868 4.61884 14.188 3.75 12 3.75C9.81196 3.75 7.71319 4.61884 6.16602 6.16602C4.61884 7.71319 3.75 9.81196 3.75 12C3.75 13.0834 3.96333 14.1563 4.37793 15.1572C4.79253 16.1581 5.39995 17.0679 6.16602 17.834C6.93209 18.6001 7.84186 19.2075 8.84277 19.6221C9.84371 20.0367 10.9166 20.25 12 20.25C13.0834 20.25 14.1563 20.0367 15.1572 19.6221C16.1581 19.2075 17.0679 18.6001 17.834 17.834C18.6001 17.0679 19.2075 16.1581 19.6221 15.1572C20.0367 14.1563 20.25 13.0834 20.25 12ZM12.0078 16.5C12.422 16.5 12.7578 16.8358 12.7578 17.25V17.2578C12.7578 17.672 12.422 18.0078 12.0078 18.0078H12C11.5858 18.0078 11.25 17.672 11.25 17.2578V17.25C11.25 16.8358 11.5858 16.5 12 16.5H12.0078ZM11.251 14.25V13.5C11.251 12.2218 12.3094 11.3928 13.124 10.998H13.125C13.3084 10.9094 13.4773 10.7992 13.625 10.6689L13.627 10.666C14.4572 9.93985 14.4572 8.81015 13.627 8.08398V8.08301C12.7388 7.30579 11.2612 7.30579 10.373 8.08301C10.0614 8.35583 9.58727 8.32437 9.31445 8.0127C9.04199 7.70113 9.0735 7.22787 9.38477 6.95508C10.8383 5.68274 13.1604 5.68216 14.6143 6.9541C16.1272 8.27731 16.1278 10.469 14.6162 11.793C14.3581 12.0206 14.0737 12.2054 13.7773 12.3486L13.7764 12.3477C13.1018 12.6748 12.751 13.1224 12.751 13.5V14.25C12.751 14.6642 12.4152 15 12.001 15C11.5868 15 11.251 14.6642 11.251 14.25ZM21.75 12C21.75 13.2804 21.4978 14.5485 21.0078 15.7314C20.5178 16.9143 19.7998 17.9892 18.8945 18.8945C17.9892 19.7998 16.9143 20.5178 15.7314 21.0078C14.5485 21.4978 13.2804 21.75 12 21.75C10.7196 21.75 9.45148 21.4978 8.26855 21.0078C7.08573 20.5178 6.01078 19.7998 5.10547 18.8945C4.20016 17.9892 3.48217 16.9143 2.99219 15.7314C2.5022 14.5485 2.25 13.2804 2.25 12C2.25 9.41414 3.27699 6.93395 5.10547 5.10547C6.93395 3.27699 9.41414 2.25 12 2.25C14.5859 2.25 17.0661 3.27699 18.8945 5.10547C20.723 6.93395 21.75 9.41414 21.75 12Z" fill="#8BA19F"/>
</svg>
