<svg width="24" height="24" viewBox="0 0 24 24" fill="none" xmlns="http://www.w3.org/2000/svg">
<path d="M2.29361 2.29291C2.68415 1.90259 3.31721 1.90246 3.70767 2.29291L6.37955 4.96479C8.09203 4.00363 10.0277 3.49714 12.0006 3.49994C17.2109 3.50013 21.6093 6.96487 23.0241 11.7128C23.0795 11.8992 23.0788 12.0978 23.0231 12.2841C22.3643 14.4888 21.0619 16.4342 19.2985 17.8837L21.7077 20.2929C22.0979 20.6834 22.0979 21.3165 21.7077 21.707C21.3172 22.0974 20.6841 22.0973 20.2936 21.707L2.29361 3.70698C1.90308 3.31645 1.90308 2.68344 2.29361 2.29291ZM3.21744 7.57612C3.57448 7.15505 4.20534 7.10304 4.62662 7.45991C5.04799 7.81693 5.09985 8.44771 4.74283 8.86909C3.96093 9.79192 3.36563 10.8561 2.98404 12.0019C4.24182 15.779 7.80487 18.4999 12.0006 18.4999C12.9004 18.4999 13.7688 18.3748 14.5915 18.1425C15.1229 17.9925 15.6757 18.3015 15.8258 18.833C15.9759 19.3643 15.6667 19.9171 15.1354 20.0673C14.1383 20.3489 13.0866 20.4999 12.0006 20.4999C6.79018 20.4999 2.391 17.0353 0.976225 12.2851C0.920749 12.0987 0.920622 11.9002 0.976225 11.7138C1.42955 10.1947 2.19265 8.78562 3.21744 7.57612ZM14.0006 12.0009C14.0006 11.7383 13.9488 11.4779 13.8483 11.2353C13.7478 10.9926 13.6004 10.7716 13.4147 10.5859C13.229 10.4003 13.0088 10.2528 12.7663 10.1523C12.5236 10.0518 12.2633 9.99995 12.0006 9.99995C11.8257 9.99995 11.6523 10.0243 11.484 10.0693L13.9303 12.5156C13.9751 12.3478 14.0006 12.1753 14.0006 12.0009ZM16.0006 12.0009C16.0006 12.526 15.8978 13.0461 15.6969 13.5312C15.6253 13.704 15.5405 13.8708 15.446 14.0312L17.8776 16.4628C19.3344 15.3146 20.4253 13.7627 21.0143 11.996C19.7565 8.22112 16.196 5.50012 12.0006 5.49994H11.9987C10.5604 5.49776 9.14653 5.82449 7.86197 6.44721L9.96939 8.55463C10.1299 8.46002 10.2975 8.37625 10.4704 8.30463C10.9556 8.10373 11.4755 7.99996 12.0006 7.99995C12.526 7.99995 13.0466 8.1036 13.5319 8.30463C14.0171 8.50566 14.4583 8.80043 14.8297 9.17182C15.2011 9.54324 15.4959 9.98442 15.6969 10.4697C15.8979 10.9549 16.0006 11.4757 16.0006 12.0009Z" fill="black"/>
</svg>
