<svg width="24" height="24" viewBox="0 0 24 24" fill="none" xmlns="http://www.w3.org/2000/svg">
<path d="M20.25 12C20.25 7.44365 16.5563 3.75 12 3.75C7.44365 3.75 3.75 7.44365 3.75 12C3.75 16.5563 7.44365 20.25 12 20.25C16.5563 20.25 20.25 16.5563 20.25 12ZM10.9556 10.5586C12.1017 9.98552 13.3931 11.0205 13.0825 12.2637L12.3735 15.0996L12.4146 15.0791C12.785 14.8939 13.2357 15.0441 13.4209 15.4146C13.6061 15.785 13.4559 16.2357 13.0854 16.4209L13.0444 16.4414C11.8983 17.0145 10.6069 15.9795 10.9175 14.7363L11.6265 11.9004L11.5854 11.9209C11.215 12.1061 10.7643 11.9559 10.5791 11.5854C10.3939 11.215 10.5441 10.7643 10.9146 10.5791L10.9556 10.5586ZM12.0073 7.5C12.4215 7.5 12.7573 7.83579 12.7573 8.25V8.25732C12.7573 8.67154 12.4215 9.00732 12.0073 9.00732H12C11.5858 9.00732 11.25 8.67154 11.25 8.25732V8.25C11.25 7.83579 11.5858 7.5 12 7.5H12.0073ZM21.75 12C21.75 17.3848 17.3848 21.75 12 21.75C6.61522 21.75 2.25 17.3848 2.25 12C2.25 6.61522 6.61522 2.25 12 2.25C17.3848 2.25 21.75 6.61522 21.75 12Z" fill="#9487FE"/>
</svg>
