<svg width="24" height="24" viewBox="0 0 24 24" fill="none" xmlns="http://www.w3.org/2000/svg">
<path d="M21.3214 8.25004C21.3207 7.47853 21.1597 6.7156 20.8488 6.00953C20.5377 5.30336 20.0833 4.6693 19.5145 4.14792C18.9456 3.62653 18.2746 3.229 17.5441 2.98051C16.8136 2.73204 16.0394 2.63789 15.2706 2.70428C14.5019 2.77069 13.7552 2.99608 13.0781 3.36611C12.401 3.7362 11.8081 4.24317 11.337 4.85439C10.866 5.4656 10.5268 6.16784 10.3415 6.91689C10.1562 7.66597 10.1284 8.44561 10.26 9.20596H10.2606C10.3747 9.8683 10.2377 10.6183 9.71092 11.1451L3.21148 17.6446C2.87054 17.9848 2.67855 18.4485 2.67855 18.932V21.3215H5.57141V19.5C5.57141 19.2633 5.76329 19.0715 5.99998 19.0715H7.82141V17.25C7.82141 17.0133 8.01329 16.8215 8.24998 16.8215H10.3225L12.8549 14.2891C13.3816 13.7624 14.1312 13.6254 14.7935 13.7394H14.7946C15.5951 13.8788 16.4164 13.8417 17.2009 13.6301C17.9854 13.4184 18.7141 13.0375 19.3359 12.5145C19.9578 11.9915 20.4578 11.3388 20.8008 10.6022C21.1008 9.95757 21.2744 9.26226 21.313 8.55417L21.3214 8.25004ZM18.3214 8.25004C18.3214 7.56806 18.0503 6.91364 17.5681 6.4314C17.0858 5.94929 16.4319 5.67861 15.75 5.67861C15.5133 5.67861 15.3215 5.48667 15.3214 5.25004C15.3214 5.01335 15.5133 4.82147 15.75 4.82147C16.6592 4.82147 17.5311 5.18252 18.1741 5.82538C18.8171 6.46836 19.1786 7.34073 19.1786 8.25004C19.1785 8.48667 18.9866 8.67861 18.75 8.67861C18.5133 8.67861 18.3215 8.48667 18.3214 8.25004ZM22.1763 8.42526C22.1525 9.30278 21.9491 10.1668 21.5781 10.9638C21.1824 11.8138 20.6054 12.5673 19.8878 13.1708C19.1703 13.7742 18.3293 14.2135 17.4241 14.4576C16.5189 14.7018 15.571 14.7451 14.6473 14.5843V14.5837C14.184 14.5042 13.7419 14.6141 13.4609 14.8951L10.803 17.5531C10.7226 17.6334 10.6136 17.6786 10.5 17.6786H8.67855V19.5C8.67848 19.7367 8.48663 19.9286 8.24998 19.9286H6.42855V21.75C6.42847 21.9867 6.23663 22.1786 5.99998 22.1786H2.24998C2.01334 22.1786 1.82149 21.9867 1.82141 21.75V18.932C1.82141 18.2216 2.10365 17.5392 2.60657 17.0374L9.10489 10.5391C9.38598 10.258 9.49544 9.81564 9.41572 9.35216L9.38949 9.18754C9.26855 8.3626 9.30896 7.52137 9.50947 6.71098C9.72332 5.84668 10.1144 5.0362 10.6579 4.33096C11.2014 3.6257 11.8855 3.0409 12.6668 2.61388C13.4481 2.18687 14.3099 1.92711 15.197 1.85049C16.084 1.7739 16.9774 1.88243 17.8203 2.16913C18.6631 2.45584 19.4374 2.91415 20.0937 3.51567C20.7501 4.11724 21.2745 4.84876 21.6334 5.66355C21.9922 6.47837 22.1778 7.35912 22.1786 8.24948V8.25004L22.1763 8.42526Z" fill="#7800FF"/>
</svg>
