<svg width="24" height="24" viewBox="0 0 24 24" fill="none" xmlns="http://www.w3.org/2000/svg">
<path d="M19.5 6C19.5 5.60218 19.3419 5.22076 19.0605 4.93945C18.7792 4.65815 18.3978 4.5 18 4.5H17.25V16.5C17.25 16.7598 17.1155 17.001 16.8945 17.1377C16.6735 17.2743 16.3974 17.2869 16.165 17.1709L12 15.0879L7.83496 17.1709C7.60255 17.2869 7.32646 17.2743 7.10547 17.1377C6.88453 17.001 6.75 16.7598 6.75 16.5V4.5H6C5.60218 4.5 5.22076 4.65815 4.93945 4.93945C4.65815 5.22076 4.5 5.60218 4.5 6V18C4.5 18.3978 4.65815 18.7792 4.93945 19.0605C5.22076 19.3419 5.60218 19.5 6 19.5H18C18.3978 19.5 18.7792 19.3419 19.0605 19.0605C19.3419 18.7792 19.5 18.3978 19.5 18V6ZM8.25 15.2861L11.665 13.5791L11.7451 13.5449C11.937 13.4755 12.1502 13.4868 12.335 13.5791L15.75 15.2861V4.5H8.25V15.2861ZM21 18C21 18.7956 20.6837 19.5585 20.1211 20.1211C19.5585 20.6837 18.7956 21 18 21H6C5.20435 21 4.44152 20.6837 3.87891 20.1211C3.3163 19.5585 3 18.7956 3 18V6C3 5.20435 3.3163 4.44152 3.87891 3.87891C4.44152 3.3163 5.20435 3 6 3H18C18.7956 3 19.5585 3.3163 20.1211 3.87891C20.6837 4.44152 21 5.20435 21 6V18Z" fill="black"/>
</svg>
