<svg width="24" height="24" viewBox="0 0 24 24" fill="none" xmlns="http://www.w3.org/2000/svg">
<path d="M12.1743 8.20312C12.442 7.64254 13.1137 7.4054 13.6743 7.67285C14.4866 8.06066 15.1938 8.63809 15.7368 9.35596C16.2797 10.0737 16.6438 10.9108 16.7959 11.7979C16.948 12.6849 16.8841 13.5959 16.6113 14.4536C16.3385 15.3114 15.8638 16.0923 15.2271 16.7285L15.2256 16.7271L10.7271 21.2271C9.67215 22.2819 8.24185 22.875 6.75 22.875C5.25816 22.875 3.82784 22.2819 2.77295 21.2271C1.71807 20.1722 1.125 18.7418 1.125 17.25C1.12501 15.7582 1.71806 14.3278 2.77295 13.2729L4.5293 11.5151C4.96851 11.076 5.68077 11.0762 6.12012 11.5151C6.55943 11.9544 6.55938 12.6666 6.12012 13.106L4.36377 14.8638C3.73084 15.4967 3.37501 16.3549 3.375 17.25C3.375 18.1451 3.73085 19.0033 4.36377 19.6362C4.9967 20.2692 5.8549 20.625 6.75 20.625C7.64511 20.625 8.50329 20.2692 9.13623 19.6362L13.6362 15.1362C14.0181 14.7546 14.3031 14.2869 14.4668 13.7725C14.6305 13.2579 14.6693 12.711 14.5781 12.1787C14.4869 11.6464 14.2682 11.1431 13.9424 10.7124C13.6166 10.2819 13.1917 9.93571 12.7046 9.70312C12.1444 9.43523 11.9067 8.7636 12.1743 8.20312ZM20.625 6.75C20.625 5.8549 20.2692 4.9967 19.6362 4.36377C19.0033 3.73085 18.1451 3.375 17.25 3.375C16.3549 3.37501 15.4967 3.73084 14.8638 4.36377L10.3638 8.86377C9.9819 9.24536 9.69695 9.71313 9.5332 10.2275C9.36952 10.7421 9.33067 11.2891 9.42188 11.8213C9.51314 12.3536 9.73182 12.8569 10.0576 13.2876C10.3834 13.7181 10.8082 14.0643 11.2954 14.2969C11.8557 14.5647 12.0932 15.2364 11.8257 15.7969C11.558 16.3575 10.8863 16.5947 10.3257 16.3271C9.5134 15.9393 8.80618 15.3619 8.26318 14.644C7.72026 13.9263 7.35624 13.0892 7.2041 12.2021C7.05201 11.3151 7.1159 10.4041 7.38867 9.54639C7.66148 8.68875 8.13639 7.90915 8.77295 7.27295L13.2729 2.77295C14.3278 1.71806 15.7582 1.12501 17.25 1.125C18.7418 1.125 20.1722 1.71807 21.2271 2.77295C22.2819 3.82784 22.875 5.25816 22.875 6.75C22.875 8.24185 22.2819 9.67215 21.2271 10.7271L19.4707 12.4849C19.0315 12.924 18.3192 12.9238 17.8799 12.4849C17.4406 12.0455 17.4406 11.3334 17.8799 10.894L19.6362 9.13623C20.2692 8.50329 20.625 7.64511 20.625 6.75Z" fill="#8BA19F"/>
</svg>
