<svg width="24" height="24" viewBox="0 0 24 24" fill="none" xmlns="http://www.w3.org/2000/svg">
<path d="M13.875 10.5C13.875 10.0027 13.6773 9.52595 13.3257 9.17432C12.9741 8.82269 12.4973 8.625 12 8.625C11.5027 8.625 11.0259 8.82269 10.6743 9.17432C10.3227 9.52595 10.125 10.0027 10.125 10.5C10.125 10.9973 10.3227 11.4741 10.6743 11.8257C11.0259 12.1773 11.5027 12.375 12 12.375C12.4973 12.375 12.9741 12.1773 13.3257 11.8257C13.6773 11.4741 13.875 10.9973 13.875 10.5ZM16.125 10.5C16.125 11.594 15.6901 12.6429 14.9165 13.4165C14.1429 14.1901 13.094 14.625 12 14.625C10.906 14.625 9.85708 14.1901 9.0835 13.4165C8.30991 12.6429 7.875 11.594 7.875 10.5C7.875 9.40598 8.30991 8.35708 9.0835 7.5835C9.85708 6.80991 10.906 6.375 12 6.375C13.094 6.375 14.1429 6.80991 14.9165 7.5835C15.6901 8.35708 16.125 9.40598 16.125 10.5Z" fill="#8BA19F"/>
<path d="M12.5405 22.7373C12.2039 22.9216 11.7961 22.9216 11.4595 22.7373L12 21.75L12.5405 22.7373ZM18.375 10.5C18.375 8.80924 17.7029 7.18822 16.5073 5.99268C15.3118 4.79713 13.6908 4.125 12 4.125C10.3092 4.125 8.68822 4.79713 7.49268 5.99268C6.29713 7.18822 5.625 8.80924 5.625 10.5C5.625 13.6583 7.28293 16.204 9.0542 18.0176C9.93259 18.9169 10.815 19.6094 11.4771 20.0771C11.6732 20.2157 11.8502 20.3329 12 20.4302C12.1498 20.3329 12.3268 20.2157 12.5229 20.0771C13.185 19.6094 14.0674 18.9169 14.9458 18.0176C16.7171 16.204 18.375 13.6583 18.375 10.5ZM20.625 10.5C20.625 14.4836 18.5329 17.5634 16.5542 19.5894C15.5579 20.6094 14.5649 21.3899 13.8208 21.9155C13.448 22.1788 13.1354 22.3804 12.9126 22.5176C12.8013 22.5861 12.712 22.6392 12.6489 22.6758C12.6177 22.6939 12.5923 22.7081 12.5742 22.7183C12.5656 22.7231 12.5577 22.727 12.5522 22.73C12.5496 22.7315 12.5467 22.7334 12.5449 22.7344L12.542 22.7358H12.5405C12.5365 22.7294 12.4939 22.6518 12 21.75C11.5061 22.6518 11.4635 22.7294 11.4595 22.7358H11.458L11.4551 22.7344C11.4533 22.7334 11.4504 22.7315 11.4478 22.73C11.4423 22.727 11.4344 22.7231 11.4258 22.7183C11.4077 22.7081 11.3823 22.6939 11.3511 22.6758C11.288 22.6392 11.1987 22.5861 11.0874 22.5176C10.8646 22.3804 10.552 22.1788 10.1792 21.9155C9.43513 21.3899 8.44214 20.6094 7.4458 19.5894C5.46711 17.5634 3.375 14.4836 3.375 10.5C3.375 8.21251 4.28435 6.01936 5.90186 4.40186C7.51936 2.78435 9.71251 1.875 12 1.875C14.2875 1.875 16.4806 2.78435 18.0981 4.40186C19.7156 6.01936 20.625 8.21251 20.625 10.5Z" fill="#8BA19F"/>
</svg>
