<svg width="24" height="24" viewBox="0 0 24 24" fill="none" xmlns="http://www.w3.org/2000/svg">
<path d="M18.6212 2.57153L18.7172 2.57377C19.1934 2.59785 19.6453 2.79792 19.9839 3.13682L21.1737 4.326C21.5456 4.69782 21.8276 5.15055 21.9968 5.64854C22.1658 6.14652 22.2183 6.67679 22.1497 7.19821C22.081 7.71969 21.8933 8.21846 21.6011 8.6558C21.3561 9.02254 21.042 9.33649 20.6787 9.58381V20.5715H21.6402C21.8768 20.5716 22.0687 20.7635 22.0687 21.0001C22.0687 21.2367 21.8768 21.4286 21.6402 21.4287H2.36003C2.12334 21.4287 1.93146 21.2368 1.93146 21.0001C1.93146 20.7634 2.12334 20.5715 2.36003 20.5715H3.32153V9.58381C2.95868 9.33606 2.64543 9.0215 2.40077 8.65468C2.10915 8.21741 1.9219 7.71876 1.85334 7.19765C1.78481 6.67662 1.83657 6.14685 2.00512 5.6491C2.17372 5.15128 2.4549 4.69821 2.82599 4.326L4.01517 3.13571C4.37669 2.77452 4.86685 2.57165 5.37789 2.57153H18.6212ZM17.5715 13.5001C17.5715 13.4149 17.5375 13.3333 17.4772 13.273C17.417 13.2127 17.3353 13.1787 17.2501 13.1787H14.2501C14.1649 13.1787 14.0833 13.2127 14.023 13.273C13.9627 13.3333 13.9287 13.4149 13.9287 13.5001V20.5715H17.5715V13.5001ZM10.8215 13.5001C10.8215 13.4149 10.7875 13.3333 10.7272 13.273C10.667 13.2127 10.5853 13.1787 10.5001 13.1787H6.7501C6.66488 13.1787 6.58326 13.2127 6.52298 13.273C6.4627 13.3333 6.42867 13.4149 6.42867 13.5001V17.2501C6.42867 17.4274 6.57279 17.5715 6.7501 17.5715H10.5001C10.5853 17.5715 10.667 17.5375 10.7272 17.4772C10.7875 17.417 10.8215 17.3353 10.8215 17.2501V13.5001ZM5.37789 3.42868C5.09405 3.42879 4.82199 3.54167 4.62119 3.74229L3.43258 4.93147C3.15415 5.21073 2.94356 5.5507 2.81706 5.92421C2.69063 6.29766 2.65124 6.69514 2.70267 7.08604C2.75411 7.47702 2.89514 7.85115 3.11394 8.17923C3.3325 8.50687 3.62317 8.78014 3.96383 8.97778C4.47812 9.27433 5.07944 9.3841 5.66528 9.28805C6.25116 9.19197 6.78601 8.89576 7.17867 8.45044L7.21048 8.41807C7.28912 8.34602 7.39235 8.30533 7.5001 8.30535C7.62314 8.30542 7.74022 8.35866 7.82153 8.451C8.06243 8.72482 8.35913 8.9443 8.69151 9.09441C9.02393 9.24452 9.3848 9.32188 9.74954 9.32153L9.89296 9.31763C10.603 9.27875 11.236 8.95189 11.6787 8.45044C11.7601 8.35826 11.8771 8.30532 12.0001 8.30535C12.1231 8.30546 12.2403 8.35869 12.3215 8.451C12.5624 8.72482 12.8591 8.9443 13.1915 9.09441C13.5239 9.24452 13.8848 9.32188 14.2495 9.32153L14.393 9.31763C15.1031 9.27875 15.7359 8.95171 16.1787 8.451C16.26 8.35897 16.3773 8.30644 16.5001 8.30647C16.623 8.30653 16.7402 8.35941 16.8215 8.45156C17.2143 8.8967 17.7491 9.19213 18.3349 9.28805C18.9207 9.38393 19.5216 9.27443 20.0358 8.97778L20.1614 8.90022C20.449 8.71134 20.6967 8.46675 20.8885 8.17979C21.1076 7.85185 21.2483 7.47764 21.2998 7.0866C21.3512 6.69553 21.3116 6.2977 21.1848 5.92421C21.0579 5.55068 20.8472 5.21091 20.5682 4.93202L19.3779 3.74341C19.2023 3.56759 18.9718 3.45885 18.7267 3.43426L18.6206 3.42868H5.37789ZM11.6787 17.2501C11.6787 17.5627 11.5542 17.8622 11.3332 18.0833C11.1122 18.3043 10.8126 18.4287 10.5001 18.4287H6.7501C6.09941 18.4287 5.57153 17.9008 5.57153 17.2501V13.5001C5.57153 13.1876 5.69551 12.888 5.91639 12.667C6.13742 12.4459 6.43752 12.3215 6.7501 12.3215H10.5001C10.8126 12.3216 11.1122 12.446 11.3332 12.667C11.5542 12.888 11.6787 13.1876 11.6787 13.5001V17.2501ZM18.4287 20.5715H19.8215V10.0068C19.301 10.178 18.7435 10.2237 18.196 10.134C17.5643 10.0306 16.9774 9.75295 16.499 9.3366C15.8972 9.85977 15.1112 10.1781 14.2501 10.1781C13.7635 10.1785 13.2823 10.0759 12.8388 9.87566C12.5332 9.73765 12.2511 9.55477 11.9995 9.33548C11.3976 9.85958 10.6114 10.1781 9.7501 10.1781C9.26353 10.1785 8.78229 10.0759 8.33883 9.87566C8.03344 9.73776 7.75151 9.5551 7.5001 9.33604C7.02192 9.75217 6.43557 10.0299 5.80423 10.1335C5.25669 10.2233 4.69931 10.1779 4.17867 10.0068V20.5715H13.0715V13.5001C13.0715 13.1876 13.1955 12.888 13.4164 12.667C13.6374 12.4459 13.9375 12.3215 14.2501 12.3215H17.2501C17.5626 12.3216 17.8622 12.446 18.0832 12.667C18.3042 12.888 18.4287 13.1876 18.4287 13.5001V20.5715Z" fill="#7800FF"/>
</svg>
