<svg width="24" height="24" viewBox="0 0 24 24" fill="none" xmlns="http://www.w3.org/2000/svg">
<path d="M18.5371 2.29589C18.926 2.15358 19.3566 2.35331 19.499 2.74218C19.6393 3.12557 19.7707 3.5124 19.8916 3.90233L20.0918 4.58397C20.5099 6.0829 20.7833 7.61848 20.9121 9.16991C21.4296 9.70847 21.75 10.4422 21.75 11.25C21.75 12.0575 21.4293 12.7906 20.9121 13.3291C20.7638 15.1168 20.4233 16.8838 19.8916 18.5976C19.7697 18.9901 19.6387 19.3757 19.5 19.7568C19.3583 20.1459 18.9272 20.3467 18.5381 20.2051C18.149 20.0633 17.9482 19.6323 18.0898 19.2432C18.1483 19.0825 18.2046 18.9214 18.2598 18.7598C16.0879 17.7222 13.7684 17.0298 11.3848 16.709C11.5677 17.2569 11.774 17.7937 12.0088 18.3154L12.0752 18.4814C12.3643 19.3225 12.0638 20.3079 11.2363 20.7842L11.2354 20.7832L10.5801 21.1631V21.1641C9.67233 21.6879 8.46101 21.3715 7.99707 20.3672V20.3682C7.41127 19.1008 6.95077 17.7794 6.62012 16.4238C5.55432 16.2426 4.56268 15.7365 3.78809 14.9619C2.80352 13.9773 2.25 12.6424 2.25 11.25C2.25 9.8576 2.80352 8.52264 3.78809 7.53807C4.77265 6.55351 6.10761 5.99999 7.5 5.99999H8.25C8.93258 5.99999 9.6087 5.97112 10.2744 5.91307H10.2764C13.0485 5.67546 15.7524 4.93715 18.2598 3.73925C18.2049 3.57827 18.1493 3.41754 18.0908 3.2578C17.9485 2.86889 18.1483 2.4383 18.5371 2.29589ZM8.18848 16.5C8.48551 17.6102 8.87571 18.694 9.3584 19.7383C9.42845 19.8899 9.63583 19.9764 9.83008 19.8642L10.4863 19.4844H10.4883C10.6311 19.4021 10.7181 19.2131 10.6699 19.0156L10.6406 18.9307C10.2952 18.1631 10.0008 17.3671 9.75977 16.5478C9.26117 16.5158 8.75736 16.5 8.25 16.5H8.18848ZM18.7002 5.18944C16.2509 6.33185 13.6301 7.0635 10.9414 7.3535C10.6527 8.60549 10.5 9.90944 10.5 11.25V11.251C10.4989 12.5622 10.6472 13.8688 10.9414 15.1455C13.63 15.4355 16.251 16.1673 18.7002 17.3096C19.086 15.8762 19.3354 14.4088 19.4404 12.9267L19.4854 12.0889C19.5052 11.5298 19.5052 10.9702 19.4854 10.4111L19.4404 9.57323C19.3354 8.09087 19.0862 6.62311 18.7002 5.18944ZM3.75 11.25C3.75 12.2446 4.14537 13.1981 4.84863 13.9014C5.55189 14.6046 6.50544 15 7.5 15H8.25C8.62898 15 9.00645 15.0085 9.38184 15.0254C9.12804 13.7835 8.99892 12.5183 9 11.249C9.00007 9.95639 9.13241 8.69404 9.38184 7.47362C9.00644 7.49052 8.629 7.49999 8.25 7.49999H7.5C6.50544 7.49999 5.55189 7.89536 4.84863 8.59862C4.14537 9.30188 3.75 10.2554 3.75 11.25Z" fill="#8BA19F"/>
</svg>
