<svg width="24" height="24" viewBox="0 0 24 24" fill="none" xmlns="http://www.w3.org/2000/svg">
<path d="M7.5 5.99992C7.5 5.23578 7.58305 4.49071 7.73828 3.77238C6.76227 4.427 5.9187 5.26933 5.26074 6.25675C4.27548 7.73547 3.74985 9.47302 3.75 11.2499L3.76172 11.7128C4.0026 16.4685 7.93444 20.2499 12.75 20.2499C14.5269 20.2501 16.2644 19.7244 17.7432 18.7392C18.7309 18.081 19.5718 17.2361 20.2266 16.2597C19.4965 16.4177 18.7506 16.4999 18 16.4989V16.4999C12.2008 16.4999 7.5 11.7991 7.5 5.99992ZM9 5.99992C9 10.9707 13.0292 14.9999 18 14.9999H18.001C19.1895 15.0015 20.3668 14.7667 21.4639 14.3095C21.7443 14.1928 22.0674 14.2568 22.2822 14.4716C22.4971 14.6866 22.5614 15.0104 22.4443 15.2909C21.6462 17.204 20.2993 18.8378 18.5742 19.9872C16.9569 21.0648 15.0748 21.6717 13.1377 21.7431L12.75 21.7499C6.95079 21.7499 2.25 17.0491 2.25 11.2499C2.24984 9.17707 2.86336 7.15072 4.0127 5.4257C5.16209 3.70065 6.7959 2.35369 8.70898 1.55558C8.98959 1.43852 9.31334 1.50269 9.52832 1.71769C9.7433 1.9327 9.80753 2.25643 9.69043 2.53703C9.24599 3.60206 9.00001 4.77083 9 5.99992Z" fill="#8BA19F"/>
</svg>
