<svg width="24" height="24" viewBox="0 0 24 24" fill="none" xmlns="http://www.w3.org/2000/svg">
<path d="M11.5098 2.12988C11.8097 1.94994 12.1998 1.95004 12.5098 2.12988L20.4297 6.58496C20.6116 6.66915 20.7708 6.80925 20.8799 7C20.9937 7.20226 21.0307 7.42759 21 7.6416V16.5C20.99 16.8599 20.8001 17.1901 20.4902 17.3701L12.4902 21.8701C12.3451 21.9524 12.1779 22 12 22C11.7934 22 11.6032 21.9389 11.4453 21.834L3.50977 17.3701C3.18987 17.1901 3 16.8599 3 16.5V7.5C3.00003 7.21298 3.11474 6.95042 3.31543 6.76758C3.40343 6.6817 3.50602 6.61574 3.61621 6.56934L11.5098 2.12988ZM5 15.9199L11 19.2891V12.5811L5 9.20605V15.9199ZM13 12.5938V19.2891L19 15.9199V9.21875L13 12.5938ZM6.0459 7.49219L12.0098 10.8467L17.9639 7.49805L12 4.15039L6.0459 7.49219Z" fill="#8BA19F"/>
</svg>
