<svg width="24" height="24" viewBox="0 0 24 24" fill="none" xmlns="http://www.w3.org/2000/svg">
<path d="M13.793 4.79248C15.288 3.29759 17.712 3.29759 19.207 4.79248C20.6506 6.23602 20.7004 8.54606 19.3564 10.0493L19.207 10.2065L8.70703 20.7065C8.55086 20.8627 8.34837 20.9619 8.13184 20.9907L8 20.9995H4C3.48726 20.9995 3.06472 20.6139 3.00684 20.1167L3 19.9995V15.9995C3.00007 15.7787 3.0733 15.5655 3.20605 15.3921L3.29297 15.2925L13.793 4.79248ZM5 16.4136V18.9985H7.58496L16.085 10.4985L13.5 7.91357L5 16.4136ZM17.793 6.20654C17.1186 5.53236 16.0484 5.49496 15.3301 6.09424L15.207 6.20654L14.9141 6.49951L17.499 9.08447L17.793 8.79248C18.4672 8.1181 18.5047 7.04788 17.9053 6.32959L17.793 6.20654Z" fill="#8BA19F"/>
</svg>
