<svg width="24" height="24" viewBox="0 0 24 24" fill="none" xmlns="http://www.w3.org/2000/svg">
<path d="M2.24902 18C7.65108 17.9956 13.03 18.7108 18.2432 20.127H18.2441C18.5075 20.1987 18.75 20.0006 18.75 19.7549V18.75C18.75 18.3358 19.0858 18 19.5 18C19.9142 18 20.25 18.3358 20.25 18.75V19.7549C20.25 21.017 19.041 21.8981 17.8506 21.5742V21.5752C12.766 20.1939 7.51984 19.4957 2.25098 19.5C1.83689 19.5003 1.50054 19.165 1.5 18.751C1.49966 18.3369 1.83498 18.0005 2.24902 18ZM20.625 3.75C21.6602 3.75 22.5 4.58979 22.5 5.625V15.375C22.5 16.4102 21.6602 17.25 20.625 17.25H3.375C2.87772 17.25 2.40046 17.0528 2.04883 16.7012C1.6972 16.3495 1.5 15.8723 1.5 15.375V5.625C1.5 4.58979 2.33979 3.75 3.375 3.75H20.625ZM4.5 5.25C4.5 5.64782 4.34185 6.02924 4.06055 6.31055C3.77924 6.59185 3.39782 6.75 3 6.75V14.25C3.39783 14.25 3.77924 14.4081 4.06055 14.6895C4.34185 14.9708 4.5 15.3522 4.5 15.75H19.5C19.5 15.3522 19.6581 14.9708 19.9395 14.6895C20.2208 14.4081 20.6022 14.25 21 14.25V6.75C20.1718 6.75 19.5 6.07821 19.5 5.25H4.5ZM14.25 10.5C14.25 9.90326 14.0128 9.33114 13.5908 8.90918C13.1689 8.48722 12.5967 8.25 12 8.25C11.4033 8.25 10.8311 8.48722 10.4092 8.90918C9.98722 9.33114 9.75 9.90326 9.75 10.5C9.75 11.0967 9.98722 11.6689 10.4092 12.0908C10.8311 12.5128 11.4033 12.75 12 12.75C12.5967 12.75 13.1689 12.5128 13.5908 12.0908C14.0128 11.6689 14.25 11.0967 14.25 10.5ZM6.00781 9.75C6.42203 9.75 6.75781 10.0858 6.75781 10.5V10.5078C6.75781 10.922 6.42203 11.2578 6.00781 11.2578H6C5.58579 11.2578 5.25 10.922 5.25 10.5078V10.5C5.25 10.0858 5.58579 9.75 6 9.75H6.00781ZM18.0078 9.75C18.422 9.75 18.7578 10.0858 18.7578 10.5V10.5078C18.7578 10.922 18.422 11.2578 18.0078 11.2578H18C17.5858 11.2578 17.25 10.922 17.25 10.5078V10.5C17.25 10.0858 17.5858 9.75 18 9.75H18.0078ZM15.75 10.5C15.75 11.4946 15.3546 12.4481 14.6514 13.1514C13.9481 13.8546 12.9946 14.25 12 14.25C11.0054 14.25 10.0519 13.8546 9.34863 13.1514C8.64537 12.4481 8.25 11.4946 8.25 10.5C8.25 9.50544 8.64537 8.55189 9.34863 7.84863C10.0519 7.14537 11.0054 6.75 12 6.75C12.9946 6.75 13.9481 7.14537 14.6514 7.84863C15.3546 8.55189 15.75 9.50544 15.75 10.5Z" fill="#8BA19F"/>
</svg>
