<svg width="24" height="24" viewBox="0 0 24 24" fill="none" xmlns="http://www.w3.org/2000/svg">
<g clip-path="url(#clip0_60_3053)">
<path d="M24.0012 22.2791L17.4331 15.711C18.7594 14.0108 19.4865 11.9342 19.4865 9.74323C19.4865 7.14057 18.4719 4.6938 16.6317 2.85477C14.7927 1.0133 12.3459 0 9.74323 0C7.14057 0 4.6938 1.0133 2.85476 2.85477C1.01451 4.6938 0 7.14057 0 9.74323C0 12.3459 1.01451 14.7927 2.85476 16.6317C4.6938 18.4732 7.14057 19.4865 9.74323 19.4865C11.9342 19.4865 14.0108 18.7606 15.711 17.4331L22.2791 24L24.0012 22.2791ZM9.74323 17.0506C7.79093 17.0506 5.95676 16.2907 4.57688 14.9108C3.19578 13.5309 2.43581 11.6955 2.43581 9.74323C2.43581 7.79215 3.19578 5.95676 4.57688 4.57688C5.95676 3.19578 7.79093 2.43581 9.74323 2.43581C11.6955 2.43581 13.5297 3.19578 14.9096 4.57688C16.2907 5.95676 17.0506 7.79215 17.0506 9.74323C17.0506 11.6955 16.2907 13.5309 14.9096 14.9108C13.5297 16.2907 11.6955 17.0506 9.74323 17.0506Z" fill="white"/>
</g>
<defs>
<clipPath id="clip0_60_3053">
<rect width="24" height="24" fill="white"/>
</clipPath>
</defs>
</svg>
