<svg width="24" height="24" viewBox="0 0 24 24" fill="none" xmlns="http://www.w3.org/2000/svg">
<path d="M12.25 2.04419C12.4139 2.06869 12.5734 2.11677 12.7232 2.18774L12.94 2.31079L13.1362 2.4646C13.3193 2.63125 13.4627 2.83749 13.5581 3.06812L15.5532 7.85962L20.7285 8.27563L20.9981 8.31812C22.2939 8.62556 22.7609 10.3254 21.6909 11.2405L21.6895 11.239L17.7476 14.6169L18.9531 19.6677L18.9927 19.9124C19.0144 20.1596 18.9813 20.41 18.8945 20.6448C18.7789 20.9574 18.5725 21.2282 18.3027 21.4241C18.033 21.62 17.7116 21.7317 17.3784 21.7449C17.0453 21.758 16.7151 21.6729 16.4307 21.4988V21.4973L12.001 18.7932L7.56837 21.5002L7.5669 21.4988C7.28294 21.6721 6.9545 21.7594 6.62208 21.7463C6.28915 21.7331 5.96738 21.6213 5.69776 21.4255C5.42806 21.2296 5.223 20.9575 5.10743 20.6448C4.99198 20.3321 4.97135 19.9919 5.04884 19.6677L6.25294 14.6169L2.30958 11.239L2.31104 11.2375C2.05807 11.0211 1.87277 10.7362 1.78224 10.4158C1.69154 10.0945 1.69813 9.75326 1.80128 9.43579L1.89649 9.20581C2.0072 8.9834 2.16554 8.78658 2.36231 8.63159L2.56886 8.49243C2.78391 8.3695 3.02449 8.29529 3.27345 8.27563L8.44727 7.85962L10.4424 3.06665C10.5697 2.75943 10.7843 2.4961 11.0606 2.31079L11.2774 2.18774C11.5024 2.08095 11.7498 2.02515 12.001 2.02515L12.25 2.04419ZM10.3941 9.04175C10.2748 9.32848 10.0784 9.57702 9.82716 9.75952C9.57599 9.94183 9.27961 10.0512 8.97022 10.0759L4.79835 10.4099L7.97559 13.1316L8.14112 13.2927C8.2949 13.4655 8.41152 13.669 8.4839 13.8904C8.58026 14.1853 8.59346 14.5011 8.52198 14.803V14.8044L7.55079 18.8738L11.1206 16.6941L11.3272 16.5872C11.5389 16.4949 11.7684 16.4465 12.001 16.4465L12.2324 16.4626C12.4611 16.4944 12.6815 16.5729 12.8799 16.6941L16.4497 18.8723L15.48 14.8044L15.4785 14.8015C15.4076 14.5001 15.4204 14.1848 15.5166 13.8904C15.6129 13.5958 15.7894 13.333 16.0249 13.1316L19.2007 10.4099L15.0303 10.0759C14.721 10.0511 14.4244 9.94185 14.1733 9.75952C13.9221 9.57703 13.7257 9.32844 13.6065 9.04175L11.9995 5.17749L10.3941 9.04175Z" fill="#8BA19F"/>
</svg>
