<svg width="24" height="24" viewBox="0 0 24 24" fill="none" xmlns="http://www.w3.org/2000/svg">
<path d="M11.25 21V18.75C11.25 18.3358 11.5858 18 12 18C12.4142 18 12.75 18.3358 12.75 18.75V21C12.75 21.4142 12.4142 21.75 12 21.75C11.5858 21.75 11.25 21.4142 11.25 21ZM6.69629 16.2422C6.98919 15.9493 7.46494 15.9493 7.75781 16.2422C8.05069 16.5351 8.05065 17.0108 7.75781 17.3037L6.16602 18.8945C5.8731 19.1872 5.39828 19.1873 5.10547 18.8945C4.81266 18.6017 4.81283 18.1269 5.10547 17.834L6.69629 16.2422ZM16.2422 16.2422C16.5351 15.9493 17.0108 15.9493 17.3037 16.2422L18.8945 17.834C19.1872 18.1269 19.1873 18.6017 18.8945 18.8945C18.6017 19.1873 18.1269 19.1872 17.834 18.8945L16.2422 17.3037C15.9493 17.0108 15.9493 16.5351 16.2422 16.2422ZM15 12C15 11.2044 14.6837 10.4415 14.1211 9.87891C13.5585 9.3163 12.7956 9 12 9C11.2044 9 10.4415 9.3163 9.87891 9.87891C9.3163 10.4415 9 11.2044 9 12C9 12.7956 9.3163 13.5585 9.87891 14.1211C10.4415 14.6837 11.2044 15 12 15C12.7956 15 13.5585 14.6837 14.1211 14.1211C14.6837 13.5585 15 12.7956 15 12ZM5.25 11.25C5.66421 11.25 6 11.5858 6 12C6 12.4142 5.66421 12.75 5.25 12.75H3C2.58579 12.75 2.25 12.4142 2.25 12C2.25 11.5858 2.58579 11.25 3 11.25H5.25ZM21 11.25C21.4142 11.25 21.75 11.5858 21.75 12C21.75 12.4142 21.4142 12.75 21 12.75H18.75C18.3358 12.75 18 12.4142 18 12C18 11.5858 18.3358 11.25 18.75 11.25H21ZM5.10547 5.10547C5.39828 4.81266 5.8731 4.81283 6.16602 5.10547L7.75781 6.69629C8.05066 6.98919 8.05069 7.46494 7.75781 7.75781C7.46494 8.05069 6.98919 8.05066 6.69629 7.75781L5.10547 6.16602C4.81283 5.8731 4.81266 5.39828 5.10547 5.10547ZM17.834 5.10547C18.1269 4.81283 18.6017 4.81266 18.8945 5.10547C19.1873 5.39828 19.1872 5.8731 18.8945 6.16602L17.3037 7.75781C17.0108 8.05065 16.5351 8.05069 16.2422 7.75781C15.9493 7.46494 15.9493 6.98919 16.2422 6.69629L17.834 5.10547ZM11.25 5.25V3C11.25 2.58579 11.5858 2.25 12 2.25C12.4142 2.25 12.75 2.58579 12.75 3V5.25C12.75 5.66421 12.4142 6 12 6C11.5858 6 11.25 5.66421 11.25 5.25ZM16.5 12C16.5 13.1935 16.0256 14.3377 15.1816 15.1816C14.3377 16.0256 13.1935 16.5 12 16.5C10.8065 16.5 9.66227 16.0256 8.81836 15.1816C7.97445 14.3377 7.5 13.1935 7.5 12C7.5 10.8065 7.97445 9.66227 8.81836 8.81836C9.66227 7.97445 10.8065 7.5 12 7.5C13.1935 7.5 14.3377 7.97445 15.1816 8.81836C16.0256 9.66227 16.5 10.8065 16.5 12Z" fill="black"/>
</svg>
