<svg width="24" height="24" viewBox="0 0 24 24" fill="none" xmlns="http://www.w3.org/2000/svg">
<path d="M2.25 21V3C2.25 2.58579 2.58579 2.25 3 2.25C3.41421 2.25 3.75 2.58579 3.75 3V3.53906L5.58789 3.0791C7.84599 2.51473 10.2318 2.77723 12.3135 3.81836L12.4219 3.87207C14.1476 4.73476 16.1209 4.96509 17.999 4.52344L21.1094 3.79199C21.3461 3.73633 21.595 3.79897 21.7773 3.95996C21.9597 4.12108 22.0525 4.36065 22.0264 4.60254C21.6542 8.03812 21.6558 11.5042 22.0312 14.9395C22.0724 15.316 21.8267 15.6641 21.458 15.751L18.3438 16.4834C16.2626 16.9733 14.0821 16.7645 12.1367 15.8965L11.751 15.7139L11.6426 15.6602C9.88123 14.7793 7.86274 14.5568 5.95215 15.0342L3.75 15.585V21C3.75 21.4142 3.41421 21.75 3 21.75C2.58579 21.75 2.25 21.4142 2.25 21ZM11.6426 5.16016C9.88124 4.27926 7.86274 4.05676 5.95215 4.53418L3.75 5.08496V14.0391L5.58789 13.5791C7.84599 13.0147 10.2318 13.2772 12.3135 14.3184L12.4219 14.3721H12.4209C14.1471 15.2348 16.1216 15.4656 18 15.0234V15.0225L20.4727 14.4414C20.1879 11.4651 20.1753 8.46938 20.4336 5.49121L18.3428 5.98438C16.1231 6.5064 13.7906 6.23349 11.751 5.21387L11.6426 5.16016Z" fill="#8BA19F"/>
</svg>
