<svg width="24" height="24" viewBox="0 0 24 24" fill="none" xmlns="http://www.w3.org/2000/svg">
<path d="M20.5714 6.0001C20.5714 5.51703 20.3795 5.05374 20.0379 4.71216C19.6963 4.37057 19.2331 4.17868 18.75 4.17868H5.24998C4.76691 4.17868 4.30362 4.37057 3.96204 4.71216C3.62045 5.05374 3.42855 5.51703 3.42855 6.0001V18.0001C3.42855 18.4832 3.62045 18.9465 3.96204 19.2881C4.30362 19.6296 4.76691 19.8215 5.24998 19.8215H18.75C19.2331 19.8215 19.6963 19.6296 20.0379 19.2881C20.3795 18.9465 20.5714 18.4832 20.5714 18.0001V6.0001ZM14.25 11.5715C14.4867 11.5715 14.6786 11.7634 14.6786 12.0001C14.6786 12.2368 14.4867 12.4287 14.25 12.4287H11.25C11.0133 12.4287 10.8214 12.2368 10.8214 12.0001C10.8214 11.7634 11.0133 11.5715 11.25 11.5715H14.25ZM6.40735 7.24285C6.5494 7.05365 6.81794 7.0155 7.00724 7.15747L10.0072 9.40747C10.115 9.48841 10.1786 9.61528 10.1786 9.7501C10.1786 9.88493 10.115 10.0118 10.0072 10.0927L7.00724 12.3427C6.81794 12.4847 6.5494 12.4466 6.40735 12.2574C6.26538 12.0681 6.30353 11.7995 6.49273 11.6575L9.0357 9.7501L6.49273 7.84274C6.30353 7.70069 6.26538 7.43215 6.40735 7.24285ZM21.4286 18.0001C21.4286 18.7105 21.1463 19.3917 20.644 19.8941C20.1416 20.3964 19.4604 20.6787 18.75 20.6787H5.24998C4.53958 20.6787 3.85834 20.3964 3.35601 19.8941C2.85368 19.3917 2.57141 18.7105 2.57141 18.0001V6.0001C2.57141 5.2897 2.85368 4.60846 3.35601 4.10613C3.85834 3.6038 4.53958 3.32153 5.24998 3.32153H18.75C19.4604 3.32153 20.1416 3.6038 20.644 4.10613C21.1463 4.60846 21.4286 5.2897 21.4286 6.0001V18.0001Z" fill="#7800FF"/>
</svg>
