<svg width="24" height="24" viewBox="0 0 24 24" fill="none" xmlns="http://www.w3.org/2000/svg">
<path d="M10.3043 1.15235C11.4347 1.11622 12.5666 1.11476 13.6969 1.15089C15.4738 1.20713 16.8124 2.65506 16.8697 4.36329C17.7146 4.44662 18.5586 4.55131 19.3981 4.67823C19.7468 4.73126 20.0943 4.78773 20.4425 4.84815C21.0547 4.95438 21.4657 5.53676 21.3595 6.14893C21.2646 6.69425 20.7914 7.07694 20.2565 7.07911L19.2823 19.7588V19.7603C19.2168 20.6077 18.8338 21.3991 18.2101 21.9766C17.586 22.5542 16.7665 22.8748 15.9161 22.8745H8.08508C7.23473 22.8748 6.4152 22.5542 5.79114 21.9766C5.16743 21.3991 4.7844 20.6077 4.71887 19.7603V19.7588L3.74475 7.07764C3.20968 7.07548 2.73639 6.69302 2.64172 6.14747C2.53549 5.5353 2.94654 4.95292 3.55871 4.84669C3.90687 4.78628 4.25525 4.72909 4.60608 4.67676C5.44453 4.55004 6.28624 4.44654 7.13 4.36329C7.18736 2.65628 8.52712 1.20863 10.3043 1.15235ZM15.6642 6.51514C13.2256 6.32668 10.7756 6.32668 8.33703 6.51514C7.54745 6.57628 6.75962 6.65736 5.97424 6.75831L6.96301 19.5874C6.98501 19.8697 7.11264 20.1334 7.32043 20.3257C7.52825 20.5179 7.80057 20.6244 8.08362 20.6245H15.9176C16.2006 20.6244 16.473 20.5179 16.6808 20.3257C16.8886 20.1334 17.0162 19.8697 17.0382 19.5874L18.0255 6.75831C17.2406 6.65745 16.4533 6.57624 15.6642 6.51514ZM9.21741 7.87598C9.83826 7.85212 10.361 8.33618 10.3849 8.95704L10.7306 17.957C10.7543 18.5778 10.2703 19.1007 9.64953 19.1245C9.02887 19.1482 8.50602 18.6641 8.48205 18.0435L8.13635 9.04346C8.11248 8.4226 8.59654 7.89985 9.21741 7.87598ZM14.7838 7.87598C15.4047 7.89985 15.8887 8.4226 15.8649 9.04346L15.5192 18.0435C15.4952 18.6641 14.9723 19.1482 14.3517 19.1245C13.7309 19.1007 13.2469 18.5778 13.2706 17.957L13.6163 8.95704C13.6402 8.33618 14.163 7.85212 14.7838 7.87598ZM11.1891 3.38038L10.3761 3.40089C9.92321 3.41509 9.53315 3.73657 9.41516 4.1919C11.1372 4.10236 12.8626 4.10241 14.5846 4.1919C14.4843 3.80472 14.1901 3.51412 13.8243 3.42725L13.6251 3.40089C12.8135 3.37495 12.0009 3.36742 11.1891 3.38038Z" fill="#E73C36"/>
</svg>
