<svg width="24" height="24" viewBox="0 0 24 24" fill="none" xmlns="http://www.w3.org/2000/svg">
<path d="M18 3C19.6569 3 21 4.34315 21 6V18C21 19.6569 19.6569 21 18 21H6C4.34315 21 3 19.6569 3 18V6C3 4.34315 4.34315 3 6 3H18ZM6 5C5.44772 5 5 5.44772 5 6V18C5 18.5523 5.44772 19 6 19H18C18.5523 19 19 18.5523 19 18V6C19 5.44772 18.5523 5 18 5H6ZM14.6914 8.39062C15.0283 7.9488 15.6597 7.8633 16.1016 8.2002C16.5432 8.53713 16.6279 9.16859 16.291 9.61035L11.7217 15.6104C11.533 15.8555 11.241 15.9991 10.9316 16C10.6239 16.0017 10.3324 15.8615 10.1416 15.6201L7.71094 12.5098C7.37176 12.0736 7.44993 11.4451 7.88574 11.1055C8.32203 10.7658 8.95135 10.844 9.29102 11.2803L10.9209 13.3906L14.7012 8.39062H14.6914Z" fill="white"/>
</svg>
