<svg width="25" height="24" viewBox="0 0 25 24" fill="none" xmlns="http://www.w3.org/2000/svg">
<path d="M5.8191 14.5044L4.98366 17.6232L1.93016 17.6878C1.01761 15.9952 0.5 14.0587 0.5 12.0008C0.5 10.0109 0.983955 8.13429 1.8418 6.48193H1.84246L4.56093 6.98033L5.75179 9.68249C5.50254 10.4091 5.36669 11.1892 5.36669 12.0008C5.36679 12.8817 5.52636 13.7257 5.8191 14.5044Z" fill="#FBBB00"/>
<path d="M24.2906 9.75879C24.4284 10.4847 24.5003 11.2344 24.5003 12.0006C24.5003 12.8598 24.41 13.6978 24.2379 14.5062C23.6537 17.2571 22.1272 19.6592 20.0127 21.359L20.012 21.3583L16.588 21.1836L16.1034 18.1584C17.5065 17.3356 18.603 16.0478 19.1806 14.5062H12.7637V9.75879H19.2742H24.2906Z" fill="#518EF8"/>
<path d="M20.014 21.358L20.0147 21.3586C17.9582 23.0117 15.3457 24.0007 12.5019 24.0007C7.93186 24.0007 3.95854 21.4463 1.93164 17.6873L5.82058 14.5039C6.83401 17.2086 9.44312 19.134 12.5019 19.134C13.8167 19.134 15.0484 18.7785 16.1053 18.1581L20.014 21.358Z" fill="#28B446"/>
<path d="M20.1603 2.76273L16.2726 5.94547C15.1788 5.26172 13.8857 4.86674 12.5004 4.86674C9.3724 4.86674 6.71449 6.88042 5.75183 9.6821L1.84245 6.48155H1.8418C3.83903 2.63086 7.86245 0 12.5004 0C15.4122 0 18.0819 1.03719 20.1603 2.76273Z" fill="#F14336"/>
</svg>
