<svg width="77" height="26" viewBox="0 0 77 26" fill="none" xmlns="http://www.w3.org/2000/svg">
<g clip-path="url(#clip0_7_1259)">
<mask id="mask0_7_1259" style="mask-type:luminance" maskUnits="userSpaceOnUse" x="31" y="5" width="46" height="16">
<path d="M76.647 5.77686H31.296V20.1045H76.647V5.77686Z" fill="white"/>
</mask>
<g mask="url(#mask0_7_1259)">
<path d="M74.7612 18.9265V11.8901H75.5569C75.6673 11.9 75.7785 11.8869 75.8834 11.8513C75.9884 11.8158 76.0848 11.7588 76.1664 11.6839C76.248 11.6089 76.3131 11.5178 76.3575 11.4162C76.4019 11.3146 76.4246 11.2049 76.4241 11.0941V11.0702C76.4374 10.9625 76.4284 10.8532 76.3979 10.7491C76.3673 10.6449 76.3158 10.5481 76.2465 10.4646C76.1773 10.3811 76.0916 10.3127 75.9949 10.2635C75.8982 10.2144 75.7924 10.1855 75.6842 10.1787H74.7612V8.86535C74.7623 8.62017 74.6712 8.38355 74.5063 8.20226C74.3412 8.02097 74.1142 7.90822 73.8702 7.8863C73.6194 7.87097 73.3727 7.95511 73.1836 8.12051C72.9944 8.28589 72.8781 8.51919 72.8596 8.76983V10.1946H72.064C71.9537 10.1847 71.8425 10.1978 71.7376 10.2334C71.6326 10.2689 71.5362 10.3259 71.4546 10.4008C71.3729 10.4758 71.3079 10.5669 71.2635 10.6685C71.2191 10.7701 71.1963 10.8798 71.1968 10.9906V11.0463C71.1836 11.1541 71.1926 11.2633 71.2231 11.3675C71.2535 11.4716 71.305 11.5684 71.3744 11.6519C71.4437 11.7354 71.5293 11.8038 71.6261 11.853C71.7228 11.9022 71.8285 11.931 71.9368 11.9378H72.8358V18.9504C72.8358 19.2016 72.9355 19.4425 73.1132 19.6202C73.2907 19.7978 73.5315 19.8976 73.7826 19.8976C74.0325 19.9106 74.2774 19.8242 74.4637 19.6571C74.6501 19.4901 74.7627 19.256 74.7772 19.0061C74.7801 18.9786 74.7746 18.9508 74.7612 18.9265Z" fill="#D7DADC"/>
<path d="M68.8976 10.2026C69.8293 10.2026 70.5844 9.44708 70.5844 8.51511C70.5844 7.58314 69.8293 6.82764 68.8976 6.82764C67.9661 6.82764 67.211 7.58314 67.211 8.51511C67.211 9.44708 67.9661 10.2026 68.8976 10.2026Z" fill="#FF4500"/>
<path d="M69.8367 11.9934C69.8367 11.7421 69.737 11.5012 69.5594 11.3236C69.3819 11.1459 69.1411 11.0461 68.8899 11.0461C68.6389 11.0461 68.3981 11.1459 68.2204 11.3236C68.0429 11.5012 67.9431 11.7421 67.9431 11.9934V18.9263C67.9431 19.1776 68.0429 19.4184 68.2204 19.5962C68.3981 19.7738 68.6389 19.8736 68.8899 19.8736C69.1411 19.8736 69.3819 19.7738 69.5594 19.5962C69.737 19.4184 69.8367 19.1776 69.8367 18.9263V11.9934Z" fill="#D7DADC"/>
<path d="M55.8333 6.72406C55.8333 6.47286 55.7336 6.23193 55.556 6.05429C55.3785 5.87665 55.1377 5.77686 54.8865 5.77686C54.6355 5.77686 54.3946 5.87665 54.217 6.05429C54.0395 6.23193 53.9398 6.47286 53.9398 6.72406V10.9587C53.6277 10.645 53.2553 10.3979 52.845 10.2323C52.4347 10.0668 51.9952 9.9862 51.5529 9.99554C49.0864 9.99554 47.0258 12.2641 47.0258 15.05C47.0258 17.836 49.0227 20.1045 51.5211 20.1045C51.9768 20.1156 52.4302 20.0347 52.854 19.8665C53.2778 19.6982 53.6633 19.4462 53.9876 19.1255C54.0213 19.2448 54.0785 19.3564 54.1559 19.4533C54.2334 19.5503 54.3294 19.6308 54.4383 19.6901C54.5473 19.7495 54.667 19.7864 54.7905 19.7987C54.9139 19.8112 55.0386 19.7987 55.1571 19.7621C55.3406 19.707 55.5033 19.5977 55.624 19.4486C55.7446 19.2995 55.8176 19.1175 55.8333 18.9264V6.72406ZM51.5131 18.226C50.0571 18.226 48.8716 16.817 48.8716 15.0421C48.8716 13.267 50.0491 11.8581 51.5131 11.8581C52.977 11.8581 54.1467 13.2749 54.1467 15.0421C54.1467 16.8091 52.977 18.1861 51.5211 18.1861L51.5131 18.226Z" fill="#D7DADC"/>
<path d="M65.7314 6.72406C65.7314 6.47286 65.6316 6.23193 65.4541 6.05429C65.2764 5.87665 65.0356 5.77686 64.7846 5.77686C64.6606 5.77686 64.5378 5.8014 64.4234 5.84911C64.3089 5.8968 64.2051 5.9667 64.1178 6.05476C64.0305 6.14283 63.9615 6.24731 63.9149 6.36219C63.8681 6.47706 63.8446 6.60005 63.8457 6.72406V10.9587C63.5325 10.6464 63.1599 10.4003 62.7499 10.2349C62.3399 10.0694 61.9008 9.98804 61.4588 9.99554C58.9923 9.99554 56.9316 12.2641 56.9316 15.05C56.9316 17.836 58.9207 20.1045 61.419 20.1045C61.8801 20.12 62.3395 20.0411 62.7691 19.8727C63.1987 19.7045 63.5893 19.4501 63.9173 19.1255C63.951 19.2448 64.0083 19.3564 64.0857 19.4533C64.1632 19.5503 64.2592 19.6308 64.3681 19.6901C64.4771 19.7495 64.5968 19.7864 64.7202 19.7987C64.8437 19.8112 64.9684 19.7987 65.0869 19.7621C65.271 19.7079 65.4343 19.5989 65.5551 19.4497C65.6758 19.3003 65.7484 19.1179 65.7631 18.9264L65.7314 6.72406ZM61.4111 18.226C59.955 18.226 58.7775 16.817 58.7775 15.0421C58.7775 13.267 59.9471 11.8581 61.4111 11.8581C62.875 11.8581 64.0446 13.2749 64.0446 15.0421C64.0446 16.8091 62.875 18.1861 61.419 18.1861L61.4111 18.226Z" fill="#D7DADC"/>
<path d="M45.037 15.6788C45.3503 15.7007 45.6595 15.5974 45.8967 15.3915C46.1339 15.1855 46.2796 14.8938 46.302 14.5805V14.461C46.2957 14.2336 46.2691 14.0071 46.2224 13.7845C46.03 12.7489 45.4911 11.8097 44.6945 11.1212C43.8978 10.4326 42.8906 10.0357 41.8385 9.99561C39.3721 9.99561 37.3114 12.2641 37.3114 15.0501C37.3114 17.836 39.3403 20.1045 41.8385 20.1045C42.4922 20.1288 43.1432 20.0104 43.7464 19.7575C44.3495 19.5045 44.8904 19.1231 45.3314 18.6399C45.4183 18.5448 45.4856 18.4336 45.5294 18.3125C45.5732 18.1914 45.5927 18.0629 45.5868 17.9342C45.5809 17.8056 45.5496 17.6794 45.4949 17.5627C45.4402 17.4462 45.363 17.3415 45.2677 17.2549L45.1802 17.1832C44.9856 17.0622 44.7562 17.0098 44.5283 17.0343C44.3005 17.0588 44.0875 17.159 43.9231 17.3186C43.3651 17.8675 42.6208 18.1858 41.8385 18.2101C41.1791 18.1592 40.5585 17.8776 40.0857 17.4147C39.6129 16.952 39.3181 16.3374 39.2527 15.6788H45.037ZM41.8545 11.89C42.4354 11.93 42.9881 12.1558 43.4308 12.5342C43.8735 12.9127 44.1828 13.4236 44.313 13.9914H39.3641C39.4946 13.4223 39.8051 12.9105 40.2495 12.532C40.6938 12.1534 41.2483 11.9283 41.8306 11.89H41.8545Z" fill="#D7DADC"/>
<path d="M37.4066 10.9747C37.4077 10.749 37.328 10.5303 37.1822 10.3581C37.0364 10.1859 36.8338 10.0715 36.611 10.0354C35.9832 9.92412 35.3372 9.98027 34.7379 10.1983C34.1386 10.4163 33.6074 10.7884 33.1977 11.2772V11.1498C33.1761 10.9126 33.0665 10.692 32.8906 10.5314C32.7146 10.3708 32.4852 10.2818 32.247 10.2818C32.0088 10.2818 31.7793 10.3708 31.6034 10.5314C31.4275 10.692 31.318 10.9126 31.2962 11.1498V18.9265C31.2932 19.173 31.3833 19.4116 31.5485 19.5947C31.7137 19.7776 31.9419 19.8916 32.1874 19.9136C32.4359 19.9289 32.6806 19.8456 32.8682 19.6817C33.0559 19.5177 33.1715 19.2865 33.1898 19.0379C33.1937 19.0009 33.1937 18.9636 33.1898 18.9265V14.9466C33.1684 14.5675 33.222 14.1879 33.3478 13.8294C33.4734 13.4711 33.6688 13.1412 33.9223 12.8586C34.1759 12.5761 34.4828 12.3463 34.8255 12.1829C35.1682 12.0194 35.5398 11.9253 35.9188 11.906C36.062 11.898 36.2054 11.898 36.3485 11.906H36.5394C36.7744 11.888 36.9941 11.7823 37.1548 11.6097C37.3155 11.4372 37.4053 11.2105 37.4066 10.9747Z" fill="#D7DADC"/>
</g>
<path d="M13.002 25.3146C19.9013 25.3146 25.4943 19.7216 25.4943 12.8223C25.4943 5.92306 19.9013 0.330078 13.002 0.330078C6.10274 0.330078 0.509766 5.92306 0.509766 12.8223C0.509766 19.7216 6.10274 25.3146 13.002 25.3146Z" fill="#FF4500"/>
<path d="M21.3341 12.8225C21.3213 12.4708 21.2071 12.1304 21.0051 11.8423C20.8031 11.5541 20.5221 11.3306 20.196 11.1985C19.8699 11.0665 19.5124 11.0316 19.1669 11.0981C18.8213 11.1646 18.5025 11.3296 18.2486 11.5732C16.8274 10.6072 15.157 10.0735 13.439 10.0367L14.2511 6.13911L16.9244 6.70126C16.9562 6.99668 17.0922 7.2711 17.3081 7.47526C17.5239 7.67942 17.8055 7.79995 18.1022 7.81521C18.399 7.83049 18.6915 7.73949 18.9272 7.55856C19.1628 7.37763 19.3264 7.11862 19.3883 6.82802C19.4502 6.53743 19.4065 6.23426 19.265 5.97297C19.1237 5.71167 18.8937 5.50933 18.6165 5.4023C18.3393 5.29526 18.0331 5.29051 17.7527 5.38892C17.4724 5.48732 17.2363 5.68244 17.0868 5.93923L14.0262 5.32711C13.9761 5.31614 13.9244 5.31519 13.8739 5.32435C13.8236 5.33352 13.7754 5.35259 13.7324 5.38048C13.6895 5.40836 13.6524 5.44451 13.6235 5.48681C13.5946 5.52912 13.5744 5.57674 13.5639 5.62693L12.6395 9.96174C10.9005 9.98795 9.20704 10.522 7.76759 11.4983C7.575 11.3171 7.34532 11.1799 7.09447 11.0963C6.84362 11.0127 6.57758 10.9846 6.3148 11.0141C6.05203 11.0435 5.79878 11.1297 5.57263 11.2667C5.34648 11.4038 5.15283 11.5883 5.0051 11.8076C4.85736 12.0269 4.75908 12.2758 4.71707 12.5367C4.67505 12.7978 4.6903 13.065 4.76176 13.3195C4.83322 13.5741 4.95918 13.8101 5.13091 14.0112C5.30266 14.2122 5.51606 14.3735 5.75633 14.4839C5.74227 14.6669 5.74227 14.8506 5.75633 15.0335C5.75633 17.8318 9.01681 20.1054 13.0393 20.1054C17.0618 20.1054 20.3223 17.8318 20.3223 15.0335C20.3364 14.8506 20.3364 14.6669 20.3223 14.4839C20.6305 14.3308 20.8891 14.0934 21.0683 13.7993C21.2473 13.5053 21.3395 13.1667 21.3341 12.8225ZM8.84192 14.0717C8.84192 13.8246 8.91518 13.5831 9.05245 13.3777C9.18971 13.1722 9.38482 13.0122 9.61309 12.9175C9.84135 12.8231 10.0925 12.7983 10.3349 12.8465C10.5772 12.8947 10.7998 13.0137 10.9745 13.1884C11.1492 13.363 11.2682 13.5856 11.3164 13.828C11.3646 14.0703 11.3398 14.3215 11.2453 14.5497C11.1507 14.778 10.9906 14.9731 10.7852 15.1104C10.5797 15.2476 10.3382 15.3209 10.0911 15.3209C9.92709 15.3209 9.76465 15.2886 9.61309 15.2258C9.46152 15.1631 9.32381 15.0711 9.20781 14.955C9.09181 14.839 8.99978 14.7013 8.93702 14.5497C8.87423 14.3981 8.84192 14.2357 8.84192 14.0717ZM16.0999 17.507C15.2136 18.175 14.1232 18.5149 13.0143 18.469C11.9055 18.5149 10.815 18.175 9.92875 17.507C9.87563 17.4423 9.84848 17.3602 9.85258 17.2766C9.85669 17.1929 9.89176 17.1138 9.95097 17.0546C10.0102 16.9954 10.0893 16.9603 10.1729 16.9562C10.2566 16.9521 10.3387 16.9792 10.4035 17.0323C11.1545 17.5833 12.0713 17.8609 13.0019 17.8194C13.9335 17.87 14.8546 17.6013 15.6127 17.0574C15.679 16.9927 15.7681 16.9571 15.8607 16.9583C15.9066 16.9589 15.9518 16.9685 15.994 16.9865C16.036 17.0046 16.0741 17.0308 16.1062 17.0636C16.1382 17.0964 16.1634 17.1352 16.1803 17.1777C16.1974 17.2203 16.2058 17.2658 16.2052 17.3116C16.2046 17.3574 16.195 17.4027 16.177 17.4448C16.1589 17.4869 16.1327 17.525 16.0999 17.557V17.507ZM15.8751 15.3709C15.628 15.3709 15.3865 15.2976 15.1811 15.1604C14.9756 15.0231 14.8154 14.828 14.7209 14.5997C14.6263 14.3715 14.6017 14.1202 14.6499 13.878C14.6981 13.6356 14.817 13.413 14.9917 13.2383C15.1664 13.0637 15.389 12.9447 15.6314 12.8965C15.8737 12.8483 16.1248 12.873 16.3531 12.9675C16.5814 13.0621 16.7765 13.2222 16.9138 13.4277C17.051 13.6331 17.1243 13.8745 17.1243 14.1217C17.131 14.2909 17.1033 14.4598 17.0428 14.618C16.9823 14.7762 16.8902 14.9205 16.7723 15.0421C16.6542 15.1635 16.5127 15.2598 16.3563 15.3249C16.2 15.3901 16.032 15.4226 15.8625 15.4209L15.8751 15.3709Z" fill="white"/>
</g>
<defs>
<clipPath id="clip0_7_1259">
<rect width="76.256" height="25.3397" fill="white" transform="translate(0.509766 0.330078)"/>
</clipPath>
</defs>
</svg>
