<svg width="124" height="24" viewBox="0 0 124 24" fill="none" xmlns="http://www.w3.org/2000/svg">
<mask id="mask0_7_1230" style="mask-type:luminance" maskUnits="userSpaceOnUse" x="0" y="0" width="124" height="24">
<path d="M123.685 0.473877H0.0820312V23.526H123.685V0.473877Z" fill="white"/>
</mask>
<g mask="url(#mask0_7_1230)">
<mask id="mask1_7_1230" style="mask-type:luminance" maskUnits="userSpaceOnUse" x="-1" y="0" width="25" height="24">
<path d="M23.134 0.034668H-0.357178V23.5258H23.134V0.034668Z" fill="white"/>
</mask>
<g mask="url(#mask1_7_1230)">
<path d="M23.1342 0.52417H0.132446V23.5259H23.1342V0.52417Z" fill="#FF6600" stroke="white" stroke-width="0.0102911"/>
<path d="M8.60565 5.54175L11.3888 11.3401L14.172 5.54175H16.5659L12.3665 13.4317V18.5084H10.4113V13.4317L6.21179 5.54175H8.60565Z" fill="white"/>
</g>
<path d="M36.6752 17.0494H34.2053V12.83H30.5585V17.0494H28.0886V7.4722H30.5585V10.9776H34.2053V7.4722H36.6752V17.0494ZM43.3709 15.1648V13.6597C43.0579 13.6854 42.7191 13.722 42.3547 13.7691C41.9901 13.812 41.7136 13.8635 41.5249 13.9234C41.2934 13.9964 41.1155 14.1035 40.9911 14.245C40.871 14.3822 40.811 14.5645 40.811 14.7918C40.811 14.9419 40.8238 15.064 40.8496 15.1583C40.8753 15.2527 40.9396 15.3427 41.0426 15.4285C41.1411 15.5143 41.259 15.5786 41.3963 15.6215C41.5335 15.6601 41.7479 15.6794 42.0395 15.6794C42.271 15.6794 42.5047 15.6322 42.7405 15.5378C42.9807 15.4435 43.1908 15.3191 43.3709 15.1648ZM43.3709 16.2839C43.2466 16.3783 43.0921 16.4919 42.9078 16.6249C42.7234 16.7578 42.5497 16.8629 42.3868 16.94C42.1595 17.0429 41.9237 17.118 41.6793 17.1652C41.4349 17.2165 41.1668 17.2423 40.8753 17.2423C40.1892 17.2423 39.6147 17.03 39.1515 16.6056C38.6884 16.1811 38.4569 15.6386 38.4569 14.9783C38.4569 14.4508 38.5748 14.0199 38.8107 13.6854C39.0465 13.351 39.381 13.0873 39.814 12.8943C40.2428 12.7014 40.7745 12.5642 41.4091 12.4826C42.0438 12.4012 42.702 12.3411 43.3838 12.3026V12.264C43.3838 11.8652 43.2208 11.5907 42.895 11.4407C42.5691 11.2863 42.0888 11.2092 41.4542 11.2092C41.0725 11.2092 40.6652 11.2778 40.2321 11.415C39.799 11.5479 39.4881 11.6508 39.2995 11.7237H39.0872V9.98066C39.3317 9.91634 39.7283 9.8413 40.2771 9.75554C40.8303 9.6655 41.3834 9.62047 41.9366 9.62047C43.2529 9.62047 44.2028 9.82415 44.7859 10.2315C45.3734 10.6346 45.6671 11.2692 45.6671 12.1353V17.0494H43.3709V16.2839ZM51.5587 17.2423C50.9284 17.2423 50.3517 17.1673 49.8286 17.0172C49.3097 16.8671 48.8573 16.6355 48.4714 16.3226C48.0898 16.0095 47.794 15.6151 47.5838 15.1391C47.3737 14.6631 47.2686 14.1057 47.2686 13.4667C47.2686 12.7935 47.3801 12.2126 47.6031 11.7237C47.8304 11.2349 48.1456 10.8297 48.5487 10.5081C48.9388 10.2036 49.3891 9.98066 49.8993 9.83916C50.4096 9.69765 50.9392 9.6269 51.488 9.6269C51.9811 9.6269 52.4357 9.6805 52.8516 9.78771C53.2675 9.8949 53.6556 10.0343 54.0157 10.2058V12.1804H53.6877C53.5977 12.1032 53.4884 12.0131 53.3597 11.9103C53.2354 11.8073 53.081 11.7066 52.8966 11.608C52.7208 11.5136 52.5279 11.4364 52.3177 11.3764C52.1076 11.3121 51.8632 11.2799 51.5845 11.2799C50.967 11.2799 50.4911 11.4771 50.1566 11.8716C49.8264 12.2619 49.6613 12.7935 49.6613 13.4667C49.6613 14.1614 49.8307 14.6888 50.1694 15.049C50.5125 15.4093 50.997 15.5893 51.623 15.5893C51.9147 15.5893 52.1762 15.5571 52.4078 15.4928C52.6436 15.4242 52.8388 15.3449 52.9931 15.2548C53.1389 15.1691 53.2675 15.0791 53.379 14.9847C53.4905 14.8904 53.5934 14.7982 53.6877 14.7082H54.0157V16.6827C53.6513 16.8543 53.2696 16.9893 52.8709 17.088C52.4764 17.1909 52.039 17.2423 51.5587 17.2423ZM63.2199 17.0494H60.5249L58.4988 13.9042L57.8685 14.6695V17.0494H55.553V7.04126H57.8685V13.0166L60.3641 9.82629H63.0334L60.4349 12.9394L63.2199 17.0494ZM71.5042 13.8655H66.2043C66.2386 14.4315 66.453 14.8647 66.8475 15.1648C67.2463 15.4649 67.8316 15.6151 68.6034 15.6151C69.0922 15.6151 69.566 15.5272 70.0249 15.3513C70.4837 15.1756 70.8461 14.9869 71.1118 14.7853H71.3691V16.6442C70.8461 16.8543 70.3529 17.0064 69.8898 17.1008C69.4267 17.1951 68.9143 17.2423 68.3526 17.2423C66.9033 17.2423 65.7926 16.9164 65.0208 16.2647C64.249 15.6129 63.863 14.6846 63.863 13.4796C63.863 12.2876 64.2276 11.3442 64.9565 10.6496C65.6897 9.95064 66.6931 9.60117 67.9666 9.60117C69.1415 9.60117 70.0249 9.89919 70.6166 10.4952C71.2083 11.087 71.5042 11.9403 71.5042 13.0551V13.8655ZM69.2016 12.5084C69.1887 12.0239 69.0686 11.6593 68.8414 11.415C68.6141 11.1706 68.2604 11.0484 67.7801 11.0484C67.3341 11.0484 66.9675 11.1641 66.6802 11.3957C66.3929 11.6272 66.2321 11.9981 66.1979 12.5084H69.2016ZM78.3736 12.0325H78.1677C78.069 11.9981 77.9104 11.9724 77.6918 11.9553C77.4731 11.9382 77.2908 11.9295 77.145 11.9295C76.8149 11.9295 76.5232 11.951 76.2703 11.9938C76.0173 12.0367 75.745 12.1096 75.4534 12.2126V17.0494H73.1379V9.82629H75.4534V10.8876C75.9637 10.4502 76.4075 10.1608 76.7848 10.0192C77.1622 9.87346 77.5095 9.80056 77.8268 9.80056C77.9082 9.80056 78.0004 9.80271 78.1034 9.80699C78.2063 9.81129 78.2964 9.81772 78.3736 9.82629V12.0325ZM93.0255 17.0494H90.6457L86.5806 10.4759V17.0494H84.3166V7.4722H87.2689L90.7614 12.9586V7.4722H93.0255V17.0494ZM102.455 13.8655H97.1547C97.1891 14.4315 97.4035 14.8647 97.798 15.1648C98.1968 15.4649 98.7821 15.6151 99.5539 15.6151C100.043 15.6151 100.517 15.5272 100.975 15.3513C101.434 15.1756 101.797 14.9869 102.062 14.7853H102.32V16.6442C101.797 16.8543 101.303 17.0064 100.84 17.1008C100.377 17.1951 99.8648 17.2423 99.3031 17.2423C97.8538 17.2423 96.7431 16.9164 95.9713 16.2647C95.1995 15.6129 94.8135 14.6846 94.8135 13.4796C94.8135 12.2876 95.1781 11.3442 95.907 10.6496C96.6402 9.95064 97.6437 9.60117 98.9171 9.60117C100.092 9.60117 100.975 9.89919 101.567 10.4952C102.159 11.087 102.455 11.9403 102.455 13.0551V13.8655ZM100.152 12.5084C100.139 12.0239 100.019 11.6593 99.7919 11.415C99.5647 11.1706 99.2109 11.0484 98.7306 11.0484C98.2846 11.0484 97.9181 11.1641 97.6307 11.3957C97.3434 11.6272 97.1826 11.9981 97.1484 12.5084H100.152ZM115.608 9.82629L113.37 17.0494H110.912L109.44 12.1804L107.993 17.0494H105.503L103.284 9.82629H105.716L106.951 14.8046L108.494 9.82629H110.546L112.012 14.8046L113.228 9.82629H115.608ZM123.268 14.7596C123.268 15.5058 122.934 16.1082 122.265 16.5669C121.596 17.0215 120.681 17.2487 119.518 17.2487C118.875 17.2487 118.292 17.1888 117.77 17.0687C117.246 16.9486 116.826 16.8157 116.508 16.6699V14.766H116.72C116.837 14.8475 116.969 14.9376 117.12 15.0362C117.273 15.1306 117.491 15.2334 117.77 15.3449C118.009 15.4435 118.281 15.5292 118.586 15.6021C118.89 15.6707 119.216 15.7051 119.563 15.7051C120.018 15.7051 120.355 15.6558 120.573 15.5571C120.792 15.4543 120.901 15.3042 120.901 15.107C120.901 14.9311 120.837 14.8046 120.708 14.7275C120.58 14.6459 120.335 14.5687 119.975 14.4959C119.804 14.4573 119.57 14.4166 119.275 14.3737C118.983 14.3265 118.717 14.2708 118.477 14.2065C117.82 14.0349 117.334 13.7691 117.017 13.4089C116.699 13.0444 116.54 12.5921 116.54 12.0518C116.54 11.3571 116.868 10.7804 117.525 10.3215C118.185 9.85845 119.086 9.6269 120.226 9.6269C120.766 9.6269 121.283 9.68264 121.776 9.79413C122.274 9.90133 122.662 10.0171 122.94 10.1415V11.9681H122.741C122.398 11.7322 122.006 11.5415 121.564 11.3957C121.126 11.2456 120.683 11.1706 120.233 11.1706C119.86 11.1706 119.545 11.222 119.287 11.3249C119.034 11.4279 118.908 11.5736 118.908 11.7623C118.908 11.9338 118.965 12.0646 119.081 12.1546C119.197 12.2447 119.469 12.3348 119.898 12.4248C120.134 12.472 120.387 12.5191 120.657 12.5663C120.931 12.6092 121.206 12.665 121.48 12.7336C122.089 12.8922 122.539 13.143 122.831 13.4861C123.123 13.8248 123.268 14.2493 123.268 14.7596Z" fill="white"/>
</g>
</svg>
