<svg width="406" height="344" viewBox="0 0 406 344" fill="none" xmlns="http://www.w3.org/2000/svg">
<g filter="url(#filter0_d_5_180)">
<path d="M318.633 241.979L355.826 295.702H335.378L308.427 256.772L281.566 295.702H260.041L335.378 188.078H355.826L318.633 241.979Z" fill="white"/>
<path d="M71.6985 48.1665H55.5548V83.6825L71.6985 67.5389V48.1665Z" fill="white"/>
<path d="M299.862 100.902L336.454 48.1665H357.979L317.082 105.207V157.943H299.862V100.902Z" fill="white"/>
<path d="M279.772 48H257.888L288.023 87.9875L298.952 75.0726L279.772 48Z" fill="white"/>
<path d="M93.6144 95.1294L145.96 157.943H125.511L82.4396 106.304L71.6984 117.046V157.943H55.5548V108.436L116.901 48.1665H140.578L93.6144 95.1294Z" fill="white"/>
<rect x="162.103" y="48.1665" width="81.7945" height="17.2199" fill="white"/>
<rect x="162.103" y="95.5211" width="81.7945" height="17.2199" fill="white"/>
<rect x="162.103" y="140.723" width="81.7945" height="17.2199" fill="white"/>
<rect x="162.103" y="188.078" width="81.7945" height="17.2199" fill="white"/>
<rect x="162.103" y="233.28" width="81.7945" height="17.2199" fill="white"/>
<path d="M281.566 188.078H262.194L288.024 224.67L296.634 211.755L281.566 188.078Z" fill="white"/>
<rect x="162.103" y="278.483" width="81.7945" height="17.2199" fill="white"/>
<path d="M97.1794 188.078C124.714 188.078 147.036 210.4 147.036 237.935V245.846C147.036 273.381 124.714 295.702 97.1794 295.702H48.0212V278.482H92.9802C112.135 278.482 127.663 262.954 127.663 243.8V237.828C127.663 218.673 112.135 203.146 92.9802 203.146H48.0212V188.078H97.1794Z" fill="white"/>
</g>
<defs>
<filter id="filter0_d_5_180" x="-29.822" y="-30.822" width="465.644" height="405.644" filterUnits="userSpaceOnUse" color-interpolation-filters="sRGB">
<feFlood flood-opacity="0" result="BackgroundImageFix"/>
<feColorMatrix in="SourceAlpha" type="matrix" values="0 0 0 0 0 0 0 0 0 0 0 0 0 0 0 0 0 0 127 0" result="hardAlpha"/>
<feOffset/>
<feGaussianBlur stdDeviation="23.911"/>
<feComposite in2="hardAlpha" operator="out"/>
<feColorMatrix type="matrix" values="0 0 0 0 0.194237 0 0 0 0 0.122138 0 0 0 0 0.257324 0 0 0 1 0"/>
<feBlend mode="multiply" in2="BackgroundImageFix" result="effect1_dropShadow_5_180"/>
<feBlend mode="normal" in="SourceGraphic" in2="effect1_dropShadow_5_180" result="shape"/>
</filter>
</defs>
</svg>
