<svg width="107" height="26" viewBox="0 0 107 26" fill="none" xmlns="http://www.w3.org/2000/svg">
<g clip-path="url(#clip0_7_1241)">
<mask id="mask0_7_1241" style="mask-type:luminance" maskUnits="userSpaceOnUse" x="0" y="0" width="107" height="26">
<path d="M106.51 0.606689H0.68512V25.3934H106.51V0.606689Z" fill="white"/>
</mask>
<g mask="url(#mask0_7_1241)">
<path d="M25.4707 13.0001C25.4707 19.8474 19.93 25.3934 13.0892 25.3934C6.24839 25.3934 0.707672 19.8474 0.707672 13.0001C0.707672 6.15272 6.24839 0.606689 13.0892 0.606689C19.93 0.606689 25.4707 6.15272 25.4707 13.0001Z" fill="#DA552F"/>
<path d="M14.74 13.0002H11.2319V9.28214H14.74C15.7615 9.28214 16.5972 10.1187 16.5972 11.1411C16.5972 12.1636 15.7615 13.0002 14.74 13.0002ZM14.74 6.80347H8.75562V19.1968H11.2319V15.4788H14.74C17.1338 15.4788 19.0735 13.5372 19.0735 11.1411C19.0735 8.7451 17.1338 6.80347 14.74 6.80347Z" fill="white"/>
<path d="M38.4817 11.4818C38.4817 10.8002 37.9555 10.3871 37.2745 10.3871H35.4482V12.5663H37.2745C37.9555 12.5663 38.4817 12.1532 38.4817 11.4818ZM33.7251 17.1311V8.8689H37.5221C39.2864 8.8689 40.2461 10.0566 40.2461 11.4818C40.2461 12.8968 39.2761 14.0844 37.5221 14.0844H35.4585V17.1311H33.7251Z" fill="white"/>
<path d="M41.2878 17.1313V11.1102H42.8356V11.9054C43.2586 11.3993 43.9809 10.9656 44.7134 10.9656V12.4734C44.5999 12.4528 44.4658 12.4425 44.2903 12.4425C43.7744 12.4425 43.0935 12.7317 42.8459 13.1138V17.1416H41.2878V17.1313Z" fill="white"/>
<path d="M49.9034 14.0432C49.9034 13.1344 49.3668 12.3392 48.397 12.3392C47.4374 12.3392 46.901 13.1344 46.901 14.0432C46.901 14.9728 47.4374 15.7577 48.397 15.7577C49.3668 15.7577 49.9034 14.9625 49.9034 14.0432ZM45.2913 14.0432C45.2913 12.3805 46.4573 10.9656 48.3867 10.9656C50.3368 10.9656 51.5027 12.3805 51.5027 14.0432C51.5027 15.7061 50.3368 17.1313 48.3867 17.1313C46.4573 17.1313 45.2913 15.7061 45.2913 14.0432Z" fill="white"/>
<path d="M56.7029 15.0862V13.0103C56.445 12.6179 55.8878 12.339 55.3822 12.339C54.4949 12.339 53.8862 13.031 53.8862 14.0431C53.8862 15.0656 54.4949 15.7576 55.3822 15.7576C55.8878 15.7576 56.445 15.4787 56.7029 15.0862ZM56.7029 17.1311V16.2326C56.2387 16.8214 55.6092 17.1311 54.8869 17.1311C53.4115 17.1311 52.2868 16.0157 52.2868 14.0431C52.2868 12.1325 53.3909 10.9654 54.8869 10.9654C55.5782 10.9654 56.2387 11.2546 56.7029 11.864V8.8689H58.2609V17.1311H56.7029Z" fill="white"/>
<path d="M63.7502 17.1312V16.243C63.3477 16.6768 62.6461 17.1312 61.6865 17.1312C60.3968 17.1312 59.788 16.4289 59.788 15.2825V11.1101H61.3358V14.6732C61.3358 15.4891 61.7587 15.7577 62.4191 15.7577C63.0175 15.7577 63.4922 15.4272 63.7605 15.0863V11.1101H65.3081V17.1312H63.7502Z" fill="white"/>
<path d="M66.4534 14.0432C66.4534 12.2462 67.7638 10.9656 69.5694 10.9656C70.7766 10.9656 71.4989 11.4923 71.8909 12.0294L70.8798 12.9796C70.6012 12.5664 70.1782 12.3495 69.6417 12.3495C68.7027 12.3495 68.0527 13.0312 68.0527 14.0536C68.0527 15.076 68.713 15.768 69.6417 15.768C70.1782 15.768 70.6012 15.5201 70.8798 15.1277L71.8909 16.0779C71.4989 16.6149 70.7766 17.152 69.5694 17.152C67.7638 17.1313 66.4534 15.8506 66.4534 14.0432Z" fill="white"/>
<path d="M73.2219 15.5098V12.4528H72.252V11.0998H73.2219V9.49902H74.7695V11.1102H75.9561V12.4631H74.7695V15.107C74.7695 15.4891 74.9656 15.768 75.3061 15.768C75.5331 15.768 75.7601 15.6854 75.8426 15.5822L76.1729 16.7595C75.9458 16.966 75.5331 17.1416 74.8831 17.1416C73.7894 17.1313 73.2219 16.5736 73.2219 15.5098Z" fill="white"/>
<path d="M85.8408 17.1311V13.5681H82.0129V17.1311H80.2897V8.8689H82.0129V12.0602H85.8408V8.8689H87.5845V17.1311H85.8408Z" fill="white"/>
<path d="M93.1044 17.1312V16.243C92.7021 16.6768 92.0005 17.1312 91.0409 17.1312C89.7511 17.1312 89.1424 16.4289 89.1424 15.2825V11.1101H90.69V14.6732C90.69 15.4891 91.1131 15.7577 91.7734 15.7577C92.3719 15.7577 92.8465 15.4272 93.1147 15.0863V11.1101H94.6625V17.1312H93.1044Z" fill="white"/>
<path d="M100.142 17.1313V13.434C100.142 12.618 99.7184 12.3392 99.0581 12.3392C98.4493 12.3392 97.9851 12.68 97.7168 13.0209V17.1313H96.1691V11.1102H97.7168V11.8641C98.0986 11.4303 98.8208 10.9656 99.7701 10.9656C101.07 10.9656 101.689 11.6988 101.689 12.8349V17.1313H100.142Z" fill="white"/>
<path d="M103.546 15.5098V12.4528H102.576V11.0998H103.546V9.49902H105.094V11.1102H106.281V12.4631H105.094V15.107C105.094 15.4891 105.29 15.768 105.631 15.768C105.858 15.768 106.084 15.6854 106.167 15.5822L106.497 16.7595C106.27 16.966 105.858 17.1416 105.207 17.1416C104.114 17.1313 103.546 16.5736 103.546 15.5098Z" fill="white"/>
</g>
</g>
<defs>
<clipPath id="clip0_7_1241">
<rect width="105.825" height="24.7867" fill="white" transform="translate(0.685089 0.606689)"/>
</clipPath>
</defs>
</svg>
