<?xml version="1.0" encoding="UTF-8"?>
<!-- This file is generated by npm run icons -->
<svg xmlns="http://www.w3.org/2000/svg" xmlns:xlink="http://www.w3.org/1999/xlink" width="0" height="0">
<defs>
<symbol viewBox="0 0 24 24" id="admin">
<path d="M2.25 9.74912C2.24896 8.39612 2.46378 7.05124 2.88575 5.76572C2.98814 5.45437 3.28065 5.24555 3.6084 5.25009C6.53484 5.29094 9.36114 4.18538 11.4834 2.17002L11.5986 2.08017C11.8831 1.8997 12.2622 1.92922 12.5156 2.16904C14.5317 4.07913 17.2532 5.24912 20.25 5.24912H20.4023L20.5215 5.25888C20.7949 5.30292 21.0257 5.4955 21.1143 5.76474C21.5268 7.01938 21.75 8.3595 21.75 9.75009C21.7499 15.6925 17.6858 20.6835 12.1865 22.0987C12.064 22.1302 11.935 22.1303 11.8125 22.0987C6.48517 20.7266 2.50512 15.9996 2.26172 10.3028L2.25 9.74912ZM14.3897 9.31357C14.6304 8.97682 15.0986 8.89924 15.4356 9.13974C15.7725 9.38045 15.8509 9.8486 15.6104 10.1856L11.8604 15.4356C11.7322 15.615 11.5312 15.729 11.3115 15.7472C11.092 15.7652 10.8755 15.6861 10.7197 15.5304L8.46973 13.2804C8.17686 12.9875 8.17691 12.5127 8.46973 12.2198C8.76262 11.9269 9.23738 11.9269 9.53028 12.2198L11.1533 13.8429L14.3897 9.31357ZM3.75 9.74912C3.75007 14.9227 7.24288 19.279 12 20.5929C16.7571 19.28 20.2499 14.9238 20.25 9.75009C20.25 8.70699 20.1068 7.69829 19.8418 6.74131C16.8549 6.64738 14.1276 5.52584 12.001 3.71884C9.80617 5.58704 7.0405 6.65528 4.15723 6.74424C3.88693 7.72187 3.7492 8.73219 3.75 9.74814V9.74912Z"></path>
</symbol>
<symbol viewBox="0 0 24 24" id="arrow-left">
<path d="M6.21967 7.71967C6.51256 7.42678 6.98732 7.42678 7.28022 7.71967C7.57311 8.01256 7.57311 8.48732 7.28022 8.78022L4.81049 11.2499H20.9999C21.4142 11.2499 21.7499 11.5857 21.7499 11.9999C21.7499 12.4142 21.4142 12.7499 20.9999 12.7499H4.81049L7.28022 15.2197C7.57311 15.5126 7.57311 15.9873 7.28022 16.2802C6.98732 16.5731 6.51256 16.5731 6.21967 16.2802L2.46967 12.5302C2.17678 12.2373 2.17678 11.7626 2.46967 11.4697L6.21967 7.71967Z"></path>
</symbol>
<symbol viewBox="0 0 24 24" id="art">
<path d="M9.32157 17.2501C9.32157 16.9074 9.25426 16.5809 9.13296 16.2836V16.283C8.90872 15.7302 8.49905 15.2725 7.97448 14.9884C7.91229 14.9547 7.84907 14.9235 7.78474 14.8952C7.76895 14.8918 7.75298 14.8882 7.73731 14.8829C7.70631 14.8724 7.67758 14.8575 7.65082 14.8411C7.2081 14.6755 6.72582 14.6341 6.2574 14.7255C5.67199 14.8398 5.14445 15.1541 4.76521 15.6145C4.38595 16.075 4.17865 16.6535 4.17872 17.2501C4.17869 17.6168 4.10313 17.9795 3.95718 18.3159C3.81119 18.6524 3.59778 18.9555 3.32994 19.206C3.06211 19.4566 2.74568 19.6497 2.40026 19.773C2.30895 19.8055 2.21571 19.832 2.1218 19.8545C2.54092 20.3578 3.07693 20.7562 3.6882 21.0101C4.51632 21.3541 5.43518 21.4147 6.30149 21.1831C7.16769 20.9516 7.93344 20.4406 8.4795 19.7295C9.02552 19.0183 9.32153 18.1467 9.32157 17.2501ZM9.65863 11.6379C9.16225 12.468 8.74436 13.3425 8.4103 14.2501C8.97542 14.5629 9.4379 15.0277 9.74847 15.5883C10.6562 15.2541 11.5305 14.8364 12.3606 14.3399C11.7588 13.183 10.8158 12.2395 9.65863 11.6379ZM20.6715 2.67979C20.505 2.66353 20.3378 2.70552 20.1988 2.79865L20.1977 2.79921L14.3841 6.67644H14.3835C12.6994 7.79905 11.2518 9.23862 10.1201 10.913C11.381 11.5853 12.4128 12.6172 13.0855 13.8779C14.7605 12.7466 16.2013 11.3003 17.3244 9.61617L21.2005 3.802L21.201 3.80144C21.2942 3.66248 21.3361 3.49529 21.3199 3.32878C21.3036 3.16223 21.2301 3.00626 21.1118 2.88793C20.9935 2.76972 20.8379 2.69608 20.6715 2.67979ZM10.1787 17.2501C10.1787 18.3354 9.82014 19.3903 9.15919 20.2512C8.49811 21.1122 7.57115 21.731 6.52247 22.0113C5.47381 22.2915 4.36195 22.2178 3.35952 21.8014C2.35709 21.3851 1.51991 20.6495 0.978382 19.7088C0.899504 19.5718 0.902523 19.4021 0.986195 19.268C1.06985 19.1338 1.22077 19.0566 1.37849 19.0671C1.62727 19.0837 1.87691 19.0492 2.11175 18.9655C2.34668 18.8817 2.56241 18.7503 2.74457 18.5799C2.92659 18.4096 3.07167 18.2037 3.1709 17.975C3.27016 17.7462 3.32155 17.4995 3.32157 17.2501C3.32148 16.4547 3.59774 15.6838 4.10338 15.0699C4.60906 14.4559 5.31265 14.0369 6.09334 13.8846C6.60083 13.7855 7.12033 13.8035 7.61398 13.932C8.01187 12.8557 8.52119 11.8235 9.13463 10.8528C9.13807 10.8473 9.14216 10.8424 9.14579 10.8372C10.3752 8.89761 11.9972 7.23702 13.9081 5.96327L19.7211 2.08771V2.08715C20.025 1.88338 20.3905 1.79099 20.7546 1.82655C21.1187 1.86211 21.4591 2.02326 21.7178 2.28191C21.9764 2.54057 22.1375 2.88102 22.1731 3.24508C22.2087 3.60921 22.1168 3.97468 21.9131 4.27856L18.0375 10.0916C16.7653 11.9995 15.1071 13.6189 13.1709 14.8472C13.1567 14.8576 13.142 14.8674 13.1263 14.8762C12.1615 15.484 11.1365 15.9893 10.0677 16.3846C10.1399 16.6614 10.1787 16.9516 10.1787 17.2501Z"></path>
</symbol>
<symbol viewBox="0 0 24 24" id="bell">
<path d="M17.2492 9C17.2492 7.60773 16.6965 6.27263 15.7121 5.28809C14.7275 4.30352 13.3916 3.75 11.9992 3.75C10.607 3.75013 9.27175 4.30363 8.28729 5.28809C7.30288 6.27263 6.74921 7.60773 6.74921 9V9.74902L6.73944 10.2002C6.65477 12.0777 6.02533 13.8842 4.93866 15.4062C6.31785 15.8454 7.75233 16.1614 9.23065 16.3369C11.07 16.5551 12.9294 16.5551 14.7687 16.3369L15.4435 16.2471C16.6696 16.0651 17.878 15.7821 19.0588 15.4062C17.8858 13.7626 17.2462 11.7867 17.2492 9.74902V9ZM14.2463 17.8994C12.7513 18.0343 11.2472 18.0343 9.75214 17.8994C9.74551 18.0516 9.75403 18.205 9.7785 18.3564C9.83503 18.7059 9.97318 19.0372 10.1818 19.3232C10.3907 19.6094 10.6648 19.8424 10.9807 20.0029C11.2963 20.1633 11.6452 20.247 11.9992 20.2471C12.3534 20.2471 12.703 20.1634 13.0187 20.0029C13.3346 19.8424 13.6087 19.6094 13.8176 19.3232C14.0262 19.0372 14.1644 18.7059 14.2209 18.3564C14.2454 18.205 14.2529 18.0517 14.2463 17.8994ZM18.7492 9.75098C18.7462 11.7894 19.5014 13.7564 20.8674 15.2695C21.0341 15.4542 21.0987 15.7096 21.0392 15.9512C20.9797 16.1928 20.8039 16.3894 20.5705 16.4756C19.0059 17.0531 17.387 17.468 15.7394 17.7178C15.7613 18.0098 15.7484 18.3047 15.7014 18.5957C15.6071 19.1785 15.3765 19.7311 15.0285 20.208C14.6805 20.6848 14.2247 21.0724 13.6984 21.3398C13.172 21.6073 12.5897 21.7471 11.9992 21.7471C11.4089 21.747 10.8272 21.6073 10.301 21.3398C9.77473 21.0724 9.31891 20.6848 8.97089 20.208C8.6229 19.7311 8.39226 19.1785 8.29804 18.5957C8.25106 18.305 8.23727 18.0104 8.25897 17.7188C6.58818 17.4653 4.97195 17.0458 3.42792 16.4756C3.19443 16.3894 3.01864 16.1929 2.95917 15.9512C2.89974 15.7096 2.96432 15.4542 3.13104 15.2695C4.49732 13.7566 5.25197 11.7895 5.24921 9.75098V9C5.24921 7.20979 5.96088 5.49243 7.22675 4.22656C8.49248 2.96096 10.2093 2.25013 11.9992 2.25C13.7893 2.25 15.5068 2.96084 16.7726 4.22656C18.0385 5.49243 18.7492 7.20979 18.7492 9V9.75098Z"></path>
</symbol>
<symbol viewBox="0 0 24 24" id="calendar">
<path d="M16 2C16.5128 2 16.9354 2.38645 16.9932 2.88379L17 3V4H18C19.6569 4 21 5.34315 21 7V19C21 20.6569 19.6569 22 18 22H6C4.34315 22 3 20.6569 3 19V7C3 5.34315 4.34315 4 6 4H7V3C7 2.44772 7.44772 2 8 2C8.51284 2 8.9354 2.38645 8.99316 2.88379L9 3V4H15V3C15 2.44772 15.4477 2 16 2ZM5 19C5 19.5523 5.44772 20 6 20H18C18.5523 20 19 19.5523 19 19V12H5V19ZM10 14C10.5523 14 11 14.4477 11 15V17C11 17.5523 10.5523 18 10 18H8C7.44772 18 7 17.5523 7 17V15C7 14.4477 7.44772 14 8 14H10ZM6 6C5.44772 6 5 6.44772 5 7V10H19V7C19 6.44772 18.5523 6 18 6H17V7C17 7.55228 16.5523 8 16 8C15.4872 8 15.0646 7.61355 15.0068 7.11621L15 7V6H9V7C9 7.55228 8.55228 8 8 8C7.48716 8 7.0646 7.61355 7.00684 7.11621L7 7V6H6Z"></path>
</symbol>
<symbol viewBox="0 0 24 24" id="chevron-down">
<path d="M18.4393 7.18946C19.0251 6.60368 19.9746 6.60368 20.5604 7.18946C21.1462 7.77525 21.1462 8.72477 20.5604 9.31056L13.0604 16.8106C12.4746 17.3963 11.5251 17.3963 10.9393 16.8106L3.43934 9.31056C2.85355 8.72477 2.85355 7.77525 3.43934 7.18946C4.02513 6.60368 4.97465 6.60368 5.56043 7.18946L11.9999 13.6289L18.4393 7.18946Z"></path>
</symbol>
<symbol viewBox="0 0 20 20" id="comment">
<path d="M17.375 10.6328V5.61719C17.3749 4.62725 16.6853 3.80607 15.7598 3.66992C14.091 3.42501 12.4086 3.28708 10.7227 3.25684L10 3.25C8.04337 3.25 6.11998 3.39357 4.24023 3.66992C3.31479 3.80605 2.62515 4.62794 2.625 5.61719V10.6338C2.62521 11.622 3.3147 12.4439 4.24023 12.5801C5.12867 12.7109 6.02638 12.8115 6.93262 12.8818C7.32311 12.9121 7.62494 13.2382 7.625 13.6299V15.6895L9.74316 13.5713C10.109 13.2079 10.5998 12.9978 11.1152 12.9844L11.6982 12.9639C13.0577 12.9061 14.4133 12.7778 15.7598 12.5801C16.6853 12.4439 17.3749 11.6228 17.375 10.6328ZM18.875 10.6328C18.8749 12.3125 17.6926 13.8122 15.9785 14.0645C14.381 14.2991 12.7703 14.4387 11.1562 14.4834L11.1553 14.4844C11.0221 14.4877 10.8943 14.5419 10.7998 14.6357L7.40527 18.0303C7.19079 18.2448 6.86813 18.3094 6.58789 18.1934C6.30763 18.0773 6.125 17.8033 6.125 17.5V14.3184C5.41898 14.2517 4.7176 14.1669 4.02148 14.0645C2.30743 13.8122 1.12521 12.3118 1.125 10.6338V5.61719C1.12515 3.93844 2.30725 2.43781 4.02148 2.18555C5.97333 1.89859 7.97004 1.75 10 1.75C12.0006 1.74938 13.9991 1.89502 15.9785 2.18555C17.6926 2.43779 18.8749 3.93747 18.875 5.61719V10.6328Z"></path>
</symbol>
<symbol viewBox="0 0 24 24" id="company">
<path d="M19.5 1.875C20.1213 1.875 20.625 2.37868 20.625 3C20.625 3.48926 20.3112 3.90128 19.875 4.05615V19.875H20.25C20.8713 19.875 21.375 20.3787 21.375 21C21.375 21.6213 20.8713 22.125 20.25 22.125H3.75C3.12868 22.125 2.625 21.6213 2.625 21C2.625 20.3787 3.12868 19.875 3.75 19.875H4.125V4.05615C3.68885 3.90128 3.375 3.48926 3.375 3C3.375 2.37868 3.87868 1.875 4.5 1.875H19.5ZM10.125 17.625V19.875H13.875V17.625H10.125ZM10.5 11.625C11.1213 11.625 11.625 12.1287 11.625 12.75C11.625 13.3713 11.1213 13.875 10.5 13.875H9C8.37868 13.875 7.875 13.3713 7.875 12.75C7.875 12.1287 8.37868 11.625 9 11.625H10.5ZM15 11.625C15.6213 11.625 16.125 12.1287 16.125 12.75C16.125 13.3713 15.6213 13.875 15 13.875H13.5C12.8787 13.875 12.375 13.3713 12.375 12.75C12.375 12.1287 12.8787 11.625 13.5 11.625H15ZM10.5 8.625C11.1213 8.625 11.625 9.12868 11.625 9.75C11.625 10.3713 11.1213 10.875 10.5 10.875H9C8.37868 10.875 7.875 10.3713 7.875 9.75C7.875 9.12868 8.37868 8.625 9 8.625H10.5ZM15 8.625C15.6213 8.625 16.125 9.12868 16.125 9.75C16.125 10.3713 15.6213 10.875 15 10.875H13.5C12.8787 10.875 12.375 10.3713 12.375 9.75C12.375 9.12868 12.8787 8.625 13.5 8.625H15ZM10.5 5.625C11.1213 5.625 11.625 6.12868 11.625 6.75C11.625 7.37132 11.1213 7.875 10.5 7.875H9C8.37868 7.875 7.875 7.37132 7.875 6.75C7.875 6.12868 8.37868 5.625 9 5.625H10.5ZM15 5.625C15.6213 5.625 16.125 6.12868 16.125 6.75C16.125 7.37132 15.6213 7.875 15 7.875H13.5C12.8787 7.875 12.375 7.37132 12.375 6.75C12.375 6.12868 12.8787 5.625 13.5 5.625H15ZM16.125 19.875H17.625V4.125H6.375V19.875H7.875V17.625C7.875 16.3827 8.88268 15.375 10.125 15.375H13.875C15.1173 15.375 16.125 16.3827 16.125 17.625V19.875Z"></path>
</symbol>
<symbol viewBox="0 0 24 24" id="copy">
<path d="M2.625 20.625V7.875C2.625 6.63268 3.63268 5.625 4.875 5.625H6.75C6.87508 5.62492 7.00008 5.6278 7.125 5.63232V3.375C7.125 2.13268 8.13268 1.125 9.375 1.125H11.25V1.12646C11.8147 1.12612 12.379 1.17105 12.936 1.26416L13.3813 1.34912C17.9502 2.32912 21.375 6.38793 21.375 11.25V16.125C21.375 17.3673 20.3673 18.375 19.125 18.375H16.875V20.625C16.875 21.8673 15.8673 22.875 14.625 22.875H4.875C4.27827 22.875 3.70614 22.6378 3.28418 22.2158C2.86222 21.7939 2.625 21.2217 2.625 20.625ZM4.875 20.625H14.625V18.375H9.375C8.77827 18.375 8.20614 18.1378 7.78418 17.7158C7.36222 17.2939 7.125 16.7217 7.125 16.125V7.88379C7.00061 7.878 6.87607 7.87493 6.75146 7.875H4.875V20.625ZM15.375 7.125H16.875C17.2778 7.125 17.6737 7.18362 18.0557 7.2876C17.3696 6.11159 16.3884 5.12903 15.2124 4.44287C15.3173 4.8277 15.375 5.22445 15.375 5.625V7.125ZM9.375 16.125H19.125V11.625C19.125 11.0283 18.8878 10.4561 18.4658 10.0342C18.0439 9.61222 17.4717 9.375 16.875 9.375H15.375C14.7783 9.375 14.2061 9.13778 13.7842 8.71582C13.3622 8.29386 13.125 7.72174 13.125 7.125V5.625C13.125 5.32953 13.0667 5.03665 12.9536 4.76367C12.8405 4.4908 12.6747 4.24304 12.4658 4.03418C12.257 3.82532 12.0092 3.65946 11.7363 3.54639C11.4633 3.43331 11.1705 3.375 10.875 3.375H9.375V16.125Z"></path>
</symbol>
<symbol viewBox="0 0 24 24" id="customer">
<path d="M11.9991 11.9902C14.1638 11.9902 16.2421 12.8413 17.7853 14.3594C19.3282 15.8774 20.2127 17.9412 20.2481 20.1055C20.253 20.4031 20.0812 20.6757 19.8106 20.7998C17.36 21.9235 14.6951 22.5025 11.9991 22.499V22.5C9.21315 22.5 6.56671 21.8919 4.1876 20.7998C3.91719 20.6757 3.74524 20.403 3.7501 20.1055C3.78552 17.9412 4.67002 15.8774 6.21299 14.3594C7.75611 12.8412 9.83442 11.9902 11.9991 11.9902ZM11.9991 13.4902C10.2281 13.4902 8.52826 14.1867 7.26573 15.4287C6.12014 16.5557 5.41929 18.0505 5.27744 19.6406C7.34238 20.5155 9.61339 21 11.9991 21H12.0001C14.3104 21.0031 16.5954 20.5396 18.7198 19.6406C18.578 18.0505 17.8781 16.5557 16.7325 15.4287C15.47 14.1867 13.7701 13.4902 11.9991 13.4902ZM14.9991 6C14.9991 5.20436 14.6828 4.44151 14.1202 3.87891C13.5576 3.3163 12.7948 3.00001 11.9991 3C11.2035 3 10.4406 3.3163 9.87803 3.87891C9.31542 4.44152 8.99912 5.20435 8.99912 6C8.99912 6.79565 9.31542 7.55848 9.87803 8.12109C10.4406 8.6837 11.2035 9 11.9991 9C12.7948 8.99999 13.5576 8.6837 14.1202 8.12109C14.6828 7.55849 14.9991 6.79564 14.9991 6ZM16.4933 6.22266C16.4382 7.33506 15.972 8.39036 15.1808 9.18164C14.3369 10.0255 13.1926 10.5 11.9991 10.5C10.8057 10.5 9.6614 10.0255 8.81748 9.18164C7.97357 8.33773 7.49912 7.19347 7.49912 6C7.49912 4.80653 7.97357 3.66227 8.81748 2.81836C9.6614 1.97445 10.8057 1.5 11.9991 1.5C13.1926 1.50001 14.3369 1.97445 15.1808 2.81836C16.0247 3.66227 16.4991 4.80653 16.4991 6L16.4933 6.22266Z"></path>
</symbol>
<symbol viewBox="0 0 24 24" id="dashboard">
<path d="M13.4999 16.125C13.4999 15.9182 13.3317 15.75 13.1249 15.75H10.8749C10.6681 15.75 10.4999 15.9182 10.4999 16.125V20.25H13.4999V16.125ZM20.2499 19.875C20.2499 20.9102 19.4101 21.75 18.3749 21.75H5.62491C4.5897 21.75 3.74991 20.9102 3.74991 19.875V11.5595L2.78018 12.5302C2.48731 12.8232 2.01255 12.8231 1.71964 12.5302C1.42679 12.2374 1.42678 11.7626 1.71964 11.4697L10.6737 2.51462V2.51365C11.4061 1.78294 12.5929 1.78251 13.3251 2.51462L22.2802 11.4697C22.5731 11.7626 22.573 12.2374 22.2802 12.5302C21.9873 12.8231 21.5125 12.8231 21.2196 12.5302L20.2499 11.5605V19.875ZM14.9999 20.25H18.3749C18.5817 20.25 18.7499 20.0818 18.7499 19.875V10.0605L12.2646 3.57517C12.1188 3.42951 11.8809 3.42894 11.7333 3.57615L5.24991 10.0595V19.875C5.24991 20.0818 5.41812 20.25 5.62491 20.25H8.99991V16.125C8.99995 15.0898 9.83972 14.25 10.8749 14.25H13.1249C14.1601 14.25 14.9999 15.0898 14.9999 16.125V20.25Z"></path>
</symbol>
<symbol viewBox="0 0 24 24" id="desktop">
<path d="M14.25 18H9.75V18.2568L9.74512 18.4414C9.72401 18.8709 9.62975 19.2942 9.46484 19.6924C9.38434 19.8867 9.2861 20.0727 9.1748 20.25H14.8252C14.7139 20.0727 14.6157 19.8867 14.5352 19.6924C14.3467 19.2373 14.2499 18.7494 14.25 18.2568V18ZM20.25 14.5938C19.7974 14.8555 19.2819 15 18.75 15H5.25C4.71809 15 4.20263 14.8555 3.75 14.5938V15C3.75 15.3978 3.90815 15.7792 4.18945 16.0605C4.47076 16.3419 4.85218 16.5 5.25 16.5H18.75L18.8984 16.4922C19.2417 16.458 19.5645 16.3066 19.8105 16.0605C20.0919 15.7792 20.25 15.3978 20.25 15V14.5938ZM20.25 5.25C20.25 4.85218 20.0919 4.47076 19.8105 4.18945C19.5292 3.90815 19.1478 3.75 18.75 3.75H5.25C4.85218 3.75 4.47076 3.90815 4.18945 4.18945C3.90815 4.47076 3.75 4.85218 3.75 5.25V12C3.75 12.3978 3.90815 12.7792 4.18945 13.0605C4.47076 13.3419 4.85218 13.5 5.25 13.5H18.75C19.1478 13.5 19.5292 13.3419 19.8105 13.0605C20.0566 12.8145 20.208 12.4917 20.2422 12.1484L20.25 12V5.25ZM21.75 15C21.75 15.7956 21.4337 16.5585 20.8711 17.1211C20.3085 17.6837 19.5456 18 18.75 18H15.75V18.2568L15.7607 18.4775C15.7824 18.6974 15.8361 18.9133 15.9209 19.1182C16.034 19.3912 16.2002 19.6397 16.4092 19.8486L17.0303 20.4697C17.2448 20.6842 17.3094 21.0069 17.1934 21.2871C17.0773 21.5674 16.8033 21.75 16.5 21.75H7.5C7.19665 21.75 6.92273 21.5674 6.80664 21.2871C6.6906 21.0069 6.75525 20.6842 6.96973 20.4697L7.59082 19.8486L7.73926 19.6846C7.87935 19.5139 7.99428 19.3229 8.0791 19.1182C8.19212 18.8452 8.25004 18.5523 8.25 18.2568V18H5.25C4.45435 18 3.69152 17.6837 3.12891 17.1211C2.5663 16.5585 2.25 15.7956 2.25 15V5.25C2.25 4.45435 2.5663 3.69152 3.12891 3.12891C3.69152 2.5663 4.45435 2.25 5.25 2.25H18.75C19.5456 2.25 20.3085 2.5663 20.8711 3.12891C21.4337 3.69152 21.75 4.45435 21.75 5.25V15Z"></path>
</symbol>
<symbol viewBox="0 0 24 24" id="discord">
<path d="M19.27 5.33005C17.94 4.71005 16.5 4.26005 15 4.00005C14.9868 3.99963 14.9738 4.00209 14.9617 4.00728C14.9496 4.01246 14.9388 4.02023 14.93 4.03005C14.75 4.36005 14.54 4.79005 14.4 5.12005C12.809 4.88005 11.191 4.88005 9.6 5.12005C9.46 4.78005 9.25 4.36005 9.06 4.03005C9.05 4.01005 9.02 4.00005 8.99 4.00005C7.49 4.26005 6.06 4.71005 4.72 5.33005C4.71 5.33005 4.7 5.34005 4.69 5.35005C1.97 9.42005 1.22 13.38 1.59 17.3C1.59 17.32 1.6 17.34 1.62 17.35C3.42 18.67 5.15 19.47 6.86 20C6.89 20.01 6.91999 20 6.93 19.98C7.33 19.43 7.69 18.85 8 18.24C8.02 18.2 8 18.16 7.96 18.15C7.39 17.93 6.85 17.67 6.32 17.37C6.28 17.35 6.27999 17.29 6.31 17.26C6.42 17.18 6.52999 17.09 6.64 17.01C6.66 16.99 6.69 16.99 6.71 17C10.15 18.57 13.86 18.57 17.26 17C17.28 16.99 17.31 16.99 17.33 17.01C17.44 17.1 17.55 17.18 17.66 17.27C17.7 17.3 17.7 17.36 17.65 17.38C17.13 17.69 16.58 17.94 16.01 18.16C15.97 18.17 15.96 18.22 15.97 18.25C16.29 18.86 16.65 19.44 17.04 19.99C17.07 20 17.1 20.01 17.13 20C18.85 19.47 20.58 18.67 22.38 17.35C22.4 17.34 22.41 17.32 22.41 17.3C22.85 12.77 21.68 8.84005 19.31 5.35005C19.3 5.34005 19.29 5.33005 19.27 5.33005ZM8.52 14.91C7.49 14.91 6.63 13.96 6.63 12.79C6.63 11.62 7.47 10.67 8.52 10.67C9.58 10.67 10.42 11.63 10.41 12.79C10.41 13.96 9.57 14.91 8.52 14.91ZM15.49 14.91C14.46 14.91 13.6 13.96 13.6 12.79C13.6 11.62 14.44 10.67 15.49 10.67C16.55 10.67 17.39 11.63 17.38 12.79C17.38 13.96 16.55 14.91 15.49 14.91Z"></path>
</symbol>
<symbol viewBox="0 0 24 24" id="download">
<path d="M1.875 18.75V16.5C1.875 15.8787 2.37868 15.375 3 15.375C3.62132 15.375 4.125 15.8787 4.125 16.5V18.75C4.125 19.0484 4.24361 19.3344 4.45459 19.5454C4.66557 19.7564 4.95163 19.875 5.25 19.875H18.75C19.0484 19.875 19.3344 19.7564 19.5454 19.5454C19.7564 19.3344 19.875 19.0484 19.875 18.75V16.5C19.875 15.8787 20.3787 15.375 21 15.375C21.6213 15.375 22.125 15.8787 22.125 16.5V18.75C22.125 19.6451 21.7692 20.5033 21.1362 21.1362C20.5033 21.7692 19.6451 22.125 18.75 22.125H5.25C4.35489 22.125 3.4967 21.7692 2.86377 21.1362C2.23083 20.5033 1.875 19.6451 1.875 18.75ZM10.875 3C10.875 2.37868 11.3787 1.875 12 1.875C12.6213 1.875 13.125 2.37868 13.125 3V13.7842L15.7046 11.2046C16.1439 10.7653 16.8561 10.7653 17.2954 11.2046C17.7348 11.6439 17.7348 12.3561 17.2954 12.7954L12.7954 17.2954C12.3561 17.7348 11.6439 17.7348 11.2046 17.2954L6.70459 12.7954C6.26525 12.3561 6.26525 11.6439 6.70459 11.2046C7.14393 10.7653 7.85607 10.7653 8.29541 11.2046L10.875 13.7842V3Z"></path>
</symbol>
<symbol viewBox="0 0 24 24" id="ellipsis-horizontal">
<path d="M4.5 12C4.5 11.6022 4.65815 11.2208 4.93945 10.9395C5.22076 10.6581 5.60217 10.5 6 10.5C6.39783 10.5 6.77924 10.6581 7.06055 10.9395C7.34185 11.2208 7.5 11.6022 7.5 12C7.5 12.3978 7.34185 12.7792 7.06055 13.0605C6.77924 13.3419 6.39783 13.5 6 13.5C5.60217 13.5 5.22076 13.3419 4.93945 13.0605C4.65815 12.7792 4.5 12.3978 4.5 12ZM10.5 12C10.5 11.6022 10.6581 11.2208 10.9395 10.9395C11.2208 10.6581 11.6022 10.5 12 10.5C12.3978 10.5 12.7792 10.6581 13.0605 10.9395C13.3419 11.2208 13.5 11.6022 13.5 12C13.5 12.3978 13.3419 12.7792 13.0605 13.0605C12.7792 13.3419 12.3978 13.5 12 13.5C11.6022 13.5 11.2208 13.3419 10.9395 13.0605C10.6581 12.7792 10.5 12.3978 10.5 12ZM16.5 12C16.5 11.6022 16.6581 11.2208 16.9395 10.9395C17.2208 10.6581 17.6022 10.5 18 10.5C18.3978 10.5 18.7792 10.6581 19.0605 10.9395C19.3419 11.2208 19.5 11.6022 19.5 12C19.5 12.3978 19.3419 12.7792 19.0605 13.0605C18.7792 13.3419 18.3978 13.5 18 13.5C17.6022 13.5 17.2208 13.3419 16.9395 13.0605C16.6581 12.7792 16.5 12.3978 16.5 12Z"></path>
</symbol>
<symbol viewBox="0 0 24 24" id="email">
<path d="M19 4C20.6396 4 21.9704 5.31528 21.998 6.94824C21.9987 6.9616 21.9989 6.97493 21.999 6.98828C21.999 6.99219 22 6.99609 22 7V17C22 18.6569 20.6569 20 19 20H5C3.34319 19.9999 2 18.6568 2 17V7C2 5.34318 3.34319 4.00006 5 4H19ZM12.5547 13.832C12.2561 14.031 11.877 14.0532 11.5605 13.8984L11.4453 13.832L4 8.86816V17C4 17.5522 4.44776 17.9999 5 18H19C19.5523 18 20 17.5523 20 17V8.86816L12.5547 13.832ZM5 6C4.61367 6.00004 4.27881 6.21931 4.1123 6.54004L12 11.7969L19.8877 6.53906C19.721 6.21877 19.386 6 19 6H5Z"></path>
</symbol>
<symbol viewBox="0 0 24 24" id="export">
<path d="M4.5 19.5V10.5C4.5 9.70435 4.8163 8.94151 5.37891 8.3789C5.94152 7.81629 6.70435 7.49999 7.5 7.49999H9C9.41421 7.49999 9.75 7.83578 9.75 8.24999C9.75 8.66421 9.41421 8.99999 9 8.99999H7.5C7.10218 8.99999 6.72076 9.15814 6.43945 9.43945C6.15815 9.72075 6 10.1022 6 10.5V19.5C6 19.8978 6.15815 20.2792 6.43945 20.5605C6.72076 20.8418 7.10218 21 7.5 21H16.5C16.8978 21 17.2792 20.8418 17.5605 20.5605C17.8419 20.2792 18 19.8978 18 19.5V10.5C18 10.1022 17.8419 9.72075 17.5605 9.43945C17.2792 9.15814 16.8978 8.99999 16.5 8.99999H15C14.5858 8.99999 14.25 8.66421 14.25 8.24999C14.25 7.83578 14.5858 7.49999 15 7.49999H16.5C17.2956 7.49999 18.0585 7.81629 18.6211 8.3789C19.1837 8.94151 19.5 9.70435 19.5 10.5V19.5C19.5 20.2956 19.1837 21.0585 18.6211 21.6211C18.0585 22.1837 17.2956 22.5 16.5 22.5H7.5C6.70435 22.5 5.94152 22.1837 5.37891 21.6211C4.8163 21.0585 4.5 20.2956 4.5 19.5ZM11.25 15V4.06054L9.53027 5.78027C9.23738 6.07316 8.76262 6.07316 8.46973 5.78027C8.17683 5.48737 8.17683 5.01261 8.46973 4.71972L11.4697 1.71972L11.5264 1.66796C11.8209 1.42765 12.2557 1.44512 12.5303 1.71972L15.5303 4.71972C15.8232 5.01261 15.8232 5.48737 15.5303 5.78027C15.2374 6.07316 14.7626 6.07316 14.4697 5.78027L12.75 4.06054V15C12.75 15.4142 12.4142 15.75 12 15.75C11.5858 15.75 11.25 15.4142 11.25 15Z"></path>
</symbol>
<symbol viewBox="0 0 24 24" id="followers">
<path d="M6.7583 11.8564C8.37138 11.4425 10.0774 11.5781 11.6055 12.2402C12.6698 12.7015 13.6052 13.4012 14.3462 14.2764C14.8193 13.8979 15.3558 13.5991 15.937 13.4019C17.0181 13.0351 18.1901 13.0314 19.2739 13.3901C20.3573 13.7489 21.2942 14.4507 21.9429 15.3896C22.5918 16.3291 22.9169 17.4554 22.8687 18.5962C22.851 19.0078 22.6103 19.3773 22.2402 19.5586C20.8035 20.2624 19.2243 20.6255 17.6245 20.6235C16.8391 20.6243 16.0572 20.5362 15.2925 20.3628C13.2615 21.5188 10.9637 22.1272 8.62305 22.1235V22.125C6.08189 22.125 3.70154 21.4206 1.66943 20.1973C1.33455 19.9957 1.1281 19.6345 1.12451 19.2437L1.12305 19.1353V19.125L1.12891 18.8145C1.1926 17.2595 1.73953 15.7593 2.69629 14.5254C3.7166 13.2097 5.14561 12.2704 6.7583 11.8564ZM10.7104 14.3042C9.64082 13.8407 8.44702 13.7464 7.31787 14.0361C6.18881 14.3259 5.18887 14.9841 4.47461 15.9053C3.87012 16.685 3.50148 17.6159 3.40234 18.5903C4.96229 19.4094 6.73697 19.875 8.62305 19.875H8.62451C10.4459 19.8781 12.2367 19.4351 13.8438 18.5918C13.7713 17.8739 13.558 17.1994 13.2271 16.5981L13.2256 16.5967C12.6648 15.5747 11.7801 14.7677 10.7104 14.3042ZM18.5664 15.5259C17.947 15.3209 17.277 15.3235 16.6592 15.5332C16.2363 15.6768 15.8542 15.9129 15.5371 16.2202C15.8016 16.8491 15.983 17.521 16.0674 18.2227C16.5799 18.3205 17.1001 18.3755 17.623 18.375H17.626L18.0962 18.3618C18.9448 18.3143 19.779 18.1321 20.5718 17.8286C20.4953 17.415 20.3347 17.0187 20.0928 16.6685C19.722 16.1317 19.1857 15.7309 18.5664 15.5259ZM19.1245 8.625C19.1245 8.22728 18.9662 7.84574 18.6851 7.56445C18.4039 7.28326 18.0222 7.12512 17.6245 7.125C17.2268 7.125 16.8452 7.28329 16.564 7.56445C16.2827 7.84576 16.1245 8.22718 16.1245 8.625C16.1245 9.02282 16.2827 9.40424 16.564 9.68555C16.8452 9.96671 17.2268 10.125 17.6245 10.125C18.0222 10.1249 18.4039 9.96674 18.6851 9.68555C18.9662 9.40426 19.1245 9.02272 19.1245 8.625ZM10.8745 6.375C10.8745 5.77837 10.6371 5.20611 10.2153 4.78418C9.79348 4.36233 9.22108 4.12512 8.62451 4.125C8.02788 4.125 7.45563 4.36237 7.03369 4.78418C6.61173 5.20614 6.37451 5.77826 6.37451 6.375C6.37451 6.97174 6.61173 7.54386 7.03369 7.96582C7.45563 8.38763 8.02788 8.625 8.62451 8.625C9.22108 8.62488 9.79348 8.38767 10.2153 7.96582C10.6371 7.54389 10.8745 6.97163 10.8745 6.375ZM21.3745 8.625C21.3745 9.61945 20.979 10.5731 20.2759 11.2764C19.5727 11.9795 18.6189 12.3749 17.6245 12.375C16.63 12.375 15.6749 11.9796 14.9717 11.2764C14.2687 10.5732 13.8745 9.61933 13.8745 8.625C13.8745 7.63067 14.2687 6.67685 14.9717 5.97363C15.6749 5.27037 16.63 4.875 17.6245 4.875C18.6189 4.87512 19.5727 5.27048 20.2759 5.97363C20.979 6.67687 21.3745 7.63055 21.3745 8.625ZM13.1245 6.375C13.1245 7.56837 12.6499 8.71275 11.8062 9.55664C10.9623 10.4004 9.81782 10.8749 8.62451 10.875C7.43104 10.875 6.28532 10.4006 5.44141 9.55664C4.59781 8.71277 4.12451 7.56824 4.12451 6.375C4.12451 5.18176 4.59781 4.03723 5.44141 3.19336C6.28532 2.34945 7.43104 1.875 8.62451 1.875C9.81782 1.87512 10.9623 2.34956 11.8062 3.19336C12.6499 4.03725 13.1245 5.18163 13.1245 6.375Z"></path>
</symbol>
<symbol viewBox="0 0 24 24" id="github">
<path d="M12 2C10.6868 2 9.38642 2.25866 8.17317 2.7612C6.95991 3.26375 5.85752 4.00035 4.92893 4.92893C3.05357 6.8043 2 9.34784 2 12C2 16.42 4.87 20.17 8.84 21.5C9.34 21.58 9.5 21.27 9.5 21V19.31C6.73 19.91 6.14 17.97 6.14 17.97C5.68 16.81 5.03 16.5 5.03 16.5C4.12 15.88 5.1 15.9 5.1 15.9C6.1 15.97 6.63 16.93 6.63 16.93C7.5 18.45 8.97 18 9.54 17.76C9.63 17.11 9.89 16.67 10.17 16.42C7.95 16.17 5.62 15.31 5.62 11.5C5.62 10.39 6 9.5 6.65 8.79C6.55 8.54 6.2 7.5 6.75 6.15C6.75 6.15 7.59 5.88 9.5 7.17C10.29 6.95 11.15 6.84 12 6.84C12.85 6.84 13.71 6.95 14.5 7.17C16.41 5.88 17.25 6.15 17.25 6.15C17.8 7.5 17.45 8.54 17.35 8.79C18 9.5 18.38 10.39 18.38 11.5C18.38 15.32 16.04 16.16 13.81 16.41C14.17 16.72 14.5 17.33 14.5 18.26V21C14.5 21.27 14.66 21.59 15.17 21.5C19.14 20.16 22 16.42 22 12C22 10.6868 21.7413 9.38642 21.2388 8.17317C20.7362 6.95991 19.9997 5.85752 19.0711 4.92893C18.1425 4.00035 17.0401 3.26375 15.8268 2.7612C14.6136 2.25866 13.3132 2 12 2Z"></path>
</symbol>
<symbol viewBox="0 0 24 24" id="help">
<path d="M20.25 12C20.25 9.81196 19.3812 7.71319 17.834 6.16602C16.2868 4.61884 14.188 3.75 12 3.75C9.81196 3.75 7.71319 4.61884 6.16602 6.16602C4.61884 7.71319 3.75 9.81196 3.75 12C3.75 13.0834 3.96333 14.1563 4.37793 15.1572C4.79253 16.1581 5.39995 17.0679 6.16602 17.834C6.93209 18.6001 7.84186 19.2075 8.84277 19.6221C9.84371 20.0367 10.9166 20.25 12 20.25C13.0834 20.25 14.1563 20.0367 15.1572 19.6221C16.1581 19.2075 17.0679 18.6001 17.834 17.834C18.6001 17.0679 19.2075 16.1581 19.6221 15.1572C20.0367 14.1563 20.25 13.0834 20.25 12ZM12.0078 16.5C12.422 16.5 12.7578 16.8358 12.7578 17.25V17.2578C12.7578 17.672 12.422 18.0078 12.0078 18.0078H12C11.5858 18.0078 11.25 17.672 11.25 17.2578V17.25C11.25 16.8358 11.5858 16.5 12 16.5H12.0078ZM11.251 14.25V13.5C11.251 12.2218 12.3094 11.3928 13.124 10.998H13.125C13.3084 10.9094 13.4773 10.7992 13.625 10.6689L13.627 10.666C14.4572 9.93985 14.4572 8.81015 13.627 8.08398V8.08301C12.7388 7.30579 11.2612 7.30579 10.373 8.08301C10.0614 8.35583 9.58727 8.32437 9.31445 8.0127C9.04199 7.70113 9.0735 7.22787 9.38477 6.95508C10.8383 5.68274 13.1604 5.68216 14.6143 6.9541C16.1272 8.27731 16.1278 10.469 14.6162 11.793C14.3581 12.0206 14.0737 12.2054 13.7773 12.3486L13.7764 12.3477C13.1018 12.6748 12.751 13.1224 12.751 13.5V14.25C12.751 14.6642 12.4152 15 12.001 15C11.5868 15 11.251 14.6642 11.251 14.25ZM21.75 12C21.75 13.2804 21.4978 14.5485 21.0078 15.7314C20.5178 16.9143 19.7998 17.9892 18.8945 18.8945C17.9892 19.7998 16.9143 20.5178 15.7314 21.0078C14.5485 21.4978 13.2804 21.75 12 21.75C10.7196 21.75 9.45148 21.4978 8.26855 21.0078C7.08573 20.5178 6.01078 19.7998 5.10547 18.8945C4.20016 17.9892 3.48217 16.9143 2.99219 15.7314C2.5022 14.5485 2.25 13.2804 2.25 12C2.25 9.41414 3.27699 6.93395 5.10547 5.10547C6.93395 3.27699 9.41414 2.25 12 2.25C14.5859 2.25 17.0661 3.27699 18.8945 5.10547C20.723 6.93395 21.75 9.41414 21.75 12Z"></path>
</symbol>
<symbol viewBox="0 0 24 24" id="hidden">
<path d="M2.29361 2.29291C2.68415 1.90259 3.31721 1.90246 3.70767 2.29291L6.37955 4.96479C8.09203 4.00363 10.0277 3.49714 12.0006 3.49994C17.2109 3.50013 21.6093 6.96487 23.0241 11.7128C23.0795 11.8992 23.0788 12.0978 23.0231 12.2841C22.3643 14.4888 21.0619 16.4342 19.2985 17.8837L21.7077 20.2929C22.0979 20.6834 22.0979 21.3165 21.7077 21.707C21.3172 22.0974 20.6841 22.0973 20.2936 21.707L2.29361 3.70698C1.90308 3.31645 1.90308 2.68344 2.29361 2.29291ZM3.21744 7.57612C3.57448 7.15505 4.20534 7.10304 4.62662 7.45991C5.04799 7.81693 5.09985 8.44771 4.74283 8.86909C3.96093 9.79192 3.36563 10.8561 2.98404 12.0019C4.24182 15.779 7.80487 18.4999 12.0006 18.4999C12.9004 18.4999 13.7688 18.3748 14.5915 18.1425C15.1229 17.9925 15.6757 18.3015 15.8258 18.833C15.9759 19.3643 15.6667 19.9171 15.1354 20.0673C14.1383 20.3489 13.0866 20.4999 12.0006 20.4999C6.79018 20.4999 2.391 17.0353 0.976225 12.2851C0.920749 12.0987 0.920622 11.9002 0.976225 11.7138C1.42955 10.1947 2.19265 8.78562 3.21744 7.57612ZM14.0006 12.0009C14.0006 11.7383 13.9488 11.4779 13.8483 11.2353C13.7478 10.9926 13.6004 10.7716 13.4147 10.5859C13.229 10.4003 13.0088 10.2528 12.7663 10.1523C12.5236 10.0518 12.2633 9.99995 12.0006 9.99995C11.8257 9.99995 11.6523 10.0243 11.484 10.0693L13.9303 12.5156C13.9751 12.3478 14.0006 12.1753 14.0006 12.0009ZM16.0006 12.0009C16.0006 12.526 15.8978 13.0461 15.6969 13.5312C15.6253 13.704 15.5405 13.8708 15.446 14.0312L17.8776 16.4628C19.3344 15.3146 20.4253 13.7627 21.0143 11.996C19.7565 8.22112 16.196 5.50012 12.0006 5.49994H11.9987C10.5604 5.49776 9.14653 5.82449 7.86197 6.44721L9.96939 8.55463C10.1299 8.46002 10.2975 8.37625 10.4704 8.30463C10.9556 8.10373 11.4755 7.99996 12.0006 7.99995C12.526 7.99995 13.0466 8.1036 13.5319 8.30463C14.0171 8.50566 14.4583 8.80043 14.8297 9.17182C15.2011 9.54324 15.4959 9.98442 15.6969 10.4697C15.8979 10.9549 16.0006 11.4757 16.0006 12.0009Z"></path>
</symbol>
<symbol viewBox="0 0 24 24" id="info">
<path d="M20.25 12C20.25 7.44365 16.5563 3.75 12 3.75C7.44365 3.75 3.75 7.44365 3.75 12C3.75 16.5563 7.44365 20.25 12 20.25C16.5563 20.25 20.25 16.5563 20.25 12ZM10.9556 10.5586C12.1017 9.98552 13.3931 11.0205 13.0825 12.2637L12.3735 15.0996L12.4146 15.0791C12.785 14.8939 13.2357 15.0441 13.4209 15.4146C13.6061 15.785 13.4559 16.2357 13.0854 16.4209L13.0444 16.4414C11.8983 17.0145 10.6069 15.9795 10.9175 14.7363L11.6265 11.9004L11.5854 11.9209C11.215 12.1061 10.7643 11.9559 10.5791 11.5854C10.3939 11.215 10.5441 10.7643 10.9146 10.5791L10.9556 10.5586ZM12.0073 7.5C12.4215 7.5 12.7573 7.83579 12.7573 8.25V8.25732C12.7573 8.67154 12.4215 9.00732 12.0073 9.00732H12C11.5858 9.00732 11.25 8.67154 11.25 8.25732V8.25C11.25 7.83579 11.5858 7.5 12 7.5H12.0073ZM21.75 12C21.75 17.3848 17.3848 21.75 12 21.75C6.61522 21.75 2.25 17.3848 2.25 12C2.25 6.61522 6.61522 2.25 12 2.25C17.3848 2.25 21.75 6.61522 21.75 12Z"></path>
</symbol>
<symbol viewBox="0 0 24 24" id="item-closed">
<path d="M20.25 12C20.25 9.81196 19.3812 7.71319 17.834 6.16602C16.2868 4.61884 14.188 3.75 12 3.75C9.81196 3.75 7.71319 4.61884 6.16602 6.16602C4.61884 7.71319 3.75 9.81196 3.75 12C3.75 13.0834 3.96333 14.1563 4.37793 15.1572C4.79253 16.1581 5.39995 17.0679 6.16602 17.834C6.93209 18.6001 7.84186 19.2075 8.84277 19.6221C9.84371 20.0367 10.9166 20.25 12 20.25C13.0834 20.25 14.1563 20.0367 15.1572 19.6221C16.1581 19.2075 17.0679 18.6001 17.834 17.834C18.6001 17.0679 19.2075 16.1581 19.6221 15.1572C20.0367 14.1563 20.25 13.0834 20.25 12ZM14.3896 9.31445C14.6303 8.97749 15.0985 8.89913 15.4355 9.13965C15.7725 9.38034 15.8509 9.84851 15.6104 10.1855L11.8604 15.4355C11.7322 15.6149 11.5312 15.7289 11.3115 15.7471C11.0919 15.7652 10.8755 15.6861 10.7197 15.5303L8.46973 13.2803C8.17683 12.9874 8.17683 12.5126 8.46973 12.2197C8.76262 11.9268 9.23738 11.9268 9.53027 12.2197L11.1543 13.8438L14.3896 9.31445ZM21.75 12C21.75 13.2804 21.4978 14.5485 21.0078 15.7314C20.5178 16.9143 19.7998 17.9892 18.8945 18.8945C17.9892 19.7998 16.9143 20.5178 15.7314 21.0078C14.5485 21.4978 13.2804 21.75 12 21.75C10.7196 21.75 9.45148 21.4978 8.26855 21.0078C7.08573 20.5178 6.01078 19.7998 5.10547 18.8945C4.20016 17.9892 3.48217 16.9143 2.99219 15.7314C2.5022 14.5485 2.25 13.2804 2.25 12C2.25 9.41414 3.27699 6.93395 5.10547 5.10547C6.93395 3.27699 9.41414 2.25 12 2.25C14.5859 2.25 17.0661 3.27699 18.8945 5.10547C20.723 6.93395 21.75 9.41414 21.75 12Z"></path>
</symbol>
<symbol viewBox="0 0 24 24" id="item-open">
<path d="M20.25 12C20.25 9.81196 19.3812 7.71319 17.834 6.16602C16.2868 4.61884 14.188 3.75 12 3.75C9.81196 3.75 7.71319 4.61884 6.16602 6.16602C4.61884 7.71319 3.75 9.81196 3.75 12C3.75 13.0834 3.96333 14.1563 4.37793 15.1572C4.79253 16.1581 5.39995 17.0679 6.16602 17.834C6.93209 18.6001 7.84186 19.2075 8.84277 19.6221C9.84371 20.0367 10.9166 20.25 12 20.25C13.0834 20.25 14.1563 20.0367 15.1572 19.6221C16.1581 19.2075 17.0679 18.6001 17.834 17.834C18.6001 17.0679 19.2075 16.1581 19.6221 15.1572C20.0367 14.1563 20.25 13.0834 20.25 12ZM21.75 12C21.75 13.2804 21.4978 14.5485 21.0078 15.7314C20.5178 16.9143 19.7998 17.9892 18.8945 18.8945C17.9892 19.7998 16.9143 20.5178 15.7314 21.0078C14.5485 21.4978 13.2804 21.75 12 21.75C10.7196 21.75 9.45148 21.4978 8.26855 21.0078C7.08573 20.5178 6.01078 19.7998 5.10547 18.8945C4.20016 17.9892 3.48217 16.9143 2.99219 15.7314C2.5022 14.5485 2.25 13.2804 2.25 12C2.25 9.41414 3.27699 6.93395 5.10547 5.10547C6.93395 3.27699 9.41414 2.25 12 2.25C14.5859 2.25 17.0661 3.27699 18.8945 5.10547C20.723 6.93395 21.75 9.41414 21.75 12Z"></path>
<circle cx="12" cy="12" r="3" fill="#3ED68C"></circle>
</symbol>
<symbol viewBox="0 0 24 24" id="key">
<path d="M21.3214 8.25004C21.3207 7.47853 21.1597 6.7156 20.8488 6.00953C20.5377 5.30336 20.0833 4.6693 19.5145 4.14792C18.9456 3.62653 18.2746 3.229 17.5441 2.98051C16.8136 2.73204 16.0394 2.63789 15.2706 2.70428C14.5019 2.77069 13.7552 2.99608 13.0781 3.36611C12.401 3.7362 11.8081 4.24317 11.337 4.85439C10.866 5.4656 10.5268 6.16784 10.3415 6.91689C10.1562 7.66597 10.1284 8.44561 10.26 9.20596H10.2606C10.3747 9.8683 10.2377 10.6183 9.71092 11.1451L3.21148 17.6446C2.87054 17.9848 2.67855 18.4485 2.67855 18.932V21.3215H5.57141V19.5C5.57141 19.2633 5.76329 19.0715 5.99998 19.0715H7.82141V17.25C7.82141 17.0133 8.01329 16.8215 8.24998 16.8215H10.3225L12.8549 14.2891C13.3816 13.7624 14.1312 13.6254 14.7935 13.7394H14.7946C15.5951 13.8788 16.4164 13.8417 17.2009 13.6301C17.9854 13.4184 18.7141 13.0375 19.3359 12.5145C19.9578 11.9915 20.4578 11.3388 20.8008 10.6022C21.1008 9.95757 21.2744 9.26226 21.313 8.55417L21.3214 8.25004ZM18.3214 8.25004C18.3214 7.56806 18.0503 6.91364 17.5681 6.4314C17.0858 5.94929 16.4319 5.67861 15.75 5.67861C15.5133 5.67861 15.3215 5.48667 15.3214 5.25004C15.3214 5.01335 15.5133 4.82147 15.75 4.82147C16.6592 4.82147 17.5311 5.18252 18.1741 5.82538C18.8171 6.46836 19.1786 7.34073 19.1786 8.25004C19.1785 8.48667 18.9866 8.67861 18.75 8.67861C18.5133 8.67861 18.3215 8.48667 18.3214 8.25004ZM22.1763 8.42526C22.1525 9.30278 21.9491 10.1668 21.5781 10.9638C21.1824 11.8138 20.6054 12.5673 19.8878 13.1708C19.1703 13.7742 18.3293 14.2135 17.4241 14.4576C16.5189 14.7018 15.571 14.7451 14.6473 14.5843V14.5837C14.184 14.5042 13.7419 14.6141 13.4609 14.8951L10.803 17.5531C10.7226 17.6334 10.6136 17.6786 10.5 17.6786H8.67855V19.5C8.67848 19.7367 8.48663 19.9286 8.24998 19.9286H6.42855V21.75C6.42847 21.9867 6.23663 22.1786 5.99998 22.1786H2.24998C2.01334 22.1786 1.82149 21.9867 1.82141 21.75V18.932C1.82141 18.2216 2.10365 17.5392 2.60657 17.0374L9.10489 10.5391C9.38598 10.258 9.49544 9.81564 9.41572 9.35216L9.38949 9.18754C9.26855 8.3626 9.30896 7.52137 9.50947 6.71098C9.72332 5.84668 10.1144 5.0362 10.6579 4.33096C11.2014 3.6257 11.8855 3.0409 12.6668 2.61388C13.4481 2.18687 14.3099 1.92711 15.197 1.85049C16.084 1.7739 16.9774 1.88243 17.8203 2.16913C18.6631 2.45584 19.4374 2.91415 20.0937 3.51567C20.7501 4.11724 21.2745 4.84876 21.6334 5.66355C21.9922 6.47837 22.1778 7.35912 22.1786 8.24948V8.25004L22.1763 8.42526Z"></path>
</symbol>
<symbol viewBox="0 0 24 24" id="library">
<path d="M19.5 6C19.5 5.60218 19.3419 5.22076 19.0605 4.93945C18.7792 4.65815 18.3978 4.5 18 4.5H17.25V16.5C17.25 16.7598 17.1155 17.001 16.8945 17.1377C16.6735 17.2743 16.3974 17.2869 16.165 17.1709L12 15.0879L7.83496 17.1709C7.60255 17.2869 7.32646 17.2743 7.10547 17.1377C6.88453 17.001 6.75 16.7598 6.75 16.5V4.5H6C5.60218 4.5 5.22076 4.65815 4.93945 4.93945C4.65815 5.22076 4.5 5.60218 4.5 6V18C4.5 18.3978 4.65815 18.7792 4.93945 19.0605C5.22076 19.3419 5.60218 19.5 6 19.5H18C18.3978 19.5 18.7792 19.3419 19.0605 19.0605C19.3419 18.7792 19.5 18.3978 19.5 18V6ZM8.25 15.2861L11.665 13.5791L11.7451 13.5449C11.937 13.4755 12.1502 13.4868 12.335 13.5791L15.75 15.2861V4.5H8.25V15.2861ZM21 18C21 18.7956 20.6837 19.5585 20.1211 20.1211C19.5585 20.6837 18.7956 21 18 21H6C5.20435 21 4.44152 20.6837 3.87891 20.1211C3.3163 19.5585 3 18.7956 3 18V6C3 5.20435 3.3163 4.44152 3.87891 3.87891C4.44152 3.3163 5.20435 3 6 3H18C18.7956 3 19.5585 3.3163 20.1211 3.87891C20.6837 4.44152 21 5.20435 21 6V18Z"></path>
</symbol>
<symbol viewBox="0 0 24 24" id="link">
<path d="M12.1743 8.20312C12.442 7.64254 13.1137 7.4054 13.6743 7.67285C14.4866 8.06066 15.1938 8.63809 15.7368 9.35596C16.2797 10.0737 16.6438 10.9108 16.7959 11.7979C16.948 12.6849 16.8841 13.5959 16.6113 14.4536C16.3385 15.3114 15.8638 16.0923 15.2271 16.7285L15.2256 16.7271L10.7271 21.2271C9.67215 22.2819 8.24185 22.875 6.75 22.875C5.25816 22.875 3.82784 22.2819 2.77295 21.2271C1.71807 20.1722 1.125 18.7418 1.125 17.25C1.12501 15.7582 1.71806 14.3278 2.77295 13.2729L4.5293 11.5151C4.96851 11.076 5.68077 11.0762 6.12012 11.5151C6.55943 11.9544 6.55938 12.6666 6.12012 13.106L4.36377 14.8638C3.73084 15.4967 3.37501 16.3549 3.375 17.25C3.375 18.1451 3.73085 19.0033 4.36377 19.6362C4.9967 20.2692 5.8549 20.625 6.75 20.625C7.64511 20.625 8.50329 20.2692 9.13623 19.6362L13.6362 15.1362C14.0181 14.7546 14.3031 14.2869 14.4668 13.7725C14.6305 13.2579 14.6693 12.711 14.5781 12.1787C14.4869 11.6464 14.2682 11.1431 13.9424 10.7124C13.6166 10.2819 13.1917 9.93571 12.7046 9.70312C12.1444 9.43523 11.9067 8.7636 12.1743 8.20312ZM20.625 6.75C20.625 5.8549 20.2692 4.9967 19.6362 4.36377C19.0033 3.73085 18.1451 3.375 17.25 3.375C16.3549 3.37501 15.4967 3.73084 14.8638 4.36377L10.3638 8.86377C9.9819 9.24536 9.69695 9.71313 9.5332 10.2275C9.36952 10.7421 9.33067 11.2891 9.42188 11.8213C9.51314 12.3536 9.73182 12.8569 10.0576 13.2876C10.3834 13.7181 10.8082 14.0643 11.2954 14.2969C11.8557 14.5647 12.0932 15.2364 11.8257 15.7969C11.558 16.3575 10.8863 16.5947 10.3257 16.3271C9.5134 15.9393 8.80618 15.3619 8.26318 14.644C7.72026 13.9263 7.35624 13.0892 7.2041 12.2021C7.05201 11.3151 7.1159 10.4041 7.38867 9.54639C7.66148 8.68875 8.13639 7.90915 8.77295 7.27295L13.2729 2.77295C14.3278 1.71806 15.7582 1.12501 17.25 1.125C18.7418 1.125 20.1722 1.71807 21.2271 2.77295C22.2819 3.82784 22.875 5.25816 22.875 6.75C22.875 8.24185 22.2819 9.67215 21.2271 10.7271L19.4707 12.4849C19.0315 12.924 18.3192 12.9238 17.8799 12.4849C17.4406 12.0455 17.4406 11.3334 17.8799 10.894L19.6362 9.13623C20.2692 8.50329 20.625 7.64511 20.625 6.75Z"></path>
</symbol>
<symbol viewBox="0 0 24 24" id="linkedin">
<path d="M19 3C19.5304 3 20.0391 3.21071 20.4142 3.58579C20.7893 3.96086 21 4.46957 21 5V19C21 19.5304 20.7893 20.0391 20.4142 20.4142C20.0391 20.7893 19.5304 21 19 21H5C4.46957 21 3.96086 20.7893 3.58579 20.4142C3.21071 20.0391 3 19.5304 3 19V5C3 4.46957 3.21071 3.96086 3.58579 3.58579C3.96086 3.21071 4.46957 3 5 3H19ZM18.5 18.5V13.2C18.5 12.3354 18.1565 11.5062 17.5452 10.8948C16.9338 10.2835 16.1046 9.94 15.24 9.94C14.39 9.94 13.4 10.46 12.92 11.24V10.13H10.13V18.5H12.92V13.57C12.92 12.8 13.54 12.17 14.31 12.17C14.6813 12.17 15.0374 12.3175 15.2999 12.5801C15.5625 12.8426 15.71 13.1987 15.71 13.57V18.5H18.5ZM6.88 8.56C7.32556 8.56 7.75288 8.383 8.06794 8.06794C8.383 7.75288 8.56 7.32556 8.56 6.88C8.56 5.95 7.81 5.19 6.88 5.19C6.43178 5.19 6.00193 5.36805 5.68499 5.68499C5.36805 6.00193 5.19 6.43178 5.19 6.88C5.19 7.81 5.95 8.56 6.88 8.56ZM8.27 18.5V10.13H5.5V18.5H8.27Z"></path>
</symbol>
<symbol viewBox="0 0 24 24" id="location">
<path d="M13.875 10.5C13.875 10.0027 13.6773 9.52595 13.3257 9.17432C12.9741 8.82269 12.4973 8.625 12 8.625C11.5027 8.625 11.0259 8.82269 10.6743 9.17432C10.3227 9.52595 10.125 10.0027 10.125 10.5C10.125 10.9973 10.3227 11.4741 10.6743 11.8257C11.0259 12.1773 11.5027 12.375 12 12.375C12.4973 12.375 12.9741 12.1773 13.3257 11.8257C13.6773 11.4741 13.875 10.9973 13.875 10.5ZM16.125 10.5C16.125 11.594 15.6901 12.6429 14.9165 13.4165C14.1429 14.1901 13.094 14.625 12 14.625C10.906 14.625 9.85708 14.1901 9.0835 13.4165C8.30991 12.6429 7.875 11.594 7.875 10.5C7.875 9.40598 8.30991 8.35708 9.0835 7.5835C9.85708 6.80991 10.906 6.375 12 6.375C13.094 6.375 14.1429 6.80991 14.9165 7.5835C15.6901 8.35708 16.125 9.40598 16.125 10.5Z"></path>
<path d="M12.5405 22.7373C12.2039 22.9216 11.7961 22.9216 11.4595 22.7373L12 21.75L12.5405 22.7373ZM18.375 10.5C18.375 8.80924 17.7029 7.18822 16.5073 5.99268C15.3118 4.79713 13.6908 4.125 12 4.125C10.3092 4.125 8.68822 4.79713 7.49268 5.99268C6.29713 7.18822 5.625 8.80924 5.625 10.5C5.625 13.6583 7.28293 16.204 9.0542 18.0176C9.93259 18.9169 10.815 19.6094 11.4771 20.0771C11.6732 20.2157 11.8502 20.3329 12 20.4302C12.1498 20.3329 12.3268 20.2157 12.5229 20.0771C13.185 19.6094 14.0674 18.9169 14.9458 18.0176C16.7171 16.204 18.375 13.6583 18.375 10.5ZM20.625 10.5C20.625 14.4836 18.5329 17.5634 16.5542 19.5894C15.5579 20.6094 14.5649 21.3899 13.8208 21.9155C13.448 22.1788 13.1354 22.3804 12.9126 22.5176C12.8013 22.5861 12.712 22.6392 12.6489 22.6758C12.6177 22.6939 12.5923 22.7081 12.5742 22.7183C12.5656 22.7231 12.5577 22.727 12.5522 22.73C12.5496 22.7315 12.5467 22.7334 12.5449 22.7344L12.542 22.7358H12.5405C12.5365 22.7294 12.4939 22.6518 12 21.75C11.5061 22.6518 11.4635 22.7294 11.4595 22.7358H11.458L11.4551 22.7344C11.4533 22.7334 11.4504 22.7315 11.4478 22.73C11.4423 22.727 11.4344 22.7231 11.4258 22.7183C11.4077 22.7081 11.3823 22.6939 11.3511 22.6758C11.288 22.6392 11.1987 22.5861 11.0874 22.5176C10.8646 22.3804 10.552 22.1788 10.1792 21.9155C9.43513 21.3899 8.44214 20.6094 7.4458 19.5894C5.46711 17.5634 3.375 14.4836 3.375 10.5C3.375 8.21251 4.28435 6.01936 5.90186 4.40186C7.51936 2.78435 9.71251 1.875 12 1.875C14.2875 1.875 16.4806 2.78435 18.0981 4.40186C19.7156 6.01936 20.625 8.21251 20.625 10.5Z"></path>
</symbol>
<symbol viewBox="0 0 24 24" id="marketing">
<path d="M18.5371 2.29589C18.926 2.15358 19.3566 2.35331 19.499 2.74218C19.6393 3.12557 19.7707 3.5124 19.8916 3.90233L20.0918 4.58397C20.5099 6.0829 20.7833 7.61848 20.9121 9.16991C21.4296 9.70847 21.75 10.4422 21.75 11.25C21.75 12.0575 21.4293 12.7906 20.9121 13.3291C20.7638 15.1168 20.4233 16.8838 19.8916 18.5976C19.7697 18.9901 19.6387 19.3757 19.5 19.7568C19.3583 20.1459 18.9272 20.3467 18.5381 20.2051C18.149 20.0633 17.9482 19.6323 18.0898 19.2432C18.1483 19.0825 18.2046 18.9214 18.2598 18.7598C16.0879 17.7222 13.7684 17.0298 11.3848 16.709C11.5677 17.2569 11.774 17.7937 12.0088 18.3154L12.0752 18.4814C12.3643 19.3225 12.0638 20.3079 11.2363 20.7842L11.2354 20.7832L10.5801 21.1631V21.1641C9.67233 21.6879 8.46101 21.3715 7.99707 20.3672V20.3682C7.41127 19.1008 6.95077 17.7794 6.62012 16.4238C5.55432 16.2426 4.56268 15.7365 3.78809 14.9619C2.80352 13.9773 2.25 12.6424 2.25 11.25C2.25 9.8576 2.80352 8.52264 3.78809 7.53807C4.77265 6.55351 6.10761 5.99999 7.5 5.99999H8.25C8.93258 5.99999 9.6087 5.97112 10.2744 5.91307H10.2764C13.0485 5.67546 15.7524 4.93715 18.2598 3.73925C18.2049 3.57827 18.1493 3.41754 18.0908 3.2578C17.9485 2.86889 18.1483 2.4383 18.5371 2.29589ZM8.18848 16.5C8.48551 17.6102 8.87571 18.694 9.3584 19.7383C9.42845 19.8899 9.63583 19.9764 9.83008 19.8642L10.4863 19.4844H10.4883C10.6311 19.4021 10.7181 19.2131 10.6699 19.0156L10.6406 18.9307C10.2952 18.1631 10.0008 17.3671 9.75977 16.5478C9.26117 16.5158 8.75736 16.5 8.25 16.5H8.18848ZM18.7002 5.18944C16.2509 6.33185 13.6301 7.0635 10.9414 7.3535C10.6527 8.60549 10.5 9.90944 10.5 11.25V11.251C10.4989 12.5622 10.6472 13.8688 10.9414 15.1455C13.63 15.4355 16.251 16.1673 18.7002 17.3096C19.086 15.8762 19.3354 14.4088 19.4404 12.9267L19.4854 12.0889C19.5052 11.5298 19.5052 10.9702 19.4854 10.4111L19.4404 9.57323C19.3354 8.09087 19.0862 6.62311 18.7002 5.18944ZM3.75 11.25C3.75 12.2446 4.14537 13.1981 4.84863 13.9014C5.55189 14.6046 6.50544 15 7.5 15H8.25C8.62898 15 9.00645 15.0085 9.38184 15.0254C9.12804 13.7835 8.99892 12.5183 9 11.249C9.00007 9.95639 9.13241 8.69404 9.38184 7.47362C9.00644 7.49052 8.629 7.49999 8.25 7.49999H7.5C6.50544 7.49999 5.55189 7.89536 4.84863 8.59862C4.14537 9.30188 3.75 10.2554 3.75 11.25Z"></path>
</symbol>
<symbol viewBox="0 0 24 24" id="marketplace">
<path d="M18.6212 2.57153L18.7172 2.57377C19.1934 2.59785 19.6453 2.79792 19.9839 3.13682L21.1737 4.326C21.5456 4.69782 21.8276 5.15055 21.9968 5.64854C22.1658 6.14652 22.2183 6.67679 22.1497 7.19821C22.081 7.71969 21.8933 8.21846 21.6011 8.6558C21.3561 9.02254 21.042 9.33649 20.6787 9.58381V20.5715H21.6402C21.8768 20.5716 22.0687 20.7635 22.0687 21.0001C22.0687 21.2367 21.8768 21.4286 21.6402 21.4287H2.36003C2.12334 21.4287 1.93146 21.2368 1.93146 21.0001C1.93146 20.7634 2.12334 20.5715 2.36003 20.5715H3.32153V9.58381C2.95868 9.33606 2.64543 9.0215 2.40077 8.65468C2.10915 8.21741 1.9219 7.71876 1.85334 7.19765C1.78481 6.67662 1.83657 6.14685 2.00512 5.6491C2.17372 5.15128 2.4549 4.69821 2.82599 4.326L4.01517 3.13571C4.37669 2.77452 4.86685 2.57165 5.37789 2.57153H18.6212ZM17.5715 13.5001C17.5715 13.4149 17.5375 13.3333 17.4772 13.273C17.417 13.2127 17.3353 13.1787 17.2501 13.1787H14.2501C14.1649 13.1787 14.0833 13.2127 14.023 13.273C13.9627 13.3333 13.9287 13.4149 13.9287 13.5001V20.5715H17.5715V13.5001ZM10.8215 13.5001C10.8215 13.4149 10.7875 13.3333 10.7272 13.273C10.667 13.2127 10.5853 13.1787 10.5001 13.1787H6.7501C6.66488 13.1787 6.58326 13.2127 6.52298 13.273C6.4627 13.3333 6.42867 13.4149 6.42867 13.5001V17.2501C6.42867 17.4274 6.57279 17.5715 6.7501 17.5715H10.5001C10.5853 17.5715 10.667 17.5375 10.7272 17.4772C10.7875 17.417 10.8215 17.3353 10.8215 17.2501V13.5001ZM5.37789 3.42868C5.09405 3.42879 4.82199 3.54167 4.62119 3.74229L3.43258 4.93147C3.15415 5.21073 2.94356 5.5507 2.81706 5.92421C2.69063 6.29766 2.65124 6.69514 2.70267 7.08604C2.75411 7.47702 2.89514 7.85115 3.11394 8.17923C3.3325 8.50687 3.62317 8.78014 3.96383 8.97778C4.47812 9.27433 5.07944 9.3841 5.66528 9.28805C6.25116 9.19197 6.78601 8.89576 7.17867 8.45044L7.21048 8.41807C7.28912 8.34602 7.39235 8.30533 7.5001 8.30535C7.62314 8.30542 7.74022 8.35866 7.82153 8.451C8.06243 8.72482 8.35913 8.9443 8.69151 9.09441C9.02393 9.24452 9.3848 9.32188 9.74954 9.32153L9.89296 9.31763C10.603 9.27875 11.236 8.95189 11.6787 8.45044C11.7601 8.35826 11.8771 8.30532 12.0001 8.30535C12.1231 8.30546 12.2403 8.35869 12.3215 8.451C12.5624 8.72482 12.8591 8.9443 13.1915 9.09441C13.5239 9.24452 13.8848 9.32188 14.2495 9.32153L14.393 9.31763C15.1031 9.27875 15.7359 8.95171 16.1787 8.451C16.26 8.35897 16.3773 8.30644 16.5001 8.30647C16.623 8.30653 16.7402 8.35941 16.8215 8.45156C17.2143 8.8967 17.7491 9.19213 18.3349 9.28805C18.9207 9.38393 19.5216 9.27443 20.0358 8.97778L20.1614 8.90022C20.449 8.71134 20.6967 8.46675 20.8885 8.17979C21.1076 7.85185 21.2483 7.47764 21.2998 7.0866C21.3512 6.69553 21.3116 6.2977 21.1848 5.92421C21.0579 5.55068 20.8472 5.21091 20.5682 4.93202L19.3779 3.74341C19.2023 3.56759 18.9718 3.45885 18.7267 3.43426L18.6206 3.42868H5.37789ZM11.6787 17.2501C11.6787 17.5627 11.5542 17.8622 11.3332 18.0833C11.1122 18.3043 10.8126 18.4287 10.5001 18.4287H6.7501C6.09941 18.4287 5.57153 17.9008 5.57153 17.2501V13.5001C5.57153 13.1876 5.69551 12.888 5.91639 12.667C6.13742 12.4459 6.43752 12.3215 6.7501 12.3215H10.5001C10.8126 12.3216 11.1122 12.446 11.3332 12.667C11.5542 12.888 11.6787 13.1876 11.6787 13.5001V17.2501ZM18.4287 20.5715H19.8215V10.0068C19.301 10.178 18.7435 10.2237 18.196 10.134C17.5643 10.0306 16.9774 9.75295 16.499 9.3366C15.8972 9.85977 15.1112 10.1781 14.2501 10.1781C13.7635 10.1785 13.2823 10.0759 12.8388 9.87566C12.5332 9.73765 12.2511 9.55477 11.9995 9.33548C11.3976 9.85958 10.6114 10.1781 9.7501 10.1781C9.26353 10.1785 8.78229 10.0759 8.33883 9.87566C8.03344 9.73776 7.75151 9.5551 7.5001 9.33604C7.02192 9.75217 6.43557 10.0299 5.80423 10.1335C5.25669 10.2233 4.69931 10.1779 4.17867 10.0068V20.5715H13.0715V13.5001C13.0715 13.1876 13.1955 12.888 13.4164 12.667C13.6374 12.4459 13.9375 12.3215 14.2501 12.3215H17.2501C17.5626 12.3216 17.8622 12.446 18.0832 12.667C18.3042 12.888 18.4287 13.1876 18.4287 13.5001V20.5715Z"></path>
</symbol>
<symbol viewBox="0 0 24 24" id="moon">
<path d="M7.5 5.99992C7.5 5.23578 7.58305 4.49071 7.73828 3.77238C6.76227 4.427 5.9187 5.26933 5.26074 6.25675C4.27548 7.73547 3.74985 9.47302 3.75 11.2499L3.76172 11.7128C4.0026 16.4685 7.93444 20.2499 12.75 20.2499C14.5269 20.2501 16.2644 19.7244 17.7432 18.7392C18.7309 18.081 19.5718 17.2361 20.2266 16.2597C19.4965 16.4177 18.7506 16.4999 18 16.4989V16.4999C12.2008 16.4999 7.5 11.7991 7.5 5.99992ZM9 5.99992C9 10.9707 13.0292 14.9999 18 14.9999H18.001C19.1895 15.0015 20.3668 14.7667 21.4639 14.3095C21.7443 14.1928 22.0674 14.2568 22.2822 14.4716C22.4971 14.6866 22.5614 15.0104 22.4443 15.2909C21.6462 17.204 20.2993 18.8378 18.5742 19.9872C16.9569 21.0648 15.0748 21.6717 13.1377 21.7431L12.75 21.7499C6.95079 21.7499 2.25 17.0491 2.25 11.2499C2.24984 9.17707 2.86336 7.15072 4.0127 5.4257C5.16209 3.70065 6.7959 2.35369 8.70898 1.55558C8.98959 1.43852 9.31334 1.50269 9.52832 1.71769C9.7433 1.9327 9.80753 2.25643 9.69043 2.53703C9.24599 3.60206 9.00001 4.77083 9 5.99992Z"></path>
</symbol>
<symbol viewBox="0 0 24 24" id="package">
<path d="M11.5098 2.12988C11.8097 1.94994 12.1998 1.95004 12.5098 2.12988L20.4297 6.58496C20.6116 6.66915 20.7708 6.80925 20.8799 7C20.9937 7.20226 21.0307 7.42759 21 7.6416V16.5C20.99 16.8599 20.8001 17.1901 20.4902 17.3701L12.4902 21.8701C12.3451 21.9524 12.1779 22 12 22C11.7934 22 11.6032 21.9389 11.4453 21.834L3.50977 17.3701C3.18987 17.1901 3 16.8599 3 16.5V7.5C3.00003 7.21298 3.11474 6.95042 3.31543 6.76758C3.40343 6.6817 3.50602 6.61574 3.61621 6.56934L11.5098 2.12988ZM5 15.9199L11 19.2891V12.5811L5 9.20605V15.9199ZM13 12.5938V19.2891L19 15.9199V9.21875L13 12.5938ZM6.0459 7.49219L12.0098 10.8467L17.9639 7.49805L12 4.15039L6.0459 7.49219Z"></path>
</symbol>
<symbol viewBox="0 0 24 24" id="pencil">
<path d="M13.793 4.79248C15.288 3.29759 17.712 3.29759 19.207 4.79248C20.6506 6.23602 20.7004 8.54606 19.3564 10.0493L19.207 10.2065L8.70703 20.7065C8.55086 20.8627 8.34837 20.9619 8.13184 20.9907L8 20.9995H4C3.48726 20.9995 3.06472 20.6139 3.00684 20.1167L3 19.9995V15.9995C3.00007 15.7787 3.0733 15.5655 3.20605 15.3921L3.29297 15.2925L13.793 4.79248ZM5 16.4136V18.9985H7.58496L16.085 10.4985L13.5 7.91357L5 16.4136ZM17.793 6.20654C17.1186 5.53236 16.0484 5.49496 15.3301 6.09424L15.207 6.20654L14.9141 6.49951L17.499 9.08447L17.793 8.79248C18.4672 8.1181 18.5047 7.04788 17.9053 6.32959L17.793 6.20654Z"></path>
</symbol>
<symbol viewBox="0 0 24 24" id="sales">
<path d="M2.24902 18C7.65108 17.9956 13.03 18.7108 18.2432 20.127H18.2441C18.5075 20.1987 18.75 20.0006 18.75 19.7549V18.75C18.75 18.3358 19.0858 18 19.5 18C19.9142 18 20.25 18.3358 20.25 18.75V19.7549C20.25 21.017 19.041 21.8981 17.8506 21.5742V21.5752C12.766 20.1939 7.51984 19.4957 2.25098 19.5C1.83689 19.5003 1.50054 19.165 1.5 18.751C1.49966 18.3369 1.83498 18.0005 2.24902 18ZM20.625 3.75C21.6602 3.75 22.5 4.58979 22.5 5.625V15.375C22.5 16.4102 21.6602 17.25 20.625 17.25H3.375C2.87772 17.25 2.40046 17.0528 2.04883 16.7012C1.6972 16.3495 1.5 15.8723 1.5 15.375V5.625C1.5 4.58979 2.33979 3.75 3.375 3.75H20.625ZM4.5 5.25C4.5 5.64782 4.34185 6.02924 4.06055 6.31055C3.77924 6.59185 3.39782 6.75 3 6.75V14.25C3.39783 14.25 3.77924 14.4081 4.06055 14.6895C4.34185 14.9708 4.5 15.3522 4.5 15.75H19.5C19.5 15.3522 19.6581 14.9708 19.9395 14.6895C20.2208 14.4081 20.6022 14.25 21 14.25V6.75C20.1718 6.75 19.5 6.07821 19.5 5.25H4.5ZM14.25 10.5C14.25 9.90326 14.0128 9.33114 13.5908 8.90918C13.1689 8.48722 12.5967 8.25 12 8.25C11.4033 8.25 10.8311 8.48722 10.4092 8.90918C9.98722 9.33114 9.75 9.90326 9.75 10.5C9.75 11.0967 9.98722 11.6689 10.4092 12.0908C10.8311 12.5128 11.4033 12.75 12 12.75C12.5967 12.75 13.1689 12.5128 13.5908 12.0908C14.0128 11.6689 14.25 11.0967 14.25 10.5ZM6.00781 9.75C6.42203 9.75 6.75781 10.0858 6.75781 10.5V10.5078C6.75781 10.922 6.42203 11.2578 6.00781 11.2578H6C5.58579 11.2578 5.25 10.922 5.25 10.5078V10.5C5.25 10.0858 5.58579 9.75 6 9.75H6.00781ZM18.0078 9.75C18.422 9.75 18.7578 10.0858 18.7578 10.5V10.5078C18.7578 10.922 18.422 11.2578 18.0078 11.2578H18C17.5858 11.2578 17.25 10.922 17.25 10.5078V10.5C17.25 10.0858 17.5858 9.75 18 9.75H18.0078ZM15.75 10.5C15.75 11.4946 15.3546 12.4481 14.6514 13.1514C13.9481 13.8546 12.9946 14.25 12 14.25C11.0054 14.25 10.0519 13.8546 9.34863 13.1514C8.64537 12.4481 8.25 11.4946 8.25 10.5C8.25 9.50544 8.64537 8.55189 9.34863 7.84863C10.0519 7.14537 11.0054 6.75 12 6.75C12.9946 6.75 13.9481 7.14537 14.6514 7.84863C15.3546 8.55189 15.75 9.50544 15.75 10.5Z"></path>
</symbol>
<symbol viewBox="0 0 24 24" id="search">
<g clip-path="url(#clip0_60_3053)">
<path d="M24.0012 22.2791L17.4331 15.711C18.7594 14.0108 19.4865 11.9342 19.4865 9.74323C19.4865 7.14057 18.4719 4.6938 16.6317 2.85477C14.7927 1.0133 12.3459 0 9.74323 0C7.14057 0 4.6938 1.0133 2.85476 2.85477C1.01451 4.6938 0 7.14057 0 9.74323C0 12.3459 1.01451 14.7927 2.85476 16.6317C4.6938 18.4732 7.14057 19.4865 9.74323 19.4865C11.9342 19.4865 14.0108 18.7606 15.711 17.4331L22.2791 24L24.0012 22.2791ZM9.74323 17.0506C7.79093 17.0506 5.95676 16.2907 4.57688 14.9108C3.19578 13.5309 2.43581 11.6955 2.43581 9.74323C2.43581 7.79215 3.19578 5.95676 4.57688 4.57688C5.95676 3.19578 7.79093 2.43581 9.74323 2.43581C11.6955 2.43581 13.5297 3.19578 14.9096 4.57688C16.2907 5.95676 17.0506 7.79215 17.0506 9.74323C17.0506 11.6955 16.2907 13.5309 14.9096 14.9108C13.5297 16.2907 11.6955 17.0506 9.74323 17.0506Z"></path>
</g>
<defs>
<clipPath id="clip0_60_3053">
<rect width="24" height="24" fill="white"></rect>
</clipPath>
</defs>
</symbol>
<symbol viewBox="0 0 24 24" id="star-filled">
<path fill-rule="evenodd" clip-rule="evenodd" d="M10.7875 3.20997C11.2355 2.13297 12.7635 2.13297 13.2115 3.20997L15.2935 8.21597L20.6975 8.64997C21.8615 8.74297 22.3335 10.195 21.4465 10.955L17.3295 14.482L18.5865 19.755C18.8575 20.891 17.6225 21.788 16.6265 21.18L11.9995 18.354L7.37251 21.18C6.37651 21.788 5.14151 20.89 5.41251 19.755L6.66951 14.482L2.55251 10.955C1.66551 10.195 2.13751 8.74297 3.30151 8.64997L8.70552 8.21597L10.7875 3.20997Z"></path>
</symbol>
<symbol viewBox="0 0 24 24" id="star-outline">
<path d="M12.25 2.04419C12.4139 2.06869 12.5734 2.11677 12.7232 2.18774L12.94 2.31079L13.1362 2.4646C13.3193 2.63125 13.4627 2.83749 13.5581 3.06812L15.5532 7.85962L20.7285 8.27563L20.9981 8.31812C22.2939 8.62556 22.7609 10.3254 21.6909 11.2405L21.6895 11.239L17.7476 14.6169L18.9531 19.6677L18.9927 19.9124C19.0144 20.1596 18.9813 20.41 18.8945 20.6448C18.7789 20.9574 18.5725 21.2282 18.3027 21.4241C18.033 21.62 17.7116 21.7317 17.3784 21.7449C17.0453 21.758 16.7151 21.6729 16.4307 21.4988V21.4973L12.001 18.7932L7.56837 21.5002L7.5669 21.4988C7.28294 21.6721 6.9545 21.7594 6.62208 21.7463C6.28915 21.7331 5.96738 21.6213 5.69776 21.4255C5.42806 21.2296 5.223 20.9575 5.10743 20.6448C4.99198 20.3321 4.97135 19.9919 5.04884 19.6677L6.25294 14.6169L2.30958 11.239L2.31104 11.2375C2.05807 11.0211 1.87277 10.7362 1.78224 10.4158C1.69154 10.0945 1.69813 9.75326 1.80128 9.43579L1.89649 9.20581C2.0072 8.9834 2.16554 8.78658 2.36231 8.63159L2.56886 8.49243C2.78391 8.3695 3.02449 8.29529 3.27345 8.27563L8.44727 7.85962L10.4424 3.06665C10.5697 2.75943 10.7843 2.4961 11.0606 2.31079L11.2774 2.18774C11.5024 2.08095 11.7498 2.02515 12.001 2.02515L12.25 2.04419ZM10.3941 9.04175C10.2748 9.32848 10.0784 9.57702 9.82716 9.75952C9.57599 9.94183 9.27961 10.0512 8.97022 10.0759L4.79835 10.4099L7.97559 13.1316L8.14112 13.2927C8.2949 13.4655 8.41152 13.669 8.4839 13.8904C8.58026 14.1853 8.59346 14.5011 8.52198 14.803V14.8044L7.55079 18.8738L11.1206 16.6941L11.3272 16.5872C11.5389 16.4949 11.7684 16.4465 12.001 16.4465L12.2324 16.4626C12.4611 16.4944 12.6815 16.5729 12.8799 16.6941L16.4497 18.8723L15.48 14.8044L15.4785 14.8015C15.4076 14.5001 15.4204 14.1848 15.5166 13.8904C15.6129 13.5958 15.7894 13.333 16.0249 13.1316L19.2007 10.4099L15.0303 10.0759C14.721 10.0511 14.4244 9.94185 14.1733 9.75952C13.9221 9.57703 13.7257 9.32844 13.6065 9.04175L11.9995 5.17749L10.3941 9.04175Z"></path>
</symbol>
<symbol viewBox="0 0 24 24" id="sun">
<path d="M11.25 21V18.75C11.25 18.3358 11.5858 18 12 18C12.4142 18 12.75 18.3358 12.75 18.75V21C12.75 21.4142 12.4142 21.75 12 21.75C11.5858 21.75 11.25 21.4142 11.25 21ZM6.69629 16.2422C6.98919 15.9493 7.46494 15.9493 7.75781 16.2422C8.05069 16.5351 8.05065 17.0108 7.75781 17.3037L6.16602 18.8945C5.8731 19.1872 5.39828 19.1873 5.10547 18.8945C4.81266 18.6017 4.81283 18.1269 5.10547 17.834L6.69629 16.2422ZM16.2422 16.2422C16.5351 15.9493 17.0108 15.9493 17.3037 16.2422L18.8945 17.834C19.1872 18.1269 19.1873 18.6017 18.8945 18.8945C18.6017 19.1873 18.1269 19.1872 17.834 18.8945L16.2422 17.3037C15.9493 17.0108 15.9493 16.5351 16.2422 16.2422ZM15 12C15 11.2044 14.6837 10.4415 14.1211 9.87891C13.5585 9.3163 12.7956 9 12 9C11.2044 9 10.4415 9.3163 9.87891 9.87891C9.3163 10.4415 9 11.2044 9 12C9 12.7956 9.3163 13.5585 9.87891 14.1211C10.4415 14.6837 11.2044 15 12 15C12.7956 15 13.5585 14.6837 14.1211 14.1211C14.6837 13.5585 15 12.7956 15 12ZM5.25 11.25C5.66421 11.25 6 11.5858 6 12C6 12.4142 5.66421 12.75 5.25 12.75H3C2.58579 12.75 2.25 12.4142 2.25 12C2.25 11.5858 2.58579 11.25 3 11.25H5.25ZM21 11.25C21.4142 11.25 21.75 11.5858 21.75 12C21.75 12.4142 21.4142 12.75 21 12.75H18.75C18.3358 12.75 18 12.4142 18 12C18 11.5858 18.3358 11.25 18.75 11.25H21ZM5.10547 5.10547C5.39828 4.81266 5.8731 4.81283 6.16602 5.10547L7.75781 6.69629C8.05066 6.98919 8.05069 7.46494 7.75781 7.75781C7.46494 8.05069 6.98919 8.05066 6.69629 7.75781L5.10547 6.16602C4.81283 5.8731 4.81266 5.39828 5.10547 5.10547ZM17.834 5.10547C18.1269 4.81283 18.6017 4.81266 18.8945 5.10547C19.1873 5.39828 19.1872 5.8731 18.8945 6.16602L17.3037 7.75781C17.0108 8.05065 16.5351 8.05069 16.2422 7.75781C15.9493 7.46494 15.9493 6.98919 16.2422 6.69629L17.834 5.10547ZM11.25 5.25V3C11.25 2.58579 11.5858 2.25 12 2.25C12.4142 2.25 12.75 2.58579 12.75 3V5.25C12.75 5.66421 12.4142 6 12 6C11.5858 6 11.25 5.66421 11.25 5.25ZM16.5 12C16.5 13.1935 16.0256 14.3377 15.1816 15.1816C14.3377 16.0256 13.1935 16.5 12 16.5C10.8065 16.5 9.66227 16.0256 8.81836 15.1816C7.97445 14.3377 7.5 13.1935 7.5 12C7.5 10.8065 7.97445 9.66227 8.81836 8.81836C9.66227 7.97445 10.8065 7.5 12 7.5C13.1935 7.5 14.3377 7.97445 15.1816 8.81836C16.0256 9.66227 16.5 10.8065 16.5 12Z"></path>
</symbol>
<symbol viewBox="0 0 24 24" id="support">
<path d="M2.25 21V3C2.25 2.58579 2.58579 2.25 3 2.25C3.41421 2.25 3.75 2.58579 3.75 3V3.53906L5.58789 3.0791C7.84599 2.51473 10.2318 2.77723 12.3135 3.81836L12.4219 3.87207C14.1476 4.73476 16.1209 4.96509 17.999 4.52344L21.1094 3.79199C21.3461 3.73633 21.595 3.79897 21.7773 3.95996C21.9597 4.12108 22.0525 4.36065 22.0264 4.60254C21.6542 8.03812 21.6558 11.5042 22.0312 14.9395C22.0724 15.316 21.8267 15.6641 21.458 15.751L18.3438 16.4834C16.2626 16.9733 14.0821 16.7645 12.1367 15.8965L11.751 15.7139L11.6426 15.6602C9.88123 14.7793 7.86274 14.5568 5.95215 15.0342L3.75 15.585V21C3.75 21.4142 3.41421 21.75 3 21.75C2.58579 21.75 2.25 21.4142 2.25 21ZM11.6426 5.16016C9.88124 4.27926 7.86274 4.05676 5.95215 4.53418L3.75 5.08496V14.0391L5.58789 13.5791C7.84599 13.0147 10.2318 13.2772 12.3135 14.3184L12.4219 14.3721H12.4209C14.1471 15.2348 16.1216 15.4656 18 15.0234V15.0225L20.4727 14.4414C20.1879 11.4651 20.1753 8.46938 20.4336 5.49121L18.3428 5.98438C16.1231 6.5064 13.7906 6.23349 11.751 5.21387L11.6426 5.16016Z"></path>
</symbol>
<symbol viewBox="0 0 24 24" id="terminal">
<path d="M20.5714 6.0001C20.5714 5.51703 20.3795 5.05374 20.0379 4.71216C19.6963 4.37057 19.2331 4.17868 18.75 4.17868H5.24998C4.76691 4.17868 4.30362 4.37057 3.96204 4.71216C3.62045 5.05374 3.42855 5.51703 3.42855 6.0001V18.0001C3.42855 18.4832 3.62045 18.9465 3.96204 19.2881C4.30362 19.6296 4.76691 19.8215 5.24998 19.8215H18.75C19.2331 19.8215 19.6963 19.6296 20.0379 19.2881C20.3795 18.9465 20.5714 18.4832 20.5714 18.0001V6.0001ZM14.25 11.5715C14.4867 11.5715 14.6786 11.7634 14.6786 12.0001C14.6786 12.2368 14.4867 12.4287 14.25 12.4287H11.25C11.0133 12.4287 10.8214 12.2368 10.8214 12.0001C10.8214 11.7634 11.0133 11.5715 11.25 11.5715H14.25ZM6.40735 7.24285C6.5494 7.05365 6.81794 7.0155 7.00724 7.15747L10.0072 9.40747C10.115 9.48841 10.1786 9.61528 10.1786 9.7501C10.1786 9.88493 10.115 10.0118 10.0072 10.0927L7.00724 12.3427C6.81794 12.4847 6.5494 12.4466 6.40735 12.2574C6.26538 12.0681 6.30353 11.7995 6.49273 11.6575L9.0357 9.7501L6.49273 7.84274C6.30353 7.70069 6.26538 7.43215 6.40735 7.24285ZM21.4286 18.0001C21.4286 18.7105 21.1463 19.3917 20.644 19.8941C20.1416 20.3964 19.4604 20.6787 18.75 20.6787H5.24998C4.53958 20.6787 3.85834 20.3964 3.35601 19.8941C2.85368 19.3917 2.57141 18.7105 2.57141 18.0001V6.0001C2.57141 5.2897 2.85368 4.60846 3.35601 4.10613C3.85834 3.6038 4.53958 3.32153 5.24998 3.32153H18.75C19.4604 3.32153 20.1416 3.6038 20.644 4.10613C21.1463 4.60846 21.4286 5.2897 21.4286 6.0001V18.0001Z"></path>
</symbol>
<symbol viewBox="0 0 24 24" id="trash">
<path d="M10.3043 1.15235C11.4347 1.11622 12.5666 1.11476 13.6969 1.15089C15.4738 1.20713 16.8124 2.65506 16.8697 4.36329C17.7146 4.44662 18.5586 4.55131 19.3981 4.67823C19.7468 4.73126 20.0943 4.78773 20.4425 4.84815C21.0547 4.95438 21.4657 5.53676 21.3595 6.14893C21.2646 6.69425 20.7914 7.07694 20.2565 7.07911L19.2823 19.7588V19.7603C19.2168 20.6077 18.8338 21.3991 18.2101 21.9766C17.586 22.5542 16.7665 22.8748 15.9161 22.8745H8.08508C7.23473 22.8748 6.4152 22.5542 5.79114 21.9766C5.16743 21.3991 4.7844 20.6077 4.71887 19.7603V19.7588L3.74475 7.07764C3.20968 7.07548 2.73639 6.69302 2.64172 6.14747C2.53549 5.5353 2.94654 4.95292 3.55871 4.84669C3.90687 4.78628 4.25525 4.72909 4.60608 4.67676C5.44453 4.55004 6.28624 4.44654 7.13 4.36329C7.18736 2.65628 8.52712 1.20863 10.3043 1.15235ZM15.6642 6.51514C13.2256 6.32668 10.7756 6.32668 8.33703 6.51514C7.54745 6.57628 6.75962 6.65736 5.97424 6.75831L6.96301 19.5874C6.98501 19.8697 7.11264 20.1334 7.32043 20.3257C7.52825 20.5179 7.80057 20.6244 8.08362 20.6245H15.9176C16.2006 20.6244 16.473 20.5179 16.6808 20.3257C16.8886 20.1334 17.0162 19.8697 17.0382 19.5874L18.0255 6.75831C17.2406 6.65745 16.4533 6.57624 15.6642 6.51514ZM9.21741 7.87598C9.83826 7.85212 10.361 8.33618 10.3849 8.95704L10.7306 17.957C10.7543 18.5778 10.2703 19.1007 9.64953 19.1245C9.02887 19.1482 8.50602 18.6641 8.48205 18.0435L8.13635 9.04346C8.11248 8.4226 8.59654 7.89985 9.21741 7.87598ZM14.7838 7.87598C15.4047 7.89985 15.8887 8.4226 15.8649 9.04346L15.5192 18.0435C15.4952 18.6641 14.9723 19.1482 14.3517 19.1245C13.7309 19.1007 13.2469 18.5778 13.2706 17.957L13.6163 8.95704C13.6402 8.33618 14.163 7.85212 14.7838 7.87598ZM11.1891 3.38038L10.3761 3.40089C9.92321 3.41509 9.53315 3.73657 9.41516 4.1919C11.1372 4.10236 12.8626 4.10241 14.5846 4.1919C14.4843 3.80472 14.1901 3.51412 13.8243 3.42725L13.6251 3.40089C12.8135 3.37495 12.0009 3.36742 11.1891 3.38038Z"></path>
</symbol>
<symbol viewBox="0 0 24 24" id="twitch">
<path d="M11.64 5.93H13.07V10.21H11.64M15.57 5.93H17V10.21H15.57M7 2L3.43 5.57V18.43H7.71V22L11.29 18.43H14.14L20.57 12V2M19.14 11.29L16.29 14.14H13.43L10.93 16.64V14.14H7.71V3.43H19.14V11.29Z"></path>
</symbol>
<symbol viewBox="0 0 24 24" id="visible">
<path d="M11.9999 3.5C17.0812 3.5 21.39 6.79526 22.912 11.3623H22.911C23.0499 11.7763 23.0499 12.2228 22.911 12.6357C21.3921 17.2038 17.0819 20.5 11.9999 20.5C6.9187 20.4999 2.60975 17.2048 1.08774 12.6377H1.08677C0.949605 12.2254 0.949582 11.7795 1.08677 11.3672C2.60566 6.79776 6.9166 3.50006 11.9999 3.5ZM11.9999 5.5C7.80347 5.50006 4.24049 8.22191 2.9852 11.998C2.98442 12.0004 2.98448 12.0035 2.9852 12.0059H2.98423C4.2422 15.7807 7.80512 18.4999 11.9999 18.5C16.1964 18.5 19.7592 15.778 21.0135 12.002L21.0155 11.998L21.0145 11.9941C19.7565 8.21918 16.1945 5.5 11.9999 5.5Z"></path>
<path d="M14 12C14 11.4696 13.7891 10.961 13.4141 10.5859C13.039 10.2109 12.5304 10 12 10C11.4696 10 10.961 10.2109 10.5859 10.5859C10.2109 10.961 10 11.4696 10 12C10 12.5304 10.2109 13.039 10.5859 13.4141C10.961 13.7891 11.4696 14 12 14C12.5304 14 13.039 13.7891 13.4141 13.4141C13.7891 13.039 14 12.5304 14 12ZM16 12C16 13.0609 15.5783 14.078 14.8281 14.8281C14.078 15.5783 13.0609 16 12 16C10.9391 16 9.92202 15.5783 9.17188 14.8281C8.42173 14.078 8 13.0609 8 12C8 10.9391 8.42173 9.92202 9.17188 9.17188C9.92202 8.42173 10.9391 8 12 8C13.0609 8 14.078 8.42173 14.8281 9.17188C15.5783 9.92202 16 10.9391 16 12Z"></path>
</symbol>
<symbol viewBox="0 0 24 24" id="x">
<path d="M17.751 3H20.818L14.118 10.625L22 21H15.828L10.995 14.707L5.464 21H2.394L9.561 12.845L2 3H8.328L12.698 8.752L17.751 3ZM16.675 19.172H18.375L7.404 4.732H5.58L16.675 19.172Z"></path>
</symbol>
<symbol viewBox="0 0 24 24" id="youtube">
<path d="M10 15L15.19 12L10 9V15ZM21.56 7.17C21.69 7.64 21.78 8.27 21.84 9.07C21.91 9.87 21.94 10.56 21.94 11.16L22 12C22 14.19 21.84 15.8 21.56 16.83C21.31 17.73 20.73 18.31 19.83 18.56C19.36 18.69 18.5 18.78 17.18 18.84C15.88 18.91 14.69 18.94 13.59 18.94L12 19C7.81 19 5.2 18.84 4.17 18.56C3.27 18.31 2.69 17.73 2.44 16.83C2.31 16.36 2.22 15.73 2.16 14.93C2.09 14.13 2.06 13.44 2.06 12.84L2 12C2 9.81 2.16 8.2 2.44 7.17C2.69 6.27 3.27 5.69 4.17 5.44C4.64 5.31 5.5 5.22 6.82 5.16C8.12 5.09 9.31 5.06 10.41 5.06L12 5C16.19 5 18.8 5.16 19.83 5.44C20.73 5.69 21.31 6.27 21.56 7.17Z"></path>
</symbol>
</defs>
</svg>
